%
T1C.035F197S550
X012016Y004000
X012016Y003213
X013000Y004000
X013000Y003213
X023800Y024000
X023800Y025000
X023800Y026000
X018750Y028000
X018750Y029000
X019750Y029000
X019750Y028000
X020750Y028000
X020750Y029000
T2C.037F197S550
X006500Y007500
X011250Y009000
X014000Y007250
X014500Y007750
X014500Y005000
X016000Y006250
X022250Y011750
X014250Y010000
X014000Y009250
X012750Y010750
X009250Y012000
X016750Y017250
X017000Y016500
X017250Y015000
X017500Y017250
X017500Y018500
X018500Y015250
X019250Y015500
X020000Y016000
X021750Y016500
X021750Y019000
X021750Y018000
X022250Y017250
X022500Y018500
X022500Y015500
X022500Y016500
X023250Y019250
X023000Y022000
X021750Y022750
X020750Y024000
X020250Y023000
X020250Y020500
X020000Y019250
X019750Y023500
X019250Y019750
X017750Y024000
X016750Y021750
X016000Y022750
X014750Y023000
X012500Y023500
X009500Y023000
X006500Y023000
X006500Y024500
X009250Y025250
X012250Y026250
X014750Y026500
X015250Y025250
X015500Y026500
X016000Y025000
X017500Y026250
X017750Y024750
X018500Y024250
X018500Y025750
X020250Y026000
X020250Y024750
X022250Y026500
X021750Y027500
X021000Y026750
X012750Y027000
X011250Y027750
X010750Y026750
X006500Y028500
T3C.041F139S550
X013750Y012250
X014750Y012250
X015750Y012250
T4C.04724F139S550
X023700Y003500
X023700Y001531
X023800Y011500
X023800Y013469
X023700Y016031
X023700Y018000
X001300Y018000
X001300Y019969
X001300Y022500
X001300Y024469
X023700Y020031
X023700Y022000
T5C.05118F107S550
X008813Y014750
X010781Y014750
X012750Y014750
X011766Y021640
X009797Y021640
T6C.08701F074S550
X007870Y018884
X013695Y018884
T7C.09843F066S550
X010138Y002150
X014878Y002150
T8C.1875F035S1033
X001200Y008200
X023850Y008200
X023850Y028200
X001200Y028200
M30
