*
*
G04 PADS 9.3.1 Build Number: 456998 generated Gerber (RS-274-X) file*
G04 PC Version=2.1*
*
%IN "Dechorionator.pcb"*%
*
%MOIN*%
*
%FSLAX35Y35*%
*
*
*
*
G04 PC Standard Apertures*
*
*
G04 Thermal Relief Aperture macro.*
%AMTER*
1,1,$1,0,0*
1,0,$1-$2,0,0*
21,0,$3,$4,0,0,45*
21,0,$3,$4,0,0,135*
%
*
*
G04 Annular Aperture macro.*
%AMANN*
1,1,$1,0,0*
1,0,$2,0,0*
%
*
*
G04 Odd Aperture macro.*
%AMODD*
1,1,$1,0,0*
1,0,$1-0.005,0,0*
%
*
*
G04 PC Custom Aperture Macros*
*
*
*
*
*
*
G04 PC Aperture Table*
*
%ADD010C,0.001*%
%ADD051C,0.07*%
%ADD149C,0.08874*%
%ADD150C,0.13992*%
%ADD155R,0.075X0.075*%
%ADD156C,0.075*%
%ADD162C,0.1975*%
%ADD174C,0.08087*%
*
*
*
*
G04 PC Circuitry*
G04 Layer Name Dechorionator.pcb - circuitry*
%LPD*%
*
*
G04 PC Custom Flashes*
G04 Layer Name Dechorionator.pcb - flashes*
%LPD*%
*
*
G04 PC Circuitry*
G04 Layer Name Dechorionator.pcb - circuitry*
%LPD*%
*
G54D10*
G54D51*
G01X130000Y40000D03*
X120157D03*
Y32126D03*
X130000D03*
X101378Y21496D03*
X148780D03*
X187500Y280000D03*
Y290000D03*
X197500Y280000D03*
Y290000D03*
X207500Y280000D03*
Y290000D03*
X238000Y240000D03*
Y250000D03*
Y260000D03*
G54D149*
X127500Y147500D03*
X107815D03*
X88130D03*
X117657Y216398D03*
X97972D03*
G54D150*
X136949Y188839D03*
X78697D03*
G54D155*
X137500Y122500D03*
G54D156*
X147500D03*
X157500D03*
G54D162*
X238500Y282000D03*
Y82000D03*
X12000Y282000D03*
Y82000D03*
G54D174*
X237000Y220000D03*
Y200315D03*
Y180000D03*
Y160315D03*
X238000Y115000D03*
Y134685D03*
X237000Y35000D03*
Y15315D03*
X13000Y180000D03*
Y199685D03*
Y225000D03*
Y244685D03*
X0Y0D02*
M02*
