*
*
G04 PADS 9.3.1 Build Number: 456998 generated Gerber (RS-274-X) file*
G04 PC Version=2.1*
*
%IN "Dechorionator.pcb"*%
*
%MOIN*%
*
%FSLAX35Y35*%
*
*
*
*
G04 PC Standard Apertures*
*
*
G04 Thermal Relief Aperture macro.*
%AMTER*
1,1,$1,0,0*
1,0,$1-$2,0,0*
21,0,$3,$4,0,0,45*
21,0,$3,$4,0,0,135*
%
*
*
G04 Annular Aperture macro.*
%AMANN*
1,1,$1,0,0*
1,0,$2,0,0*
%
*
*
G04 Odd Aperture macro.*
%AMODD*
1,1,$1,0,0*
1,0,$1-0.005,0,0*
%
*
*
G04 PC Custom Aperture Macros*
*
*
*
*
*
*
G04 PC Aperture Table*
*
%ADD010C,0.001*%
%ADD011C,0.01*%
%ADD012C,0.005*%
%ADD040C,0.00787*%
%ADD167C,0.008*%
%ADD179C,0.00787*%
*
*
*
*
G04 PC Circuitry*
G04 Layer Name Dechorionator.pcb - circuitry*
%LPD*%
*
*
G04 PC Custom Flashes*
G04 Layer Name Dechorionator.pcb - flashes*
%LPD*%
*
*
G04 PC Circuitry*
G04 Layer Name Dechorionator.pcb - circuitry*
%LPD*%
*
G54D10*
G54D11*
G01X156200Y49000D02*
X162000D01*
Y56000*
X156200*
X153800Y49000D02*
X148000D01*
Y56000*
X153800*
X176200Y49000D02*
X182000D01*
Y56000*
X176200*
X173800Y49000D02*
X168000D01*
Y56000*
X173800*
X176200Y64000D02*
X182000D01*
Y71000*
X176200*
X173800Y64000D02*
X168000D01*
Y71000*
X173800*
X116500Y243800D02*
Y238000D01*
X123500*
Y243800*
X116500Y246200D02*
Y252000D01*
X123500*
Y246200*
X73800Y248500D02*
X68000D01*
Y241500*
X73800*
X76200Y248500D02*
X82000D01*
Y241500*
X76200*
X186300Y223500D02*
X180500D01*
Y216500*
X186300*
X188700Y223500D02*
X194500D01*
Y216500*
X188700*
X46300Y148500D02*
X40500D01*
Y141500*
X46300*
X48700Y148500D02*
X54500D01*
Y141500*
X48700*
X38700Y49000D02*
X44500D01*
Y56000*
X38700*
X36300Y49000D02*
X30500D01*
Y56000*
X36300*
X81300Y43500D02*
X75500D01*
Y36500*
X81300*
X83700Y43500D02*
X89500D01*
Y36500*
X83700*
X203800Y101000D02*
X198000D01*
Y94000*
X203800*
X206200Y101000D02*
X212000D01*
Y94000*
X206200*
X163700Y186500D02*
X169500D01*
Y193500*
X163700*
X161300Y186500D02*
X155500D01*
Y193500*
X161300*
X163700Y174000D02*
X169500D01*
Y181000*
X163700*
X161300Y174000D02*
X155500D01*
Y181000*
X161300*
X163700Y156500D02*
X169500D01*
Y163500*
X163700*
X161300Y156500D02*
X155500D01*
Y163500*
X161300*
X188700Y234000D02*
X194500D01*
Y241000*
X188700*
X186300Y234000D02*
X180500D01*
Y241000*
X186300*
X188700Y249000D02*
X194500D01*
Y256000*
X188700*
X186300Y249000D02*
X180500D01*
Y256000*
X186300*
X224000Y108500D02*
X198000D01*
Y141500*
X224000*
Y108500*
X233000Y234000D02*
Y265000D01*
X242000*
Y234000*
X233000*
X221500Y253000D02*
Y255500D01*
X216500*
X221500Y247000D02*
Y244500D01*
X216500*
X212500Y250500D02*
Y249500D01*
X73800Y236000D02*
X68000D01*
Y229000*
X73800*
X76200Y236000D02*
X82000D01*
Y229000*
X76200*
X101300Y118500D02*
X95500D01*
Y111500*
X101300*
X103700Y118500D02*
X109500D01*
Y111500*
X103700*
X176250Y105000D02*
X168200D01*
Y95000*
X176250*
X183750Y105000D02*
X191800D01*
Y95000*
X183750*
X210500Y208750D02*
Y200700D01*
X224500*
Y208750*
X210500Y216250D02*
Y224300D01*
X224500*
Y216250*
G54D12*
X200705Y148000D02*
X200591Y148313D01*
X200591D02*
X200364Y148625D01*
X200136Y148781*
X199682*
X199455Y148625*
X199227Y148313*
X199227D02*
X199114Y148000D01*
X199000Y147531*
Y146750*
X199114Y146281*
X199227Y145969*
X199455Y145656*
X199682Y145500*
X200136*
X200364Y145656*
X200591Y145969*
X200705Y146281*
X201727Y147688D02*
Y146125D01*
X201841Y145656*
X202068Y145500*
X202409*
X202636Y145656*
X202977Y146125*
Y147688D02*
Y145500D01*
X204000Y147688D02*
Y145500D01*
Y146750D02*
X204114Y147219D01*
X204341Y147531*
X204568Y147688*
X204568D02*
X204909D01*
X205932D02*
Y145500D01*
Y146750D02*
X206045Y147219D01*
X206273Y147531*
X206500Y147688*
X206500D02*
X206841D01*
X207864Y146750D02*
X209227D01*
Y147063*
X209227D02*
X209114Y147375D01*
X209000Y147531*
X208773Y147688*
X208773D02*
X208432D01*
X208432D02*
X208205Y147531D01*
X207977Y147219*
X207864Y146750*
Y146438*
X207864D02*
X207977Y145969D01*
X208205Y145656*
X208432Y145500*
X208773*
X209000Y145656*
X209227Y145969*
X210250Y147688D02*
Y145500D01*
Y147063D02*
X210591Y147531D01*
X210818Y147688*
X210818D02*
X211159D01*
X211159D02*
X211386Y147531D01*
X211500Y147063*
X211500D02*
Y145500D01*
X212864Y148781D02*
Y146125D01*
X212977Y145656*
X213205Y145500*
X213432*
X212523Y147688D02*
X213318D01*
X217977Y148781D02*
X217068Y145500D01*
X217977Y148781D02*
X218886Y145500D01*
X217409Y146594D02*
X218545D01*
X221273Y148781D02*
Y145500D01*
Y147219D02*
X221045Y147531D01*
X220818Y147688*
X220818D02*
X220477D01*
X220477D02*
X220250Y147531D01*
X220023Y147219*
X219909Y146750*
Y146438*
X219909D02*
X220023Y145969D01*
X220250Y145656*
X220477Y145500*
X220818*
X221045Y145656*
X221273Y145969*
X222750Y148781D02*
X222864Y148625D01*
X222977Y148781*
X222864Y148938*
X222864D02*
X222750Y148781D01*
X222864Y147688D02*
Y145031D01*
X222750Y144562*
X222750D02*
X222523Y144406D01*
X222295*
X227719Y238795D02*
X231000D01*
X227719Y238000D02*
Y239591D01*
Y240614D02*
X231000Y242205D01*
X227719D02*
X231000Y240614D01*
X228500Y247705D02*
X228187Y247591D01*
X228187D02*
X227875Y247364D01*
X227719Y247136*
Y246682*
X227875Y246455*
X228187Y246227*
X228187D02*
X228500Y246114D01*
X228969Y246000*
X229750*
X230219Y246114*
X230531Y246227*
X230844Y246455*
X231000Y246682*
Y247136*
X230844Y247364*
X230531Y247591*
X230219Y247705*
X229750*
Y247136D02*
Y247705D01*
X227719Y248727D02*
X231000D01*
X227719D02*
X231000Y250318D01*
X227719D02*
X231000D01*
X227719Y251341D02*
X231000D01*
X227719D02*
Y252136D01*
X227875Y252477*
X228187Y252705*
X228187D02*
X228500Y252818D01*
X228969Y252932*
X229750*
X230219Y252818*
X230531Y252705*
X230844Y252477*
X231000Y252136*
Y251341*
X228187Y257023D02*
X231000D01*
X229594Y256000D02*
Y258045D01*
X227719Y260545D02*
Y259409D01*
X229125Y259295*
X228969Y259409*
X228812Y259750*
X228812D02*
Y260091D01*
X228812D02*
X228969Y260432D01*
X229281Y260659*
X229750Y260773*
X230062Y260659*
X230062D02*
X230531Y260545D01*
X230844Y260318*
X231000Y259977*
Y259636*
X230844Y259295*
X230687Y259182*
X230687D02*
X230375Y259068D01*
X227719Y261795D02*
X231000Y262705D01*
X227719Y263614D02*
X231000Y262705D01*
X170000Y278281D02*
Y275938D01*
X170000D02*
X170114Y275469D01*
X170341Y275156*
X170682Y275000*
X170909*
X171250Y275156*
X171477Y275469*
X171591Y275938*
X171591D02*
Y278281D01*
X172614Y277656D02*
X172841Y277813D01*
X172841D02*
X173182Y278281D01*
Y275000*
X138000Y74281D02*
Y71938D01*
X138000D02*
X138114Y71469D01*
X138341Y71156*
X138682Y71000*
X138909*
X139250Y71156*
X139477Y71469*
X139591Y71938*
X139591D02*
Y74281D01*
X142091Y73188D02*
X141977Y72719D01*
X141750Y72406*
X141409Y72250*
X141295*
X140955Y72406*
X140727Y72719*
X140614Y73188*
X140614D02*
Y73344D01*
X140727Y73813*
X140727D02*
X140955Y74125D01*
X141295Y74281*
X141409*
X141750Y74125*
X141977Y73813*
X141977D02*
X142091Y73188D01*
X142091D02*
Y72406D01*
X141977Y71625*
X141750Y71156*
X141409Y71000*
X141182*
X140841Y71156*
X140727Y71469*
X100000Y12281D02*
Y9938D01*
X100000D02*
X100114Y9469D01*
X100341Y9156*
X100682Y9000*
X100909*
X101250Y9156*
X101477Y9469*
X101591Y9938*
X101591D02*
Y12281D01*
X104205Y11813D02*
X103977Y12125D01*
X103636Y12281*
X103182*
X102841Y12125*
X102614Y11813*
X102614D02*
Y11500D01*
X102727Y11188*
X102727D02*
X102841Y11031D01*
X103068Y10875*
X103750Y10563*
X103750D02*
X103977Y10406D01*
X104091Y10250*
X104205Y9938*
X104205D02*
Y9469D01*
X103977Y9156*
X103636Y9000*
X103182*
X102841Y9156*
X102614Y9469*
X105227Y12281D02*
Y9000D01*
Y12281D02*
X106250D01*
X106591Y12125*
X106705Y11969*
X106818Y11656*
Y11344*
X106705Y11031*
X106591Y10875*
X106250Y10719*
X105227D02*
X106250D01*
X106591Y10563*
X106591D02*
X106705Y10406D01*
X106818Y10094*
Y9625*
X106705Y9313*
X106705D02*
X106591Y9156D01*
X106250Y9000*
X105227*
X107841Y11656D02*
X108068Y11813D01*
X108068D02*
X108409Y12281D01*
Y9000*
X145000Y45781D02*
Y42500D01*
Y45781D02*
X146023D01*
X146364Y45625*
X146477Y45469*
X146591Y45156*
Y44844*
X146477Y44531*
X146364Y44375*
X146023Y44219*
X145000*
X145795D02*
X146591Y42500D01*
X147614Y45156D02*
X147841Y45313D01*
X147841D02*
X148182Y45781D01*
Y42500*
X150682Y45781D02*
X149545D01*
X149432Y44375*
X149545Y44531*
X149886Y44688*
X149886D02*
X150227D01*
X150227D02*
X150568Y44531D01*
X150795Y44219*
X150909Y43750*
X150795Y43438*
X150795D02*
X150682Y42969D01*
X150455Y42656*
X150114Y42500*
X149773*
X149432Y42656*
X149318Y42813*
X149318D02*
X149205Y43125D01*
X165000Y45781D02*
Y42500D01*
Y45781D02*
X166023D01*
X166364Y45625*
X166477Y45469*
X166591Y45156*
Y44844*
X166477Y44531*
X166364Y44375*
X166023Y44219*
X165000*
X165795D02*
X166591Y42500D01*
X167614Y45156D02*
X167841Y45313D01*
X167841D02*
X168182Y45781D01*
Y42500*
X170568Y45313D02*
X170455Y45625D01*
X170114Y45781*
X169886*
X169545Y45625*
X169318Y45156*
X169205Y44375*
Y43594*
X169318Y42969*
X169545Y42656*
X169886Y42500*
X170000*
X170341Y42656*
X170568Y42969*
X170682Y43438*
X170682D02*
Y43594D01*
X170568Y44063*
X170568D02*
X170341Y44375D01*
X170000Y44531*
X169886*
X169545Y44375*
X169318Y44063*
X169318D02*
X169205Y43594D01*
X171705Y60000D02*
X171591Y60313D01*
X171591D02*
X171364Y60625D01*
X171136Y60781*
X170682*
X170455Y60625*
X170227Y60313*
X170227D02*
X170114Y60000D01*
X170000Y59531*
Y58750*
X170114Y58281*
X170227Y57969*
X170455Y57656*
X170682Y57500*
X171136*
X171364Y57656*
X171591Y57969*
X171705Y58281*
X174205Y60781D02*
X173068D01*
X172955Y59375*
X173068Y59531*
X173409Y59688*
X173409D02*
X173750D01*
X173750D02*
X174091Y59531D01*
X174318Y59219*
X174432Y58750*
X174318Y58438*
X174318D02*
X174205Y57969D01*
X173977Y57656*
X173636Y57500*
X173295*
X172955Y57656*
X172841Y57813*
X172841D02*
X172727Y58125D01*
X111719Y240000D02*
X115000D01*
X111719D02*
Y241023D01*
X111875Y241364*
X112031Y241477*
X112344Y241591*
X112656*
X112969Y241477*
X113125Y241364*
X113281Y241023*
Y240000*
Y240795D02*
X115000Y241591D01*
X112344Y242614D02*
X112187Y242841D01*
X112187D02*
X111719Y243182D01*
X115000*
X70000Y238281D02*
Y235000D01*
Y238281D02*
X71023D01*
X71364Y238125*
X71477Y237969*
X71591Y237656*
Y237344*
X71477Y237031*
X71364Y236875*
X71023Y236719*
X70000*
X70795D02*
X71591Y235000D01*
X72727Y237500D02*
Y237656D01*
X72841Y237969*
X72955Y238125*
X73182Y238281*
X73636*
X73864Y238125*
X73977Y237969*
X74091Y237656*
Y237344*
X73977Y237031*
X73750Y236563*
X73750D02*
X72614Y235000D01*
X74205*
X36591Y267813D02*
X36364Y268125D01*
X36023Y268281*
X35568*
X35227Y268125*
X35000Y267813*
X35000D02*
Y267500D01*
X35114Y267188*
X35114D02*
X35227Y267031D01*
X35455Y266875*
X36136Y266563*
X36136D02*
X36364Y266406D01*
X36477Y266250*
X36591Y265938*
X36591D02*
Y265469D01*
X36364Y265156*
X36023Y265000*
X35568*
X35227Y265156*
X35000Y265469*
X37614Y267656D02*
X37841Y267813D01*
X37841D02*
X38182Y268281D01*
Y265000*
X202500Y203281D02*
Y200938D01*
X202500D02*
X202614Y200469D01*
X202841Y200156*
X203182Y200000*
X203409*
X203750Y200156*
X203977Y200469*
X204091Y200938*
X204091D02*
Y203281D01*
X206250D02*
X205114Y201094D01*
X206818*
X206250Y203281D02*
Y200000D01*
X179205Y227500D02*
X179091Y227813D01*
X179091D02*
X178864Y228125D01*
X178636Y228281*
X178182*
X177955Y228125*
X177727Y227813*
X177727D02*
X177614Y227500D01*
X177500Y227031*
Y226250*
X177614Y225781*
X177727Y225469*
X177955Y225156*
X178182Y225000*
X178636*
X178864Y225156*
X179091Y225469*
X179205Y225781*
X180227Y227656D02*
X180455Y227813D01*
X180455D02*
X180795Y228281D01*
Y225000*
X49205Y137500D02*
X49091Y137813D01*
X49091D02*
X48864Y138125D01*
X48636Y138281*
X48182*
X47955Y138125*
X47727Y137813*
X47727D02*
X47614Y137500D01*
X47500Y137031*
Y136250*
X47614Y135781*
X47727Y135469*
X47955Y135156*
X48182Y135000*
X48636*
X48864Y135156*
X49091Y135469*
X49205Y135781*
X50341Y137500D02*
Y137656D01*
X50455Y137969*
X50568Y138125*
X50795Y138281*
X51250*
X51477Y138125*
X51591Y137969*
X51705Y137656*
Y137344*
X51591Y137031*
X51364Y136563*
X51364D02*
X50227Y135000D01*
X51818*
X40795Y45000D02*
X40909Y44687D01*
X40909D02*
X41136Y44375D01*
X41364Y44219*
X41818*
X42045Y44375*
X42273Y44687*
X42273D02*
X42386Y45000D01*
X42500Y45469*
Y46250*
X42386Y46719*
X42273Y47031*
X42045Y47344*
X41818Y47500*
X41364*
X41136Y47344*
X40909Y47031*
X40795Y46719*
X39545Y44219D02*
X38295D01*
X38977Y45469*
X38636*
X38409Y45625*
X38295Y45781*
X38182Y46250*
Y46562*
X38182D02*
X38295Y47031D01*
X38523Y47344*
X38864Y47500*
X39205*
X39545Y47344*
X39659Y47187*
X39659D02*
X39773Y46875D01*
X79205Y32500D02*
X79091Y32813D01*
X79091D02*
X78864Y33125D01*
X78636Y33281*
X78182*
X77955Y33125*
X77727Y32813*
X77727D02*
X77614Y32500D01*
X77500Y32031*
Y31250*
X77614Y30781*
X77727Y30469*
X77955Y30156*
X78182Y30000*
X78636*
X78864Y30156*
X79091Y30469*
X79205Y30781*
X81364Y33281D02*
X80227Y31094D01*
X81932*
X81364Y33281D02*
Y30000D01*
X213295Y90000D02*
X213409Y89688D01*
X213409D02*
X213636Y89375D01*
X213864Y89219*
X214318*
X214545Y89375*
X214773Y89688*
X214773D02*
X214886Y90000D01*
X215000Y90469*
Y91250*
X214886Y91719*
X214773Y92031*
X214545Y92344*
X214318Y92500*
X213864*
X213636Y92344*
X213409Y92031*
X213295Y91719*
X210909Y89688D02*
X211023Y89375D01*
X211364Y89219*
X211591*
X211932Y89375*
X212159Y89844*
X212273Y90625*
Y91406*
X212159Y92031*
X211932Y92344*
X211591Y92500*
X211477*
X211136Y92344*
X210909Y92031*
X210795Y91563*
X210795D02*
Y91406D01*
X210909Y90938*
X210909D02*
X211136Y90625D01*
X211477Y90469*
X211591*
X211932Y90625*
X212159Y90938*
X212159D02*
X212273Y91406D01*
X170795Y182500D02*
X170909Y182187D01*
X170909D02*
X171136Y181875D01*
X171364Y181719*
X171818*
X172045Y181875*
X172273Y182187*
X172273D02*
X172386Y182500D01*
X172500Y182969*
Y183750*
X172386Y184219*
X172273Y184531*
X172045Y184844*
X171818Y185000*
X171364*
X171136Y184844*
X170909Y184531*
X170795Y184219*
X168182Y181719D02*
X169318Y185000D01*
X169773Y181719D02*
X168182D01*
X172500Y169219D02*
Y172500D01*
Y169219D02*
X171477D01*
X171136Y169375*
X171023Y169531*
X170909Y169844*
Y170156*
X171023Y170469*
X171136Y170625*
X171477Y170781*
X172500*
X171705D02*
X170909Y172500D01*
X169659Y169219D02*
X168409D01*
X169091Y170469*
X168750*
X168523Y170625*
X168409Y170781*
X168295Y171250*
Y171562*
X168295D02*
X168409Y172031D01*
X168636Y172344*
X168977Y172500*
X169318*
X169659Y172344*
X169773Y172187*
X169773D02*
X169886Y171875D01*
X152500Y168281D02*
Y165000D01*
Y168281D02*
X153523D01*
X153864Y168125*
X153977Y167969*
X154091Y167656*
Y167344*
X153977Y167031*
X153864Y166875*
X153523Y166719*
X152500*
X153295D02*
X154091Y165000D01*
X156250Y168281D02*
X155114Y166094D01*
X156818*
X156250Y168281D02*
Y165000D01*
X182500Y230781D02*
Y227500D01*
Y230781D02*
X183523D01*
X183864Y230625*
X183977Y230469*
X184091Y230156*
Y229844*
X183977Y229531*
X183864Y229375*
X183523Y229219*
X182500*
X183295D02*
X184091Y227500D01*
X186591Y230781D02*
X185455D01*
X185341Y229375*
X185455Y229531*
X185795Y229688*
X185795D02*
X186136D01*
X186136D02*
X186477Y229531D01*
X186705Y229219*
X186818Y228750*
X186705Y228438*
X186705D02*
X186591Y227969D01*
X186364Y227656*
X186023Y227500*
X185682*
X185341Y227656*
X185227Y227813*
X185227D02*
X185114Y228125D01*
X182500Y245781D02*
Y242500D01*
Y245781D02*
X183523D01*
X183864Y245625*
X183977Y245469*
X184091Y245156*
Y244844*
X183977Y244531*
X183864Y244375*
X183523Y244219*
X182500*
X183295D02*
X184091Y242500D01*
X186477Y245313D02*
X186364Y245625D01*
X186023Y245781*
X185795*
X185455Y245625*
X185227Y245156*
X185114Y244375*
Y243594*
X185227Y242969*
X185455Y242656*
X185795Y242500*
X185909*
X186250Y242656*
X186477Y242969*
X186591Y243438*
X186591D02*
Y243594D01*
X186477Y244063*
X186477D02*
X186250Y244375D01*
X185909Y244531*
X185795*
X185455Y244375*
X185227Y244063*
X185227D02*
X185114Y243594D01*
X205000Y105781D02*
Y103438D01*
X205000D02*
X205114Y102969D01*
X205341Y102656*
X205682Y102500*
X205909*
X206250Y102656*
X206477Y102969*
X206591Y103438*
X206591D02*
Y105781D01*
X209091D02*
X207955D01*
X207841Y104375*
X207955Y104531*
X208295Y104688*
X208295D02*
X208636D01*
X208636D02*
X208977Y104531D01*
X209205Y104219*
X209318Y103750*
X209205Y103438*
X209205D02*
X209091Y102969D01*
X208864Y102656*
X208523Y102500*
X208182*
X207841Y102656*
X207727Y102813*
X207727D02*
X207614Y103125D01*
X127500Y130781D02*
Y128438D01*
X127500D02*
X127614Y127969D01*
X127841Y127656*
X128182Y127500*
X128409*
X128750Y127656*
X128977Y127969*
X129091Y128438*
X129091D02*
Y130781D01*
X130114Y130156D02*
X130341Y130313D01*
X130341D02*
X130682Y130781D01*
Y127500*
X132386Y130781D02*
X132045Y130625D01*
X131818Y130156*
X131705Y129375*
Y128906*
X131818Y128125*
X132045Y127656*
X132386Y127500*
X132614*
X132955Y127656*
X133182Y128125*
X133295Y128906*
Y129375*
X133182Y130156*
X132955Y130625*
X132614Y130781*
X132386*
X225781Y260000D02*
X223438D01*
X223438D02*
X222969Y259886D01*
X222656Y259659*
X222500Y259318*
Y259091*
X222656Y258750*
X222969Y258523*
X223438Y258409*
X223438D02*
X225781D01*
X225156Y257386D02*
X225313Y257159D01*
X225313D02*
X225781Y256818D01*
X222500*
X225313Y254432D02*
X225625Y254545D01*
X225781Y254886*
Y255114*
X225625Y255455*
X225156Y255682*
X224375Y255795*
X223594*
X222969Y255682*
X222656Y255455*
X222500Y255114*
Y255000*
X222656Y254659*
X222969Y254432*
X223438Y254318*
X223438D02*
X223594D01*
X224063Y254432*
X224063D02*
X224375Y254659D01*
X224531Y255000*
Y255114*
X224375Y255455*
X224063Y255682*
X224063D02*
X223594Y255795D01*
X81705Y240000D02*
X81591Y240313D01*
X81591D02*
X81364Y240625D01*
X81136Y240781*
X80682*
X80455Y240625*
X80227Y240313*
X80227D02*
X80114Y240000D01*
X80000Y239531*
Y238750*
X80114Y238281*
X80227Y237969*
X80455Y237656*
X80682Y237500*
X81136*
X81364Y237656*
X81591Y237969*
X81705Y238281*
X82727Y240156D02*
X82955Y240313D01*
X82955D02*
X83295Y240781D01*
Y237500*
X85000Y240781D02*
X84659Y240625D01*
X84432Y240156*
X84318Y239375*
Y238906*
X84432Y238125*
X84659Y237656*
X85000Y237500*
X85227*
X85568Y237656*
X85795Y238125*
X85909Y238906*
Y239375*
X85795Y240156*
X85568Y240625*
X85227Y240781*
X85000*
X99219Y240000D02*
X100781Y240909D01*
X102500*
X99219Y241818D02*
X100781Y240909D01*
X99844Y242841D02*
X99687Y243068D01*
X99687D02*
X99219Y243409D01*
X102500*
X99205Y125000D02*
X99091Y125313D01*
X99091D02*
X98864Y125625D01*
X98636Y125781*
X98182*
X97955Y125625*
X97727Y125313*
X97727D02*
X97614Y125000D01*
X97500Y124531*
Y123750*
X97614Y123281*
X97727Y122969*
X97955Y122656*
X98182Y122500*
X98636*
X98864Y122656*
X99091Y122969*
X99205Y123281*
X100795Y125781D02*
X100455Y125625D01*
X100341Y125313*
X100341D02*
Y125000D01*
X100455Y124688*
X100455D02*
X100682Y124531D01*
X101136Y124375*
X101477Y124219*
X101705Y123906*
X101818Y123594*
Y123125*
X101705Y122813*
X101705D02*
X101591Y122656D01*
X101250Y122500*
X100795*
X100455Y122656*
X100341Y122813*
X100341D02*
X100227Y123125D01*
Y123594*
X100341Y123906*
X100568Y124219*
X100909Y124375*
X101364Y124531*
X101591Y124688*
X101591D02*
X101705Y125000D01*
Y125313*
X101705D02*
X101591Y125625D01*
X101250Y125781*
X100795*
X35000Y83281D02*
Y80938D01*
X35000D02*
X35114Y80469D01*
X35341Y80156*
X35682Y80000*
X35909*
X36250Y80156*
X36477Y80469*
X36591Y80938*
X36591D02*
Y83281D01*
X37614Y82656D02*
X37841Y82813D01*
X37841D02*
X38182Y83281D01*
Y80000*
X39205Y82656D02*
X39432Y82813D01*
X39432D02*
X39773Y83281D01*
Y80000*
X163295Y142500D02*
X163409Y142187D01*
X163409D02*
X163636Y141875D01*
X163864Y141719*
X164318*
X164545Y141875*
X164773Y142187*
X164773D02*
X164886Y142500D01*
X165000Y142969*
Y143750*
X164886Y144219*
X164773Y144531*
X164545Y144844*
X164318Y145000*
X163864*
X163636Y144844*
X163409Y144531*
X163295Y144219*
X160795Y142812D02*
X160909Y143281D01*
X161136Y143594*
X161477Y143750*
X161591*
X161932Y143594*
X162159Y143281*
X162273Y142812*
X162273D02*
Y142656D01*
X162159Y142187*
X162159D02*
X161932Y141875D01*
X161591Y141719*
X161477*
X161136Y141875*
X160909Y142187*
X160909D02*
X160795Y142812D01*
X160795D02*
Y143594D01*
X160909Y144375*
X161136Y144844*
X161477Y145000*
X161705*
X162045Y144844*
X162159Y144531*
X202500Y214205D02*
X202187Y214091D01*
X202187D02*
X201875Y213864D01*
X201719Y213636*
Y213182*
X201875Y212955*
X202187Y212727*
X202187D02*
X202500Y212614D01*
X202969Y212500*
X203750*
X204219Y212614*
X204531Y212727*
X204844Y212955*
X205000Y213182*
Y213636*
X204844Y213864*
X204531Y214091*
X204219Y214205*
X202344Y215227D02*
X202187Y215455D01*
X202187D02*
X201719Y215795D01*
X205000*
X202344Y216818D02*
X202187Y217045D01*
X202187D02*
X201719Y217386D01*
X205000*
X244687Y13523D02*
X247500D01*
X246094Y12500D02*
Y14545D01*
X245000Y15682D02*
X244844D01*
X244531Y15795*
X244375Y15909*
X244219Y16136*
Y16591*
X244375Y16818*
X244531Y16932*
X244844Y17045*
X245156*
X245469Y16932*
X245937Y16705*
X245937D02*
X247500Y15568D01*
Y17159*
X244219Y19318D02*
X246406Y18182D01*
Y19886*
X244219Y19318D02*
X247500D01*
X245000Y34205D02*
X244687Y34091D01*
X244687D02*
X244375Y33864D01*
X244219Y33636*
Y33182*
X244375Y32955*
X244687Y32727*
X244687D02*
X245000Y32614D01*
X245469Y32500*
X246250*
X246719Y32614*
X247031Y32727*
X247344Y32955*
X247500Y33182*
Y33636*
X247344Y33864*
X247031Y34091*
X246719Y34205*
X246250*
Y33636D02*
Y34205D01*
X244219Y35227D02*
X247500D01*
X244219D02*
X247500Y36818D01*
X244219D02*
X247500D01*
X244219Y37841D02*
X247500D01*
X244219D02*
Y38636D01*
X244375Y38977*
X244687Y39205*
X244687D02*
X245000Y39318D01*
X245469Y39432*
X246250*
X246719Y39318*
X247031Y39205*
X247344Y38977*
X247500Y38636*
Y37841*
X244219Y112500D02*
X247500D01*
X244219D02*
Y113523D01*
X244375Y113864*
X244531Y113977*
X244844Y114091*
X245312*
X245312D02*
X245625Y113977D01*
X245781Y113864*
X245937Y113523*
X245937D02*
Y112500D01*
X244219Y115114D02*
X247500D01*
X244219D02*
X247500Y116023D01*
X244219Y116932D02*
X247500Y116023D01*
X244219Y116932D02*
X247500D01*
X244219Y117955D02*
X247500D01*
X244219D02*
Y118977D01*
X244375Y119318*
X244531Y119432*
X244844Y119545*
X245312*
X245312D02*
X245625Y119432D01*
X245781Y119318*
X245937Y118977*
X245937D02*
Y117955D01*
X244687Y121591D02*
X247500D01*
X246094Y120568D02*
Y122614D01*
X245000Y134205D02*
X244687Y134091D01*
X244687D02*
X244375Y133864D01*
X244219Y133636*
Y133182*
X244375Y132955*
X244687Y132727*
X244687D02*
X245000Y132614D01*
X245469Y132500*
X246250*
X246719Y132614*
X247031Y132727*
X247344Y132955*
X247500Y133182*
Y133636*
X247344Y133864*
X247031Y134091*
X246719Y134205*
X246250*
Y133636D02*
Y134205D01*
X244219Y135227D02*
X247500D01*
X244219D02*
X247500Y136818D01*
X244219D02*
X247500D01*
X244219Y137841D02*
X247500D01*
X244219D02*
Y138636D01*
X244375Y138977*
X244687Y139205*
X244687D02*
X245000Y139318D01*
X245469Y139432*
X246250*
X246719Y139318*
X247031Y139205*
X247344Y138977*
X247500Y138636*
Y137841*
X244219Y180000D02*
X247500D01*
X244219D02*
Y181023D01*
X244375Y181364*
X244531Y181477*
X244844Y181591*
X245156*
X245469Y181477*
X245625Y181364*
X245781Y181023*
Y180000D02*
Y181023D01*
X245937Y181364*
X245937D02*
X246094Y181477D01*
X246406Y181591*
X246875*
X247187Y181477*
X247187D02*
X247344Y181364D01*
X247500Y181023*
Y180000*
X244844Y182614D02*
X244687Y182841D01*
X244687D02*
X244219Y183182D01*
X247500*
X244219Y160000D02*
X247500D01*
X244219D02*
Y161023D01*
X244375Y161364*
X244531Y161477*
X244844Y161591*
X245156*
X245469Y161477*
X245625Y161364*
X245781Y161023*
Y160000D02*
Y161023D01*
X245937Y161364*
X245937D02*
X246094Y161477D01*
X246406Y161591*
X246875*
X247187Y161477*
X247187D02*
X247344Y161364D01*
X247500Y161023*
Y160000*
X245000Y162727D02*
X244844D01*
X244531Y162841*
X244375Y162955*
X244219Y163182*
Y163636*
X244375Y163864*
X244531Y163977*
X244844Y164091*
X245156*
X245469Y163977*
X245937Y163750*
X245937D02*
X247500Y162614D01*
Y164205*
X244219Y200909D02*
X247500Y200000D01*
X244219Y200909D02*
X247500Y201818D01*
X246406Y200341D02*
Y201477D01*
X245000Y202955D02*
X244844D01*
X244531Y203068*
X244375Y203182*
X244219Y203409*
Y203864*
X244375Y204091*
X244531Y204205*
X244844Y204318*
X245156*
X245469Y204205*
X245937Y203977*
X245937D02*
X247500Y202841D01*
Y204432*
X244219Y218409D02*
X247500Y217500D01*
X244219Y218409D02*
X247500Y219318D01*
X246406Y217841D02*
Y218977D01*
X244844Y220341D02*
X244687Y220568D01*
X244687D02*
X244219Y220909D01*
X247500*
X5781Y232500D02*
X2500D01*
X5781D02*
Y231477D01*
X5625Y231136*
X5469Y231023*
X5156Y230909*
X4688*
X4688D02*
X4375Y231023D01*
X4219Y231136*
X4063Y231477*
X4063D02*
Y232500D01*
X5781Y229886D02*
X2500Y229318D01*
X5781Y228750D02*
X2500Y229318D01*
X5781Y228750D02*
X2500Y228182D01*
X5781Y227614D02*
X2500Y228182D01*
X5781Y226591D02*
X2500D01*
X5781D02*
Y225568D01*
X5625Y225227*
X5469Y225114*
X5156Y225000*
X4844*
X4531Y225114*
X4375Y225227*
X4219Y225568*
Y226591*
Y225795D02*
X2500Y225000D01*
X1875Y223977D02*
Y221591D01*
X5781Y220227D02*
X5625Y220455D01*
X5313Y220682*
X5313D02*
X5000Y220795D01*
X4531Y220909*
X3750*
X3281Y220795*
X2969Y220682*
X2656Y220455*
X2500Y220227*
Y219773*
X2656Y219545*
X2969Y219318*
X3281Y219205*
X3750Y219091*
X4531*
X5000Y219205*
X5313Y219318*
X5313D02*
X5625Y219545D01*
X5781Y219773*
Y220227*
Y218068D02*
X2500D01*
X5781D02*
X2500Y216477D01*
X5781D02*
X2500D01*
X5781Y205000D02*
X2500D01*
X5781D02*
Y203977D01*
X5625Y203636*
X5469Y203523*
X5156Y203409*
X4844*
X4531Y203523*
X4375Y203636*
X4219Y203977*
Y205000*
Y204205D02*
X2500Y203409D01*
X5781Y202386D02*
X2500D01*
X5781Y201364D02*
X2500D01*
X5781D02*
X2500Y199773D01*
X5781D02*
X2500D01*
X5313Y197159D02*
X5625Y197386D01*
X5781Y197727*
Y198182*
X5625Y198523*
X5313Y198750*
X5313D02*
X5000D01*
X4688Y198636*
X4688D02*
X4531Y198523D01*
X4375Y198295*
X4063Y197614*
X4063D02*
X3906Y197386D01*
X3750Y197273*
X3438Y197159*
X3438D02*
X2969D01*
X2656Y197386*
X2500Y197727*
Y198182*
X2656Y198523*
X2969Y198750*
X5781Y196136D02*
X2500D01*
X5781D02*
Y194659D01*
X4219Y196136D02*
Y195227D01*
X2500Y196136D02*
Y194659D01*
X5000Y245795D02*
X5313Y245909D01*
X5313D02*
X5625Y246136D01*
X5781Y246364*
Y246818*
X5625Y247045*
X5313Y247273*
X5313D02*
X5000Y247386D01*
X4531Y247500*
X3750*
X3281Y247386*
X2969Y247273*
X2656Y247045*
X2500Y246818*
Y246364*
X2656Y246136*
X2969Y245909*
X3281Y245795*
X3750*
Y246364D02*
Y245795D01*
X5781Y244773D02*
X2500D01*
X5781D02*
X2500Y243182D01*
X5781D02*
X2500D01*
X5781Y242159D02*
X2500D01*
X5781D02*
Y241364D01*
X5625Y241023*
X5313Y240795*
X5313D02*
X5000Y240682D01*
X4531Y240568*
X3750*
X3281Y240682*
X2969Y240795*
X2656Y241023*
X2500Y241364*
Y242159*
X5000Y180795D02*
X5313Y180909D01*
X5313D02*
X5625Y181136D01*
X5781Y181364*
Y181818*
X5625Y182045*
X5313Y182273*
X5313D02*
X5000Y182386D01*
X4531Y182500*
X3750*
X3281Y182386*
X2969Y182273*
X2656Y182045*
X2500Y181818*
Y181364*
X2656Y181136*
X2969Y180909*
X3281Y180795*
X3750*
Y181364D02*
Y180795D01*
X5781Y179773D02*
X2500D01*
X5781D02*
X2500Y178182D01*
X5781D02*
X2500D01*
X5781Y177159D02*
X2500D01*
X5781D02*
Y176364D01*
X5625Y176023*
X5313Y175795*
X5313D02*
X5000Y175682D01*
X4531Y175568*
X3750*
X3281Y175682*
X2969Y175795*
X2656Y176023*
X2500Y176364*
Y177159*
X10682Y23281D02*
X10455Y23125D01*
X10227Y22813*
X10227D02*
X10114Y22500D01*
X10000Y22031*
Y21250*
X10114Y20781*
X10227Y20469*
X10455Y20156*
X10682Y20000*
X11136*
X11364Y20156*
X11591Y20469*
X11705Y20781*
X11818Y21250*
Y22031*
X11705Y22500*
X11591Y22813*
X11591D02*
X11364Y23125D01*
X11136Y23281*
X10682*
X14432Y22813D02*
X14205Y23125D01*
X13864Y23281*
X13409*
X13068Y23125*
X12841Y22813*
X12841D02*
Y22500D01*
X12955Y22188*
X12955D02*
X13068Y22031D01*
X13295Y21875*
X13977Y21563*
X13977D02*
X14205Y21406D01*
X14318Y21250*
X14432Y20938*
X14432D02*
Y20469D01*
X14205Y20156*
X13864Y20000*
X13409*
X13068Y20156*
X12841Y20469*
X15455Y23281D02*
Y20938D01*
X15455D02*
X15568Y20469D01*
X15795Y20156*
X16136Y20000*
X16364*
X16705Y20156*
X16932Y20469*
X17045Y20938*
X17045D02*
Y23281D01*
X21477D02*
Y20000D01*
X20682Y23281D02*
X22273D01*
X24659Y22188D02*
Y20000D01*
Y21719D02*
X24432Y22031D01*
X24205Y22188*
X24205D02*
X23864D01*
X23864D02*
X23636Y22031D01*
X23409Y21719*
X23295Y21250*
Y20938*
X23295D02*
X23409Y20469D01*
X23636Y20156*
X23864Y20000*
X24205*
X24432Y20156*
X24659Y20469*
X25682Y22188D02*
Y20000D01*
Y21563D02*
X26023Y22031D01*
X26250Y22188*
X26250D02*
X26591D01*
X26591D02*
X26818Y22031D01*
X26932Y21563*
X26932D02*
Y20000D01*
X29318Y22188D02*
Y19687D01*
X29318D02*
X29205Y19219D01*
X29091Y19062*
X29091D02*
X28864Y18906D01*
X28523*
X28295Y19062*
X29318Y21719D02*
X29091Y22031D01*
X28864Y22188*
X28864D02*
X28523D01*
X28523D02*
X28295Y22031D01*
X28068Y21719*
X27955Y21250*
Y20938*
X27955D02*
X28068Y20469D01*
X28295Y20156*
X28523Y20000*
X28864*
X29091Y20156*
X29318Y20469*
X30341Y22188D02*
Y20625D01*
X30455Y20156*
X30682Y20000*
X31023*
X31250Y20156*
X31591Y20625*
Y22188D02*
Y20000D01*
X33977Y22188D02*
Y20000D01*
Y21719D02*
X33750Y22031D01*
X33523Y22188*
X33523D02*
X33182D01*
X33182D02*
X32955Y22031D01*
X32727Y21719*
X32614Y21250*
Y20938*
X32614D02*
X32727Y20469D01*
X32955Y20156*
X33182Y20000*
X33523*
X33750Y20156*
X33977Y20469*
X35114Y22188D02*
X35795Y20000D01*
X36477Y22188D02*
X35795Y20000D01*
X35568Y19375*
X35341Y19062*
X35341D02*
X35114Y18906D01*
X35000*
X40114Y23281D02*
Y20000D01*
X41477*
X43864Y22188D02*
Y20000D01*
Y21719D02*
X43636Y22031D01*
X43409Y22188*
X43409D02*
X43068D01*
X43068D02*
X42841Y22031D01*
X42614Y21719*
X42500Y21250*
Y20938*
X42500D02*
X42614Y20469D01*
X42841Y20156*
X43068Y20000*
X43409*
X43636Y20156*
X43864Y20469*
X44886Y23281D02*
Y20000D01*
Y21719D02*
X45114Y22031D01*
X45341Y22188*
X45341D02*
X45682D01*
X45682D02*
X45909Y22031D01*
X46136Y21719*
X46250Y21250*
Y20938*
X46250D02*
X46136Y20469D01*
X45909Y20156*
X45682Y20000*
X45341*
X45114Y20156*
X44886Y20469*
X48523Y21719D02*
X48409Y22031D01*
X48068Y22188*
X48068D02*
X47727D01*
X47727D02*
X47386Y22031D01*
X47273Y21719*
X47386Y21406*
X47614Y21250*
X48182Y21094*
X48409Y20938*
X48409D02*
X48523Y20625D01*
Y20469*
X48409Y20156*
X48068Y20000*
X47727*
X47386Y20156*
X47273Y20469*
X11591Y30313D02*
X11364Y30625D01*
X11023Y30781*
X10568*
X10227Y30625*
X10000Y30313*
X10000D02*
Y30000D01*
X10114Y29688*
X10114D02*
X10227Y29531D01*
X10455Y29375*
X11136Y29063*
X11136D02*
X11364Y28906D01*
X11477Y28750*
X11591Y28438*
X11591D02*
Y27969D01*
X11364Y27656*
X11023Y27500*
X10568*
X10227Y27656*
X10000Y27969*
X13523Y30781D02*
X12614Y27500D01*
X13523Y30781D02*
X14432Y27500D01*
X12955Y28594D02*
X14091D01*
X15455Y30781D02*
Y27500D01*
Y30781D02*
X16477D01*
X16818Y30625*
X16932Y30469*
X17045Y30156*
Y29844*
X16932Y29531*
X16818Y29375*
X16477Y29219*
X15455*
X16250D02*
X17045Y27500D01*
X18068Y30781D02*
Y27500D01*
X19432*
X10000Y15781D02*
Y12500D01*
Y15781D02*
X10795D01*
X11136Y15625*
X11364Y15313*
X11364D02*
X11477Y15000D01*
X11591Y14531*
Y13750*
X11477Y13281*
X11364Y12969*
X11136Y12656*
X10795Y12500*
X10000*
X12614Y13750D02*
X13977D01*
Y14063*
X13977D02*
X13864Y14375D01*
X13750Y14531*
X13523Y14688*
X13523D02*
X13182D01*
X13182D02*
X12955Y14531D01*
X12727Y14219*
X12614Y13750*
Y13438*
X12614D02*
X12727Y12969D01*
X12955Y12656*
X13182Y12500*
X13523*
X13750Y12656*
X13977Y12969*
X16364Y14219D02*
X16136Y14531D01*
X15909Y14688*
X15909D02*
X15568D01*
X15568D02*
X15341Y14531D01*
X15114Y14219*
X15000Y13750*
Y13438*
X15000D02*
X15114Y12969D01*
X15341Y12656*
X15568Y12500*
X15909*
X16136Y12656*
X16364Y12969*
X17386Y15781D02*
Y12500D01*
Y14063D02*
X17727Y14531D01*
X17955Y14688*
X17955D02*
X18295D01*
X18295D02*
X18523Y14531D01*
X18636Y14063*
X18636D02*
Y12500D01*
X20227Y14688D02*
X20000Y14531D01*
X19773Y14219*
X19659Y13750*
Y13438*
X19659D02*
X19773Y12969D01*
X20000Y12656*
X20227Y12500*
X20568*
X20795Y12656*
X21023Y12969*
X21136Y13438*
X21136D02*
Y13750D01*
X21023Y14219*
X20795Y14531*
X20568Y14688*
X20568D02*
X20227D01*
X22159D02*
Y12500D01*
Y13750D02*
X22273Y14219D01*
X22500Y14531*
X22727Y14688*
X22727D02*
X23068D01*
X24091Y15781D02*
X24205Y15625D01*
X24318Y15781*
X24205Y15938*
X24205D02*
X24091Y15781D01*
X24205Y14688D02*
Y12500D01*
X25909Y14688D02*
X25682Y14531D01*
X25455Y14219*
X25341Y13750*
Y13438*
X25341D02*
X25455Y12969D01*
X25682Y12656*
X25909Y12500*
X26250*
X26477Y12656*
X26705Y12969*
X26818Y13438*
X26818D02*
Y13750D01*
X26705Y14219*
X26477Y14531*
X26250Y14688*
X26250D02*
X25909D01*
X27841D02*
Y12500D01*
Y14063D02*
X28182Y14531D01*
X28409Y14688*
X28409D02*
X28750D01*
X28750D02*
X28977Y14531D01*
X29091Y14063*
X29091D02*
Y12500D01*
X31477Y14688D02*
Y12500D01*
Y14219D02*
X31250Y14531D01*
X31023Y14688*
X31023D02*
X30682D01*
X30682D02*
X30455Y14531D01*
X30227Y14219*
X30114Y13750*
Y13438*
X30114D02*
X30227Y12969D01*
X30455Y12656*
X30682Y12500*
X31023*
X31250Y12656*
X31477Y12969*
X32841Y15781D02*
Y13125D01*
X32955Y12656*
X33182Y12500*
X33409*
X32500Y14688D02*
X33295D01*
X35000D02*
X34773Y14531D01*
X34545Y14219*
X34432Y13750*
Y13438*
X34432D02*
X34545Y12969D01*
X34773Y12656*
X35000Y12500*
X35341*
X35568Y12656*
X35795Y12969*
X35909Y13438*
X35909D02*
Y13750D01*
X35795Y14219*
X35568Y14531*
X35341Y14688*
X35341D02*
X35000D01*
X36932D02*
Y12500D01*
Y13750D02*
X37045Y14219D01*
X37273Y14531*
X37500Y14688*
X37500D02*
X37841D01*
X43182Y15000D02*
X43068Y15313D01*
X43068D02*
X42841Y15625D01*
X42614Y15781*
X42159*
X41932Y15625*
X41705Y15313*
X41705D02*
X41591Y15000D01*
X41477Y14531*
Y13750*
X41591Y13281*
X41705Y12969*
X41932Y12656*
X42159Y12500*
X42614*
X42841Y12656*
X43068Y12969*
X43182Y13281*
X44773Y14688D02*
X44545Y14531D01*
X44318Y14219*
X44205Y13750*
Y13438*
X44205D02*
X44318Y12969D01*
X44545Y12656*
X44773Y12500*
X45114*
X45341Y12656*
X45568Y12969*
X45682Y13438*
X45682D02*
Y13750D01*
X45568Y14219*
X45341Y14531*
X45114Y14688*
X45114D02*
X44773D01*
X46705D02*
Y12500D01*
Y14063D02*
X47045Y14531D01*
X47273Y14688*
X47273D02*
X47614D01*
X47614D02*
X47841Y14531D01*
X47955Y14063*
X47955D02*
Y12500D01*
X49318Y15781D02*
Y13125D01*
X49432Y12656*
X49659Y12500*
X49886*
X48977Y14688D02*
X49773D01*
X50909D02*
Y12500D01*
Y13750D02*
X51023Y14219D01*
X51250Y14531*
X51477Y14688*
X51477D02*
X51818D01*
X53409D02*
X53182Y14531D01*
X52955Y14219*
X52841Y13750*
Y13438*
X52841D02*
X52955Y12969D01*
X53182Y12656*
X53409Y12500*
X53750*
X53977Y12656*
X54205Y12969*
X54318Y13438*
X54318D02*
Y13750D01*
X54205Y14219*
X53977Y14531*
X53750Y14688*
X53750D02*
X53409D01*
X55341Y15781D02*
Y12500D01*
X58977Y15781D02*
Y12500D01*
Y15781D02*
X60000D01*
X60341Y15625*
X60455Y15469*
X60568Y15156*
Y14844*
X60455Y14531*
X60341Y14375*
X60000Y14219*
X58977D02*
X60000D01*
X60341Y14063*
X60341D02*
X60455Y13906D01*
X60568Y13594*
Y13125*
X60455Y12813*
X60455D02*
X60341Y12656D01*
X60000Y12500*
X58977*
X62159Y14688D02*
X61932Y14531D01*
X61705Y14219*
X61591Y13750*
Y13438*
X61591D02*
X61705Y12969D01*
X61932Y12656*
X62159Y12500*
X62500*
X62727Y12656*
X62955Y12969*
X63068Y13438*
X63068D02*
Y13750D01*
X62955Y14219*
X62727Y14531*
X62500Y14688*
X62500D02*
X62159D01*
X65455D02*
Y12500D01*
Y14219D02*
X65227Y14531D01*
X65000Y14688*
X65000D02*
X64659D01*
X64659D02*
X64432Y14531D01*
X64205Y14219*
X64091Y13750*
Y13438*
X64091D02*
X64205Y12969D01*
X64432Y12656*
X64659Y12500*
X65000*
X65227Y12656*
X65455Y12969*
X66477Y14688D02*
Y12500D01*
Y13750D02*
X66591Y14219D01*
X66818Y14531*
X67045Y14688*
X67045D02*
X67386D01*
X69773Y15781D02*
Y12500D01*
Y14219D02*
X69545Y14531D01*
X69318Y14688*
X69318D02*
X68977D01*
X68977D02*
X68750Y14531D01*
X68523Y14219*
X68409Y13750*
Y13438*
X68409D02*
X68523Y12969D01*
X68750Y12656*
X68977Y12500*
X69318*
X69545Y12656*
X69773Y12969*
X73409Y15781D02*
Y12500D01*
Y15781D02*
X74432D01*
X74773Y15625*
X74886Y15469*
X75000Y15156*
Y14844*
X74886Y14531*
X74773Y14375*
X74432Y14219*
X73409*
X74205D02*
X75000Y12500D01*
X76023Y13750D02*
X77386D01*
Y14063*
X77386D02*
X77273Y14375D01*
X77159Y14531*
X76932Y14688*
X76932D02*
X76591D01*
X76591D02*
X76364Y14531D01*
X76136Y14219*
X76023Y13750*
Y13438*
X76023D02*
X76136Y12969D01*
X76364Y12656*
X76591Y12500*
X76932*
X77159Y12656*
X77386Y12969*
X78409Y14688D02*
X79091Y12500D01*
X79773Y14688D02*
X79091Y12500D01*
X83409Y15156D02*
X83636Y15313D01*
X83636D02*
X83977Y15781D01*
Y12500*
X85114Y12813D02*
X85000Y12656D01*
X85114Y12500*
X85227Y12656*
X85114Y12813*
X86250Y15156D02*
X86477Y15313D01*
X86477D02*
X86818Y15781D01*
Y12500*
X11705Y7500D02*
X11591Y7813D01*
X11591D02*
X11364Y8125D01*
X11136Y8281*
X10682*
X10455Y8125*
X10227Y7813*
X10227D02*
X10114Y7500D01*
X10000Y7031*
Y6250*
X10114Y5781*
X10227Y5469*
X10455Y5156*
X10682Y5000*
X11136*
X11364Y5156*
X11591Y5469*
X11705Y5781*
X13295Y7188D02*
X13068Y7031D01*
X12841Y6719*
X12727Y6250*
Y5938*
X12727D02*
X12841Y5469D01*
X13068Y5156*
X13295Y5000*
X13636*
X13864Y5156*
X14091Y5469*
X14205Y5938*
X14205D02*
Y6250D01*
X14091Y6719*
X13864Y7031*
X13636Y7188*
X13636D02*
X13295D01*
X15227D02*
Y5000D01*
Y6250D02*
X15341Y6719D01*
X15568Y7031*
X15795Y7188*
X15795D02*
X16136D01*
X17159D02*
X17614Y5000D01*
X18068Y7188D02*
X17614Y5000D01*
X18068Y7188D02*
X18523Y5000D01*
X18977Y7188D02*
X18523Y5000D01*
X20000Y8281D02*
X20114Y8125D01*
X20227Y8281*
X20114Y8438*
X20114D02*
X20000Y8281D01*
X20114Y7188D02*
Y5000D01*
X21250Y7188D02*
Y5000D01*
Y6563D02*
X21591Y7031D01*
X21818Y7188*
X21818D02*
X22159D01*
X22159D02*
X22386Y7031D01*
X22500Y6563*
X22500D02*
Y5000D01*
X26136Y8281D02*
Y5000D01*
Y8281D02*
X27159D01*
X27500Y8125*
X27614Y7969*
X27727Y7656*
Y7188*
X27727D02*
X27614Y6875D01*
X27500Y6719*
X27159Y6563*
X27159D02*
X26136D01*
X28750Y6250D02*
X30114D01*
Y6563*
X30114D02*
X30000Y6875D01*
X29886Y7031*
X29659Y7188*
X29659D02*
X29318D01*
X29318D02*
X29091Y7031D01*
X28864Y6719*
X28750Y6250*
Y5938*
X28750D02*
X28864Y5469D01*
X29091Y5156*
X29318Y5000*
X29659*
X29886Y5156*
X30114Y5469*
X31136Y7188D02*
Y5000D01*
Y6250D02*
X31250Y6719D01*
X31477Y7031*
X31705Y7188*
X31705D02*
X32045D01*
X33068D02*
Y5000D01*
Y6250D02*
X33182Y6719D01*
X33409Y7031*
X33636Y7188*
X33636D02*
X33977D01*
X35000Y6250D02*
X36364D01*
Y6563*
X36364D02*
X36250Y6875D01*
X36136Y7031*
X35909Y7188*
X35909D02*
X35568D01*
X35568D02*
X35341Y7031D01*
X35114Y6719*
X35000Y6250*
Y5938*
X35000D02*
X35114Y5469D01*
X35341Y5156*
X35568Y5000*
X35909*
X36136Y5156*
X36364Y5469*
X37386Y7188D02*
Y5000D01*
Y6563D02*
X37727Y7031D01*
X37955Y7188*
X37955D02*
X38295D01*
X38295D02*
X38523Y7031D01*
X38636Y6563*
X38636D02*
Y5000D01*
X42273Y6406D02*
X44318D01*
X49432Y8281D02*
X48295D01*
X48182Y6875*
X48295Y7031*
X48636Y7188*
X48636D02*
X48977D01*
X48977D02*
X49318Y7031D01*
X49545Y6719*
X49659Y6250*
X49545Y5938*
X49545D02*
X49432Y5469D01*
X49205Y5156*
X48864Y5000*
X48523*
X48182Y5156*
X48068Y5313*
X48068D02*
X47955Y5625D01*
X52727Y8906D02*
X50682Y3906D01*
X53750Y7656D02*
X53977Y7813D01*
X53977D02*
X54318Y8281D01*
Y5000*
X56023Y8281D02*
X55682Y8125D01*
X55455Y7656*
X55341Y6875*
Y6406*
X55455Y5625*
X55682Y5156*
X56023Y5000*
X56250*
X56591Y5156*
X56818Y5625*
X56932Y6406*
Y6875*
X56818Y7656*
X56591Y8125*
X56250Y8281*
X56023*
X60000Y8906D02*
X57955Y3906D01*
X61136Y7500D02*
Y7656D01*
X61250Y7969*
X61364Y8125*
X61591Y8281*
X62045*
X62273Y8125*
X62386Y7969*
X62500Y7656*
Y7344*
X62386Y7031*
X62159Y6563*
X62159D02*
X61023Y5000D01*
X62614*
X64318Y8281D02*
X63977Y8125D01*
X63750Y7656*
X63636Y6875*
Y6406*
X63750Y5625*
X63977Y5156*
X64318Y5000*
X64545*
X64886Y5156*
X65114Y5625*
X65227Y6406*
Y6875*
X65114Y7656*
X64886Y8125*
X64545Y8281*
X64318*
X66250Y7656D02*
X66477Y7813D01*
X66477D02*
X66818Y8281D01*
Y5000*
X68977Y8281D02*
X67841Y6094D01*
X69545*
X68977Y8281D02*
Y5000D01*
G54D40*
X137598Y242598D02*
X162402D01*
Y267402*
X137598*
Y267106*
X139764Y266024*
X137598Y264941*
Y242598*
X135945Y105079D02*
X143868D01*
Y102569*
X146132*
Y105079*
X154055*
Y64921*
X135945*
Y105079*
G54D167*
X130400Y112500D02*
X126500Y116400D01*
Y112500D02*
X168500D01*
Y132500*
X126500*
Y112500*
G54D179*
X190610Y194094D02*
X196639D01*
Y191708*
X198361*
Y194094*
X204390*
Y155906*
X190610*
Y194094*
X0Y0D02*
M02*
