%
T1C.035F197S550
X004750Y001750
X013500Y001750
X018250Y004281
X019250Y004281
X020250Y004281
X021250Y004281
X022250Y001750
X022250Y004281
X023250Y004281
X024250Y004281
X025250Y004281
X028000Y004281
X029000Y004281
X030000Y004281
X031000Y001750
X031000Y004281
X032000Y004281
X033000Y004281
X033750Y001750
X034000Y004281
X035000Y004281
X037657Y004331
X035000Y009219
X034000Y009219
X033000Y009219
X032000Y009219
X031000Y009219
X030000Y009219
X029000Y009219
X028000Y009219
X025250Y009219
X024250Y009219
X023250Y009219
X022250Y009219
X021250Y009219
X020250Y009219
X019250Y009219
X018250Y009219
X001722Y006375
X001500Y011531
X002500Y011531
X003500Y011531
X004500Y011531
X005500Y011531
X006500Y011531
X007500Y011531
X008500Y011531
X011250Y011531
X012250Y011531
X013250Y011531
X014250Y011531
X015250Y011531
X016250Y011531
X017250Y011531
X018250Y011531
X037657Y012598
X037657Y016929
X018250Y016469
X017250Y016469
X016250Y016469
X015250Y016469
X014250Y016469
X013250Y016469
X012250Y016469
X011250Y016469
X008500Y016469
X007500Y016469
X006500Y016469
X005500Y016469
X004500Y016469
X003500Y016469
X002500Y016469
X001500Y016469
X008858Y018504
X008858Y019504
X009858Y018504
X009858Y019504
X010858Y018504
X010858Y019504
X011858Y018504
X011858Y019504
X012858Y018504
X012858Y019504
X013858Y018504
X013858Y019504
X014858Y018504
X014858Y019504
X015858Y018504
X015858Y019504
X016858Y018504
X016858Y019504
X017858Y018504
X017858Y019504
X018858Y018504
X018858Y019504
X019858Y018504
X019858Y019504
X020858Y018504
X020858Y019504
X021858Y018504
X021858Y019504
X022858Y018504
X022858Y019504
X023858Y018504
X023858Y019504
X024858Y018504
X024858Y019504
X025858Y018504
X025858Y019504
X026858Y018504
X026858Y019504
X027858Y018504
X027858Y019504
X028858Y018504
X028858Y019504
X029858Y018504
X029858Y019504
X030858Y018504
X030858Y019504
X037657Y021260
X037657Y025591
X015500Y027000
X015500Y027984
X014713Y027984
X014713Y027000
X008858Y037402
X009858Y037402
X010858Y037402
X011858Y037402
X012858Y037402
X013858Y037402
X014858Y037402
X015858Y037402
X016858Y037402
X017858Y037402
X018858Y037402
X019858Y037402
X020858Y037402
X021858Y037402
X022858Y037402
X023858Y037402
X024858Y037402
X025858Y037402
X026858Y037402
X027858Y037402
X028858Y037402
X029858Y037402
X030858Y037402
X030858Y038402
X029858Y038402
X028858Y038402
X027858Y038402
X026858Y038402
X025858Y038402
X024858Y038402
X023858Y038402
X022858Y038402
X021858Y038402
X020858Y038402
X019858Y038402
X018858Y038402
X017858Y038402
X016858Y038402
X015858Y038402
X014858Y038402
X013858Y038402
X012858Y038402
X011858Y038402
X010858Y038402
X009858Y038402
X008858Y038402
T2C.037F197S550
X004031Y004787
X018142Y003276
X020661Y003528
X021921Y003276
X022677Y003276
X023937Y003528
X024945Y000756
X024945Y003024
X025449Y005543
X025701Y003528
X026457Y005291
X026961Y004787
X027465Y003276
X028220Y003024
X030236Y003276
X031244Y003528
X032756Y003276
X033764Y002520
X034520Y002520
X035276Y005039
X035780Y001008
X036031Y003024
X036283Y004031
X037039Y004787
X038551Y005795
X035780Y005795
X035780Y007559
X035276Y008063
X034772Y006803
X031496Y006299
X030740Y006551
X029984Y007307
X029480Y006803
X028220Y006551
X027717Y007055
X026709Y006047
X026205Y007559
X025449Y008063
X024945Y006299
X021669Y006803
X020661Y006551
X017890Y007055
X017386Y006299
X017134Y007559
X015622Y007055
X011339Y007055
X006551Y008819
X007559Y010331
X008063Y009575
X008567Y010079
X009323Y009575
X011843Y010331
X012598Y009827
X015874Y008315
X017134Y008315
X021417Y010583
X022425Y008567
X022677Y010331
X023433Y010079
X024189Y008567
X024441Y010079
X025953Y010331
X026205Y008567
X027465Y010079
X028220Y010079
X028976Y010079
X030488Y010583
X032000Y008567
X032252Y010079
X032756Y008567
X033008Y010079
X034016Y008567
X034520Y010583
X034772Y008567
X038299Y008819
X038299Y010835
X036283Y010835
X035780Y011843
X034772Y012850
X029984Y012346
X029732Y010835
X028472Y013102
X024441Y013102
X019906Y012850
X019150Y011843
X016126Y010835
X014110Y010835
X012850Y010835
X008819Y012850
X007055Y010835
X002268Y010835
X001008Y013606
X001512Y015622
X002268Y014110
X003276Y014362
X003528Y013606
X004031Y014362
X005039Y014362
X008063Y013606
X008819Y014866
X009071Y015622
X011087Y013606
X011591Y014362
X013354Y014110
X014362Y014362
X014866Y013858
X017638Y013606
X018646Y015622
X019150Y013606
X019402Y014866
X020913Y014362
X022173Y015370
X026709Y015622
X027465Y014866
X032252Y015118
X033008Y015370
X034772Y014110
X035024Y015118
X036787Y018142
X035024Y017134
X034268Y016126
X033260Y016630
X032252Y017386
X032000Y016630
X030992Y016630
X029984Y016630
X028976Y016630
X027717Y017134
X026961Y017386
X025953Y017638
X024945Y017386
X024441Y016378
X023433Y017134
X020409Y017134
X019402Y017638
X018898Y016378
X017134Y017134
X015622Y017134
X014866Y017386
X011339Y017134
X008063Y017890
X007307Y017890
X006551Y017134
X004535Y017638
X006551Y020661
X008819Y020157
X010079Y020409
X014866Y020409
X020409Y020157
X021165Y020157
X021921Y020409
X022677Y020157
X024441Y020157
X025449Y020157
X027465Y020661
X028976Y020157
X029984Y020661
X030992Y020409
X033260Y019402
X034016Y018646
X034268Y019654
X036283Y019402
X036031Y022425
X034520Y022425
X033260Y021921
X031748Y021417
X030740Y021669
X030740Y022425
X026457Y020913
X024189Y023181
X023685Y020913
X023181Y022173
X022425Y022425
X021165Y020913
X020661Y022929
X015874Y022173
X015874Y021417
X013858Y021417
X013858Y022173
X013354Y022929
X012346Y021417
X010331Y021669
X009827Y022425
X008567Y022425
X004787Y022929
X003528Y022929
X002268Y021921
X016630Y023685
X016882Y024441
X017386Y023685
X017638Y024693
X018394Y024189
X020913Y023937
X021417Y023433
X022929Y024189
X023685Y025701
X024441Y024189
X025197Y024693
X025953Y024189
X026709Y024693
X028220Y024189
X028472Y025197
X028976Y024441
X029480Y025449
X029984Y023433
X030488Y024441
X030740Y025197
X031496Y024189
X031748Y025701
X032252Y024693
X033260Y023433
X034016Y024189
X034520Y023685
X036535Y024945
X036535Y027465
X035780Y027969
X034016Y026709
X033008Y027465
X032000Y027465
X030992Y027717
X029480Y027717
X028976Y025953
X028724Y027969
X027717Y026709
X026961Y026961
X026961Y026205
X025701Y026961
X025449Y025953
X024945Y027465
X019402Y026961
X017386Y027969
X016630Y026961
X016126Y027465
X011339Y030236
X017638Y029984
X024693Y028472
X025449Y030488
X026709Y028724
X026961Y029480
X028472Y029228
X029228Y028472
X029228Y029984
X029984Y029984
X030236Y029228
X031496Y028724
X031748Y030740
X031748Y029732
X032504Y028724
X032504Y029480
X032504Y030236
X034520Y030488
X034772Y029480
X035276Y031748
X034520Y031244
X034268Y032504
X032756Y032000
X032000Y032000
X030992Y031244
X030740Y032000
X029984Y032000
X029984Y030992
X029228Y032000
X028976Y030992
X028472Y032000
X027213Y032504
X025197Y031244
X024693Y033008
X024441Y031748
X022929Y032504
X022173Y032756
X017386Y030992
X015118Y031748
X014110Y033008
X010331Y036283
X016126Y034016
X017386Y036283
X019402Y033512
X025449Y034016
X027717Y033512
X027969Y035024
X028724Y034016
X029480Y034016
X030740Y033512
X031496Y034016
X032252Y035024
X033764Y035276
X034268Y033260
X034268Y038551
T3C.03937F197S550
X009252Y004870
X009252Y005870
X009252Y006870
X021921Y013606
X021921Y014606
X022921Y013606
X022921Y014606
X023921Y013606
X023921Y014606
X024921Y013606
X024921Y014606
X025921Y013606
X025921Y014606
X031748Y013606
X031748Y014606
X032748Y014606
X032748Y013606
X033748Y014606
X033748Y013606
T4C.04F139S550
X005750Y001750
X006750Y001750
X007750Y001750
X008750Y001750
X009750Y001750
X010750Y001750
X011750Y001750
X014500Y001750
X015500Y001750
X016500Y001750
X017500Y001750
X018500Y001750
X019500Y001750
X020500Y001750
X023250Y001750
X024250Y001750
X025250Y001750
X026250Y001750
X027250Y001750
X028250Y001750
X029250Y001750
X032000Y001750
X034750Y001750
X037657Y005331
X037657Y006331
X037657Y007331
X037657Y008331
X037657Y009331
X037657Y010331
X001722Y005375
X037657Y011331
X037657Y013598
X037657Y014598
X037657Y015598
X037657Y017929
X037657Y019929
X037657Y018929
X037657Y022260
X037657Y023260
X037657Y024260
X037657Y026591
X037657Y027591
X037657Y028591
T5C.09843F066S550
X013650Y025122
X013650Y029862
T6C.13189F035S794
X001969Y001969
X037402Y001969
X037402Y037402
X001969Y037402
M30
