*
*
G04 PADS 9.5 Build Number: 522968 generated Gerber (RS-274-X) file*
G04 PC Version=2.1*
*
%IN "DriverBoardRev2.pcb"*%
*
%MOIN*%
*
%FSLAX35Y35*%
*
*
*
*
G04 PC Standard Apertures*
*
*
G04 Thermal Relief Aperture macro.*
%AMTER*
1,1,$1,0,0*
1,0,$1-$2,0,0*
21,0,$3,$4,0,0,45*
21,0,$3,$4,0,0,135*
%
*
*
G04 Annular Aperture macro.*
%AMANN*
1,1,$1,0,0*
1,0,$2,0,0*
%
*
*
G04 Odd Aperture macro.*
%AMODD*
1,1,$1,0,0*
1,0,$1-0.005,0,0*
%
*
*
G04 PC Custom Aperture Macros*
*
*
*
*
*
*
G04 PC Aperture Table*
*
%ADD010C,0.001*%
%ADD042R,0.048X0.04*%
%ADD048R,0.04X0.048*%
%ADD051C,0.07*%
%ADD053R,0.07X0.07*%
%ADD163R,0.06906X0.03165*%
%ADD164R,0.03165X0.06906*%
%ADD201C,0.0789*%
%ADD202C,0.078*%
%ADD203R,0.21276X0.13205*%
%ADD204C,0.28559*%
%ADD207R,0.02575X0.07102*%
%ADD210R,0.06709X0.09465*%
%ADD211R,0.06906X0.06906*%
%ADD212C,0.06906*%
%ADD213R,0.0415X0.02969*%
*
*
*
*
G04 PC Circuitry*
G04 Layer Name DriverBoardRev2.pcb - circuitry*
%LPD*%
*
*
G04 PC Custom Flashes*
G04 Layer Name DriverBoardRev2.pcb - flashes*
%LPD*%
*
*
G04 PC Circuitry*
G04 Layer Name DriverBoardRev2.pcb - circuitry*
%LPD*%
*
G54D10*
G54D42*
G01X317926Y329727D03*
X311726D03*
X305426Y253266D03*
X299226D03*
X292926Y329727D03*
X286726D03*
X284998Y229004D03*
X278798D03*
X254761D03*
X248561D03*
X224525D03*
X218325D03*
X191769D03*
X185569D03*
X140156Y218846D03*
X146356D03*
X140156Y208846D03*
X146356D03*
X81494Y357094D03*
X87694D03*
X81494Y202094D03*
X87694D03*
G54D48*
X349594Y65194D03*
Y58994D03*
X340451Y276366D03*
Y270166D03*
X299594Y77694D03*
Y71494D03*
Y46494D03*
Y52694D03*
X289594Y71494D03*
Y77694D03*
Y52694D03*
Y46494D03*
X279594Y71494D03*
Y77694D03*
Y52694D03*
Y46494D03*
X269594Y71494D03*
Y77694D03*
Y46494D03*
Y52694D03*
X264201Y307616D03*
Y301416D03*
Y275741D03*
Y269541D03*
X252094Y65194D03*
Y58994D03*
X202094Y77694D03*
Y71494D03*
Y52694D03*
Y46494D03*
X192094Y77694D03*
Y71494D03*
Y52694D03*
Y46494D03*
X182094Y77694D03*
Y71494D03*
Y52694D03*
Y46494D03*
X179594Y137694D03*
Y131494D03*
X172094Y71494D03*
Y77694D03*
Y46494D03*
Y52694D03*
X132094Y150194D03*
Y143994D03*
Y125194D03*
Y118994D03*
X122094Y150194D03*
Y143994D03*
Y125194D03*
Y118994D03*
X112094Y150194D03*
Y143994D03*
Y118994D03*
Y125194D03*
X102094Y143994D03*
Y150194D03*
Y118994D03*
Y125194D03*
X84594Y137694D03*
Y131494D03*
X44594Y210194D03*
Y203994D03*
X34594Y150194D03*
Y143994D03*
Y125194D03*
Y118994D03*
X24594Y150194D03*
Y143994D03*
Y118994D03*
Y125194D03*
X14594Y150194D03*
Y143994D03*
Y118994D03*
Y125194D03*
X4594Y150194D03*
Y143994D03*
Y118994D03*
Y125194D03*
G54D51*
X149594Y264594D03*
Y274437D03*
X141720D03*
Y264594D03*
X131091Y293217D03*
Y245815D03*
X83177Y368610D03*
Y378610D03*
X93177Y368610D03*
Y378610D03*
X103177Y368610D03*
Y378610D03*
X113177Y368610D03*
Y378610D03*
X123177Y368610D03*
Y378610D03*
X133177Y368610D03*
Y378610D03*
X143177Y368610D03*
Y378610D03*
X153177Y368610D03*
Y378610D03*
X163177Y368610D03*
Y378610D03*
X173177Y368610D03*
Y378610D03*
X183177Y368610D03*
Y378610D03*
X193177Y368610D03*
Y378610D03*
X203177Y368610D03*
Y378610D03*
X213177Y368610D03*
Y378610D03*
X223177Y368610D03*
Y378610D03*
X233177Y368610D03*
Y378610D03*
X243177Y368610D03*
Y378610D03*
X253177Y368610D03*
Y378610D03*
X263177Y368610D03*
Y378610D03*
X273177Y368610D03*
Y378610D03*
X283177Y368610D03*
Y378610D03*
X293177Y368610D03*
Y378610D03*
X303177Y368610D03*
Y378610D03*
X83177Y179634D03*
Y189634D03*
X93177Y179634D03*
Y189634D03*
X103177Y179634D03*
Y189634D03*
X113177Y179634D03*
Y189634D03*
X123177Y179634D03*
Y189634D03*
X133177Y179634D03*
Y189634D03*
X143177Y179634D03*
Y189634D03*
X153177Y179634D03*
Y189634D03*
X163177Y179634D03*
Y189634D03*
X173177Y179634D03*
Y189634D03*
X183177Y179634D03*
Y189634D03*
X193177Y179634D03*
Y189634D03*
X203177Y179634D03*
Y189634D03*
X213177Y179634D03*
Y189634D03*
X223177Y179634D03*
Y189634D03*
X233177Y179634D03*
Y189634D03*
X243177Y179634D03*
Y189634D03*
X253177Y179634D03*
Y189634D03*
X263177Y179634D03*
Y189634D03*
X273177Y179634D03*
Y189634D03*
X283177Y179634D03*
Y189634D03*
X293177Y179634D03*
Y189634D03*
X303177Y179634D03*
Y189634D03*
G54D53*
X274594Y37409D03*
X284594D03*
X294594D03*
X304594D03*
X314594D03*
X324594D03*
X334594D03*
X344594D03*
Y86780D03*
X334594D03*
X324594D03*
X314594D03*
X304594D03*
X294594D03*
X284594D03*
X274594D03*
X177094Y37409D03*
X187094D03*
X197094D03*
X207094D03*
X217094D03*
X227094D03*
X237094D03*
X247094D03*
Y86780D03*
X237094D03*
X227094D03*
X217094D03*
X207094D03*
X197094D03*
X187094D03*
X177094D03*
X107094Y109909D03*
X117094D03*
X127094D03*
X137094D03*
X147094D03*
X157094D03*
X167094D03*
X177094D03*
Y159280D03*
X167094D03*
X157094D03*
X147094D03*
X137094D03*
X127094D03*
X117094D03*
X107094D03*
X9594Y109909D03*
X19594D03*
X29594D03*
X39594D03*
X49594D03*
X59594D03*
X69594D03*
X79594D03*
Y159280D03*
X69594D03*
X59594D03*
X49594D03*
X39594D03*
X29594D03*
X19594D03*
X9594D03*
G54D163*
X332862Y315259D03*
Y312109D03*
Y308960D03*
Y305810D03*
Y302660D03*
Y299511D03*
Y296361D03*
Y293212D03*
Y290062D03*
Y286912D03*
Y283763D03*
Y280613D03*
Y277464D03*
Y274314D03*
Y271164D03*
Y268015D03*
X271839D03*
Y271164D03*
Y274314D03*
Y277464D03*
Y280613D03*
Y283763D03*
Y286912D03*
Y290062D03*
Y293212D03*
Y296361D03*
Y299511D03*
Y302660D03*
Y305810D03*
Y308960D03*
Y312109D03*
Y315259D03*
G54D164*
X325972Y261125D03*
X322823D03*
X319673D03*
X316524D03*
X313374D03*
X310224D03*
X307075D03*
X303925D03*
X300776D03*
X297626D03*
X294476D03*
X291327D03*
X288177D03*
X285028D03*
X281878D03*
X278728D03*
Y322149D03*
X281878D03*
X285028D03*
X288177D03*
X291327D03*
X294476D03*
X297626D03*
X300776D03*
X303925D03*
X307075D03*
X310224D03*
X313374D03*
X316524D03*
X319673D03*
X322823D03*
X325972D03*
G54D201*
X87114Y43295D03*
Y53295D03*
Y63295D03*
G54D202*
X371169Y250500D03*
Y260500D03*
Y270500D03*
Y280500D03*
Y207193D03*
Y217193D03*
Y227193D03*
Y237193D03*
Y163886D03*
Y173886D03*
Y183886D03*
Y193886D03*
Y120579D03*
Y130579D03*
Y140579D03*
Y150579D03*
Y37902D03*
Y47902D03*
Y57902D03*
Y67902D03*
Y77902D03*
Y87902D03*
Y97902D03*
Y107902D03*
X332094Y12094D03*
X342094D03*
X304594D03*
X314594D03*
X217094D03*
X227094D03*
X237094D03*
X247094D03*
X257094D03*
X267094D03*
X277094D03*
X287094D03*
X129594D03*
X139594D03*
X149594D03*
X159594D03*
X169594D03*
X179594D03*
X189594D03*
X199594D03*
X42094D03*
X52094D03*
X62094D03*
X72094D03*
X82094D03*
X92094D03*
X102094D03*
X112094D03*
X11819Y58344D03*
Y48344D03*
G54D203*
X324594Y62094D03*
X227094D03*
X157094Y134594D03*
X59594D03*
G54D204*
X368610Y368610D03*
Y14280D03*
X14280Y368610D03*
Y14280D03*
G54D207*
X341228Y50776D03*
X338669D03*
X336110D03*
X333551D03*
X330992D03*
X328433D03*
X325874D03*
X323315D03*
X320756D03*
X318197D03*
X315638D03*
X313079D03*
X310520D03*
X307961D03*
Y73413D03*
X310520D03*
X313079D03*
X315638D03*
X318197D03*
X320756D03*
X323315D03*
X325874D03*
X328433D03*
X330992D03*
X333551D03*
X336110D03*
X338669D03*
X341228D03*
X243728Y50776D03*
X241169D03*
X238610D03*
X236051D03*
X233492D03*
X230933D03*
X228374D03*
X225815D03*
X223256D03*
X220697D03*
X218138D03*
X215579D03*
X213020D03*
X210461D03*
Y73413D03*
X213020D03*
X215579D03*
X218138D03*
X220697D03*
X223256D03*
X225815D03*
X228374D03*
X230933D03*
X233492D03*
X236051D03*
X238610D03*
X241169D03*
X243728D03*
X173728Y123276D03*
X171169D03*
X168610D03*
X166051D03*
X163492D03*
X160933D03*
X158374D03*
X155815D03*
X153256D03*
X150697D03*
X148138D03*
X145579D03*
X143020D03*
X140461D03*
Y145913D03*
X143020D03*
X145579D03*
X148138D03*
X150697D03*
X153256D03*
X155815D03*
X158374D03*
X160933D03*
X163492D03*
X166051D03*
X168610D03*
X171169D03*
X173728D03*
X76228Y123276D03*
X73669D03*
X71110D03*
X68551D03*
X65992D03*
X63433D03*
X60874D03*
X58315D03*
X55756D03*
X53197D03*
X50638D03*
X48079D03*
X45520D03*
X42961D03*
Y145913D03*
X45520D03*
X48079D03*
X50638D03*
X53197D03*
X55756D03*
X58315D03*
X60874D03*
X63433D03*
X65992D03*
X68551D03*
X71110D03*
X73669D03*
X76228D03*
G54D210*
X309240Y349137D03*
X295461D03*
G54D211*
X312075Y130657D03*
X213807D03*
G54D212*
X312075Y140657D03*
X322075Y130657D03*
Y140657D03*
X332075Y130657D03*
Y140657D03*
X213807D03*
X223807Y130657D03*
Y140657D03*
X233807Y130657D03*
Y140657D03*
X243807Y130657D03*
Y140657D03*
X253807Y130657D03*
Y140657D03*
G54D213*
X288551Y209870D03*
Y213020D03*
Y216169D03*
Y219319D03*
X295638D03*
Y216169D03*
Y213020D03*
Y209870D03*
X261051D03*
Y213020D03*
Y216169D03*
Y219319D03*
X268138D03*
Y216169D03*
Y213020D03*
Y209870D03*
X233551D03*
Y213020D03*
Y216169D03*
Y219319D03*
X240638D03*
Y216169D03*
Y213020D03*
Y209870D03*
X206051D03*
Y213020D03*
Y216169D03*
Y219319D03*
X213138D03*
Y216169D03*
Y213020D03*
Y209870D03*
X181051D03*
Y213020D03*
Y216169D03*
Y219319D03*
X188138D03*
Y216169D03*
Y213020D03*
Y209870D03*
X0Y0D02*
M02*
