*
*
G04 PADS 9.5 Build Number: 522968 generated Gerber (RS-274-X) file*
G04 PC Version=2.1*
*
%IN "DriverBoardRev2.pcb"*%
*
%MOIN*%
*
%FSLAX35Y35*%
*
*
*
*
G04 PC Standard Apertures*
*
*
G04 Thermal Relief Aperture macro.*
%AMTER*
1,1,$1,0,0*
1,0,$1-$2,0,0*
21,0,$3,$4,0,0,45*
21,0,$3,$4,0,0,135*
%
*
*
G04 Annular Aperture macro.*
%AMANN*
1,1,$1,0,0*
1,0,$2,0,0*
%
*
*
G04 Odd Aperture macro.*
%AMODD*
1,1,$1,0,0*
1,0,$1-0.005,0,0*
%
*
*
G04 PC Custom Aperture Macros*
*
*
*
*
*
*
G04 PC Aperture Table*
*
%ADD010C,0.001*%
%ADD011C,0.01*%
%ADD012C,0.005*%
%ADD040C,0.00787*%
%ADD214C,0.01969*%
%ADD215C,0.00984*%
%ADD219C,0.00504*%
*
*
*
*
G04 PC Circuitry*
G04 Layer Name DriverBoardRev2.pcb - circuitry*
%LPD*%
*
*
G04 PC Custom Flashes*
G04 Layer Name DriverBoardRev2.pcb - flashes*
%LPD*%
*
*
G04 PC Circuitry*
G04 Layer Name DriverBoardRev2.pcb - circuitry*
%LPD*%
*
G54D10*
G54D11*
G01X362350Y246406D02*
Y286406D01*
X384850*
Y246406*
X362350*
X381350D02*
Y286406D01*
X362350Y203098D02*
Y243098D01*
X384850*
Y203098*
X362350*
X381350D02*
Y243098D01*
X362350Y159791D02*
Y199791D01*
X384850*
Y159791*
X362350*
X381350D02*
Y199791D01*
X362350Y116484D02*
Y156484D01*
X384850*
Y116484*
X362350*
X381350D02*
Y156484D01*
X362350Y33807D02*
Y113807D01*
X384850*
Y33807*
X362350*
X381350D02*
Y113807D01*
X328276Y23000D02*
X348276D01*
Y500*
X328276*
Y23000*
Y4000D02*
X348276D01*
X300776Y23000D02*
X320776D01*
Y500*
X300776*
Y23000*
Y4000D02*
X320776D01*
X269079Y233909D02*
X295079D01*
Y200909*
X269079*
Y233909*
X238843D02*
X264843D01*
Y200909*
X238843*
Y233909*
X213276Y23000D02*
X293276D01*
Y500*
X213276*
Y23000*
Y4000D02*
X293276D01*
X219276Y304200D02*
Y310000D01*
X212276*
Y304200*
X219276Y301800D02*
Y296000D01*
X212276*
Y301800*
X208606Y233909D02*
X234606D01*
Y200909*
X208606*
Y233909*
X202276Y301800D02*
Y296000D01*
X209276*
Y301800*
X202276Y304200D02*
Y310000D01*
X209276*
Y304200*
X192276Y301800D02*
Y296000D01*
X199276*
Y301800*
X192276Y304200D02*
Y310000D01*
X199276*
Y304200*
X182276Y301800D02*
Y296000D01*
X189276*
Y301800*
X182276Y304200D02*
Y310000D01*
X189276*
Y304200*
X178350Y233909D02*
X204350D01*
Y200909*
X178350*
Y233909*
X172276Y301800D02*
Y296000D01*
X179276*
Y301800*
X172276Y304200D02*
Y310000D01*
X179276*
Y304200*
X151976Y37000D02*
X157776D01*
Y44000*
X151976*
X149576Y37000D02*
X143776D01*
Y44000*
X149576*
X143237Y223252D02*
X137437D01*
Y216252*
X143237*
X145637Y223252D02*
X151437D01*
Y216252*
X145637*
X143237Y213252D02*
X137437D01*
Y206252*
X143237*
X145637Y213252D02*
X151437D01*
Y206252*
X145637*
X140526Y55450D02*
Y61250D01*
X133526*
Y55450*
X140526Y53050D02*
Y47250D01*
X133526*
Y53050*
X125776Y23000D02*
X205776D01*
Y500*
X125776*
Y23000*
Y4000D02*
X205776D01*
X130303Y58000D02*
Y66050D01*
X120303*
Y58000*
X130303Y50500D02*
Y42450D01*
X120303*
Y50500*
X79831Y31563D02*
Y76839D01*
X115264*
Y31563*
X79831*
X113531Y36201D02*
G75*
G03X113531I-2236J0D01*
G01X64526Y50500D02*
Y42450D01*
X74526*
Y50500*
X64526Y58000D02*
Y66050D01*
X74526*
Y58000*
X38276Y23000D02*
X118276D01*
Y500*
X38276*
Y23000*
Y4000D02*
X118276D01*
X42046Y75152D02*
X36246D01*
Y68152*
X42046*
X44446Y75152D02*
X50246D01*
Y68152*
X44446*
X23000Y64250D02*
Y44250D01*
X500*
Y64250*
X23000*
X4000D02*
Y44250D01*
X123351Y223795D02*
Y217232D01*
X121760Y223795D02*
X124942D01*
X126987D02*
X130169Y217232D01*
Y223795D02*
X126987Y217232D01*
X121760Y211196D02*
Y204634D01*
Y211196D02*
X123805D01*
X124487Y210884*
X124714Y210571*
X124942Y209946*
Y209321*
X124714Y208696*
X124487Y208384*
X123805Y208071*
X121760*
X123351D02*
X124942Y204634D01*
X126987Y211196D02*
X130169Y204634D01*
Y211196D02*
X126987Y204634D01*
X103276Y359563D02*
Y353000D01*
Y359563D02*
X104866D01*
X104866D02*
X105548Y359250D01*
X106003Y358625*
X106230Y358000*
X106457Y357063*
X106457D02*
Y355500D01*
X106230Y354563*
X106230D02*
X106003Y353938D01*
X106003D02*
X105548Y353313D01*
X105548D02*
X104866Y353000D01*
X104866D02*
X103276D01*
X108503Y357375D02*
Y353000D01*
Y355500D02*
X108730Y356438D01*
X108730D02*
X109185Y357063D01*
X109185D02*
X109639Y357375D01*
X110321*
X112366Y359563D02*
X112594Y359250D01*
X112821Y359563*
X112821D02*
X112594Y359875D01*
X112366Y359563*
X112594Y357375D02*
Y353000D01*
X114866Y357375D02*
X116230Y353000D01*
X117594Y357375D02*
X116230Y353000D01*
X119639Y355500D02*
X122366D01*
X122366D02*
Y356125D01*
X122366D02*
X122139Y356750D01*
X121912Y357063*
X121912D02*
X121457Y357375D01*
X120776*
X120321Y357063*
X120321D02*
X119866Y356438D01*
X119866D02*
X119639Y355500D01*
Y354875*
X119866Y353938*
X119866D02*
X120321Y353313D01*
X120321D02*
X120776Y353000D01*
X121457*
X121912Y353313*
X121912D02*
X122366Y353938D01*
X124412Y357375D02*
Y353000D01*
Y355500D02*
X124639Y356438D01*
X124639D02*
X125094Y357063D01*
X125094D02*
X125548Y357375D01*
X126230*
X133503Y359563D02*
Y353000D01*
Y359563D02*
X135548D01*
X135548D02*
X136230Y359250D01*
X136457Y358938*
X136457D02*
X136685Y358313D01*
X136685D02*
Y357688D01*
X136685D02*
X136457Y357063D01*
X136457D02*
X136230Y356750D01*
X135548Y356438*
X133503D02*
X135548D01*
X135548D02*
X136230Y356125D01*
X136457Y355813*
X136457D02*
X136685Y355188D01*
X136685D02*
Y354250D01*
X136457Y353625*
X136230Y353313*
X136230D02*
X135548Y353000D01*
X133503*
X139866Y357375D02*
X139412Y357063D01*
X139412D02*
X138957Y356438D01*
X138957D02*
X138730Y355500D01*
Y354875*
X138957Y353938*
X138957D02*
X139412Y353313D01*
X139412D02*
X139866Y353000D01*
X139866D02*
X140548D01*
X141003Y353313*
X141003D02*
X141457Y353938D01*
X141457D02*
X141685Y354875D01*
Y355500*
X141457Y356438*
X141457D02*
X141003Y357063D01*
X141003D02*
X140548Y357375D01*
X139866*
X146457D02*
Y353000D01*
Y356438D02*
X146003Y357063D01*
X146003D02*
X145548Y357375D01*
X144866*
X144866D02*
X144412Y357063D01*
X144412D02*
X143957Y356438D01*
X143957D02*
X143730Y355500D01*
Y354875*
X143957Y353938*
X143957D02*
X144412Y353313D01*
X144412D02*
X144866Y353000D01*
X144866D02*
X145548D01*
X146003Y353313*
X146003D02*
X146457Y353938D01*
X148503Y357375D02*
Y353000D01*
Y355500D02*
X148730Y356438D01*
X148730D02*
X149185Y357063D01*
X149185D02*
X149639Y357375D01*
X150321*
X155094Y359563D02*
Y353000D01*
Y356438D02*
X154639Y357063D01*
X154639D02*
X154185Y357375D01*
X153503*
X153048Y357063*
X153048D02*
X152594Y356438D01*
X152594D02*
X152366Y355500D01*
X152366D02*
Y354875D01*
X152366D02*
X152594Y353938D01*
X152594D02*
X153048Y353313D01*
X153048D02*
X153503Y353000D01*
X154185*
X154639Y353313*
X154639D02*
X155094Y353938D01*
X162366Y359563D02*
Y353000D01*
Y359563D02*
X164412D01*
X164412D02*
X165094Y359250D01*
X165321Y358938*
X165321D02*
X165548Y358313D01*
X165548D02*
Y357688D01*
X165548D02*
X165321Y357063D01*
X165321D02*
X165094Y356750D01*
X164412Y356438*
X164412D02*
X162366D01*
X163957D02*
X165548Y353000D01*
X167594Y355500D02*
X170321D01*
Y356125*
X170094Y356750*
X169866Y357063*
X169866D02*
X169412Y357375D01*
X168730*
X168276Y357063*
X168276D02*
X167821Y356438D01*
X167821D02*
X167594Y355500D01*
Y354875*
X167821Y353938*
X167821D02*
X168276Y353313D01*
X168276D02*
X168730Y353000D01*
X169412*
X169866Y353313*
X169866D02*
X170321Y353938D01*
X172366Y357375D02*
X173730Y353000D01*
X175094Y357375D02*
X173730Y353000D01*
X177139Y359563D02*
X177366Y359250D01*
X177366D02*
X177594Y359563D01*
X177594D02*
X177366Y359875D01*
X177366D02*
X177139Y359563D01*
X177366Y357375D02*
Y353000D01*
X182139Y356438D02*
X181912Y357063D01*
X181912D02*
X181230Y357375D01*
X180548*
X179866Y357063*
X179866D02*
X179639Y356438D01*
X179639D02*
X179866Y355813D01*
X179866D02*
X180321Y355500D01*
X181457Y355188*
X181457D02*
X181912Y354875D01*
X182139Y354250*
Y353938*
X182139D02*
X181912Y353313D01*
X181912D02*
X181230Y353000D01*
X180548*
X179866Y353313*
X179866D02*
X179639Y353938D01*
X184185Y359563D02*
X184412Y359250D01*
X184639Y359563*
X184639D02*
X184412Y359875D01*
X184185Y359563*
X184412Y357375D02*
Y353000D01*
X187821Y357375D02*
X187366Y357063D01*
X187366D02*
X186912Y356438D01*
X186912D02*
X186685Y355500D01*
Y354875*
X186912Y353938*
X186912D02*
X187366Y353313D01*
X187366D02*
X187821Y353000D01*
X188503*
X188957Y353313*
X188957D02*
X189412Y353938D01*
X189412D02*
X189639Y354875D01*
Y355500*
X189412Y356438*
X189412D02*
X188957Y357063D01*
X188957D02*
X188503Y357375D01*
X187821*
X191685D02*
Y353000D01*
Y356125D02*
X192366Y357063D01*
X192366D02*
X192821Y357375D01*
X193503*
X193957Y357063*
X193957D02*
X194185Y356125D01*
Y353000*
X201685Y358000D02*
Y358313D01*
X201685D02*
X201912Y358938D01*
X201912D02*
X202139Y359250D01*
X202594Y359563*
X202594D02*
X203503D01*
X203503D02*
X203957Y359250D01*
X204185Y358938*
X204185D02*
X204412Y358313D01*
X204412D02*
Y357688D01*
X204412D02*
X204185Y357063D01*
X204185D02*
X203730Y356125D01*
X201457Y353000*
X204639*
X206912Y353625D02*
X206685Y353313D01*
X206685D02*
X206912Y353000D01*
X207139Y353313*
X207139D02*
X206912Y353625D01*
X210548Y359563D02*
X209866Y359250D01*
X209866D02*
X209412Y358313D01*
X209412D02*
X209185Y356750D01*
Y355813*
X209185D02*
X209412Y354250D01*
X209866Y353313*
X209866D02*
X210548Y353000D01*
X211003*
X211685Y353313*
X211685D02*
X212139Y354250D01*
X212366Y355813*
X212366D02*
Y356750D01*
X212366D02*
X212139Y358313D01*
X212139D02*
X211685Y359250D01*
X211003Y359563*
X211003D02*
X210548D01*
X104639Y349563D02*
X104185Y349250D01*
X103730Y348625*
X103503Y348000*
X103276Y347063*
X103276D02*
Y345500D01*
X103503Y344563*
X103503D02*
X103730Y343938D01*
X103730D02*
X104185Y343313D01*
X104185D02*
X104639Y343000D01*
X105548*
X106003Y343313*
X106003D02*
X106457Y343938D01*
X106457D02*
X106685Y344563D01*
X106685D02*
X106912Y345500D01*
Y347063*
X106912D02*
X106685Y348000D01*
X106457Y348625*
X106003Y349250*
X105548Y349563*
X105548D02*
X104639D01*
X112139Y348625D02*
X111685Y349250D01*
X111003Y349563*
X111003D02*
X110094D01*
X110094D02*
X109412Y349250D01*
X108957Y348625*
Y348000*
X109185Y347375*
X109412Y347063*
X109412D02*
X109866Y346750D01*
X109866D02*
X111230Y346125D01*
X111685Y345813*
X111685D02*
X111912Y345500D01*
X112139Y344875*
Y343938*
X112139D02*
X111685Y343313D01*
X111685D02*
X111003Y343000D01*
X110094*
X109412Y343313*
X109412D02*
X108957Y343938D01*
X114185Y349563D02*
Y344875D01*
X114412Y343938*
X114412D02*
X114866Y343313D01*
X114866D02*
X115548Y343000D01*
X116003*
X116685Y343313*
X116685D02*
X117139Y343938D01*
X117139D02*
X117366Y344875D01*
X117366D02*
Y349563D01*
X126230D02*
Y343000D01*
X124639Y349563D02*
X127821D01*
X132594Y347375D02*
Y343000D01*
Y346438D02*
X132139Y347063D01*
X132139D02*
X131685Y347375D01*
X131003*
X130548Y347063*
X130548D02*
X130094Y346438D01*
X130094D02*
X129866Y345500D01*
X129866D02*
Y344875D01*
X129866D02*
X130094Y343938D01*
X130094D02*
X130548Y343313D01*
X130548D02*
X131003Y343000D01*
X131685*
X132139Y343313*
X132139D02*
X132594Y343938D01*
X134639Y347375D02*
Y343000D01*
Y346125D02*
X135321Y347063D01*
X135321D02*
X135776Y347375D01*
X136457*
X136912Y347063*
X136912D02*
X137139Y346125D01*
Y343000*
X141912Y347375D02*
Y342375D01*
X141685Y341437*
X141685D02*
X141457Y341125D01*
X141003Y340812*
X141003D02*
X140321D01*
X140321D02*
X139866Y341125D01*
X141912Y346438D02*
X141457Y347063D01*
X141457D02*
X141003Y347375D01*
X140321*
X139866Y347063*
X139866D02*
X139412Y346438D01*
X139412D02*
X139185Y345500D01*
Y344875*
X139412Y343938*
X139412D02*
X139866Y343313D01*
X139866D02*
X140321Y343000D01*
X141003*
X141457Y343313*
X141457D02*
X141912Y343938D01*
X143957Y347375D02*
Y344250D01*
X144185Y343313*
X144185D02*
X144639Y343000D01*
X145321*
X145776Y343313*
X145776D02*
X146457Y344250D01*
Y347375D02*
Y343000D01*
X151230Y347375D02*
Y343000D01*
Y346438D02*
X150776Y347063D01*
X150776D02*
X150321Y347375D01*
X149639*
X149185Y347063*
X149185D02*
X148730Y346438D01*
X148730D02*
X148503Y345500D01*
Y344875*
X148730Y343938*
X148730D02*
X149185Y343313D01*
X149185D02*
X149639Y343000D01*
X150321*
X150776Y343313*
X150776D02*
X151230Y343938D01*
X153503Y347375D02*
X154866Y343000D01*
X156230Y347375D02*
X154866Y343000D01*
X154866D02*
X154412Y341750D01*
X153957Y341125*
X153503Y340812*
X153503D02*
X153276D01*
X163503Y349563D02*
Y343000D01*
X166230*
X171003Y347375D02*
Y343000D01*
Y346438D02*
X170548Y347063D01*
X170548D02*
X170094Y347375D01*
X169412*
X168957Y347063*
X168957D02*
X168503Y346438D01*
X168503D02*
X168276Y345500D01*
Y344875*
X168503Y343938*
X168503D02*
X168957Y343313D01*
X168957D02*
X169412Y343000D01*
X170094*
X170548Y343313*
X170548D02*
X171003Y343938D01*
X173048Y349563D02*
Y343000D01*
Y346438D02*
X173503Y347063D01*
X173503D02*
X173957Y347375D01*
X174639*
X175094Y347063*
X175094D02*
X175548Y346438D01*
X175548D02*
X175776Y345500D01*
Y344875*
X175548Y343938*
X175548D02*
X175094Y343313D01*
X175094D02*
X174639Y343000D01*
X173957*
X173503Y343313*
X173503D02*
X173048Y343938D01*
X180321Y346438D02*
X180094Y347063D01*
X180094D02*
X179412Y347375D01*
X178730*
X178048Y347063*
X178048D02*
X177821Y346438D01*
X177821D02*
X178048Y345813D01*
X178048D02*
X178503Y345500D01*
X179639Y345188*
X179639D02*
X180094Y344875D01*
X180321Y344250*
Y343938*
X180321D02*
X180094Y343313D01*
X180094D02*
X179412Y343000D01*
X178730*
X178048Y343313*
X178048D02*
X177821Y343938D01*
X187594Y345813D02*
X191685D01*
X202139Y348625D02*
X201685Y349250D01*
X201003Y349563*
X201003D02*
X200094D01*
X200094D02*
X199412Y349250D01*
X198957Y348625*
Y348000*
X199185Y347375*
X199412Y347063*
X199412D02*
X199866Y346750D01*
X199866D02*
X201230Y346125D01*
X201685Y345813*
X201685D02*
X201912Y345500D01*
X202139Y344875*
Y343938*
X202139D02*
X201685Y343313D01*
X201685D02*
X201003Y343000D01*
X200094*
X199412Y343313*
X199412D02*
X198957Y343938D01*
X206003Y349563D02*
X204185Y343000D01*
X206003Y349563D02*
X207821Y343000D01*
X204866Y345188D02*
X207139D01*
X209866Y349563D02*
Y343000D01*
Y349563D02*
X211912D01*
X211912D02*
X212594Y349250D01*
X212821Y348938*
X212821D02*
X213048Y348313D01*
X213048D02*
Y347688D01*
X213048D02*
X212821Y347063D01*
X212821D02*
X212594Y346750D01*
X211912Y346438*
X211912D02*
X209866D01*
X211457D02*
X213048Y343000D01*
X215094Y349563D02*
Y343000D01*
X217821*
X106685Y338000D02*
X106457Y338625D01*
X106003Y339250*
X105548Y339563*
X105548D02*
X104639D01*
X104639D02*
X104185Y339250D01*
X103730Y338625*
X103503Y338000*
X103276Y337063*
X103276D02*
Y335500D01*
X103503Y334563*
X103503D02*
X103730Y333938D01*
X103730D02*
X104185Y333313D01*
X104185D02*
X104639Y333000D01*
X105548*
X106003Y333313*
X106003D02*
X106457Y333938D01*
X106457D02*
X106685Y334563D01*
X109866Y337375D02*
X109412Y337063D01*
X109412D02*
X108957Y336438D01*
X108957D02*
X108730Y335500D01*
Y334875*
X108957Y333938*
X108957D02*
X109412Y333313D01*
X109412D02*
X109866Y333000D01*
X109866D02*
X110548D01*
X111003Y333313*
X111003D02*
X111457Y333938D01*
X111457D02*
X111685Y334875D01*
Y335500*
X111457Y336438*
X111457D02*
X111003Y337063D01*
X111003D02*
X110548Y337375D01*
X109866*
X113730D02*
Y333000D01*
Y335500D02*
X113957Y336438D01*
X113957D02*
X114412Y337063D01*
X114412D02*
X114866Y337375D01*
X114866D02*
X115548D01*
X117594D02*
X118503Y333000D01*
X119412Y337375D02*
X118503Y333000D01*
X119412Y337375D02*
X120321Y333000D01*
X121230Y337375D02*
X120321Y333000D01*
X123276Y339563D02*
X123503Y339250D01*
X123730Y339563*
X123730D02*
X123503Y339875D01*
X123276Y339563*
X123503Y337375D02*
Y333000D01*
X125776Y337375D02*
Y333000D01*
Y336125D02*
X126457Y337063D01*
X126457D02*
X126912Y337375D01*
X127594*
X128048Y337063*
X128048D02*
X128276Y336125D01*
Y333000*
X135548Y339563D02*
Y333000D01*
Y339563D02*
X137594D01*
X137594D02*
X138276Y339250D01*
X138503Y338938*
X138503D02*
X138730Y338313D01*
X138730D02*
Y337375D01*
X138503Y336750*
X138276Y336438*
X138276D02*
X137594Y336125D01*
X135548*
X140776Y335500D02*
X143503D01*
Y336125*
X143276Y336750*
X143048Y337063*
X143048D02*
X142594Y337375D01*
X141912*
X141457Y337063*
X141457D02*
X141003Y336438D01*
X141003D02*
X140776Y335500D01*
Y334875*
X141003Y333938*
X141003D02*
X141457Y333313D01*
X141457D02*
X141912Y333000D01*
X142594*
X143048Y333313*
X143048D02*
X143503Y333938D01*
X145548Y337375D02*
Y333000D01*
Y335500D02*
X145776Y336438D01*
X145776D02*
X146230Y337063D01*
X146230D02*
X146685Y337375D01*
X147366*
X149412D02*
Y333000D01*
Y335500D02*
X149639Y336438D01*
X149639D02*
X150094Y337063D01*
X150094D02*
X150548Y337375D01*
X151230*
X153276Y335500D02*
X156003D01*
Y336125*
X155776Y336750*
X155548Y337063*
X155548D02*
X155094Y337375D01*
X154412*
X153957Y337063*
X153957D02*
X153503Y336438D01*
X153503D02*
X153276Y335500D01*
Y334875*
X153503Y333938*
X153503D02*
X153957Y333313D01*
X153957D02*
X154412Y333000D01*
X155094*
X155548Y333313*
X155548D02*
X156003Y333938D01*
X158048Y337375D02*
Y333000D01*
Y336125D02*
X158730Y337063D01*
X158730D02*
X159185Y337375D01*
X159866*
X159866D02*
X160321Y337063D01*
X160321D02*
X160548Y336125D01*
Y333000*
X167821Y335813D02*
X171912D01*
X182366Y339563D02*
X180094Y333000D01*
X179185Y339563D02*
X182366D01*
X188503Y340813D02*
X184412Y330812D01*
X190548Y338313D02*
X191003Y338625D01*
X191685Y339563*
X191685D02*
Y333000D01*
X193730Y338313D02*
X194185Y338625D01*
X194866Y339563*
X194866D02*
Y333000D01*
X201003Y340813D02*
X196912Y330812D01*
X203276Y338000D02*
Y338313D01*
X203276D02*
X203503Y338938D01*
X203503D02*
X203730Y339250D01*
X204185Y339563*
X204185D02*
X205094D01*
X205094D02*
X205548Y339250D01*
X205776Y338938*
X205776D02*
X206003Y338313D01*
X206003D02*
Y337688D01*
X206003D02*
X205776Y337063D01*
X205776D02*
X205321Y336125D01*
X203048Y333000*
X206230*
X209639Y339563D02*
X208957Y339250D01*
X208503Y338313*
X208503D02*
X208276Y336750D01*
Y335813*
X208276D02*
X208503Y334250D01*
X208957Y333313*
X208957D02*
X209639Y333000D01*
X210094*
X210776Y333313*
X210776D02*
X211230Y334250D01*
X211457Y335813*
X211457D02*
Y336750D01*
X211230Y338313*
X211230D02*
X210776Y339250D01*
X210094Y339563*
X210094D02*
X209639D01*
X213503Y338313D02*
X213957Y338625D01*
X214639Y339563*
X214639D02*
Y333000D01*
X218957Y339563D02*
X216685Y335188D01*
X216685D02*
X220094D01*
X218957Y339563D02*
Y333000D01*
G54D12*
X345276Y45705D02*
X344963Y45591D01*
X344651Y45364*
X344494Y45136*
Y44682*
X344651Y44455*
X344963Y44227*
X345276Y44114*
X345744Y44000*
X346526*
X346994Y44114*
X347307Y44227*
X347619Y44455*
X347776Y44682*
Y45136*
X347619Y45364*
X347307Y45591*
X346994Y45705*
X346526*
Y45136D02*
Y45705D01*
X344494Y46727D02*
X347776D01*
X344494D02*
X347776Y48318D01*
X344494D02*
X347776D01*
X344494Y49341D02*
X347776D01*
X344494D02*
Y50136D01*
X344651Y50477*
X344963Y50705*
X345276Y50818*
X345744Y50932*
X346526*
X346994Y50818*
X347307Y50705*
X347619Y50477*
X347776Y50136*
Y49341*
X247776Y45705D02*
X247463Y45591D01*
X247151Y45364*
X246994Y45136*
Y44682*
X247151Y44455*
X247463Y44227*
X247776Y44114*
X248244Y44000*
X249026*
X249494Y44114*
X249807Y44227*
X250119Y44455*
X250276Y44682*
Y45136*
X250119Y45364*
X249807Y45591*
X249494Y45705*
X249026*
Y45136D02*
Y45705D01*
X246994Y46727D02*
X250276D01*
X246994D02*
X250276Y48318D01*
X246994D02*
X250276D01*
X246994Y49341D02*
X250276D01*
X246994D02*
Y50136D01*
X247151Y50477*
X247463Y50705*
X247776Y50818*
X248244Y50932*
X249026*
X249494Y50818*
X249807Y50705*
X250119Y50477*
X250276Y50136*
Y49341*
X177776Y118205D02*
X177463Y118091D01*
X177151Y117864*
X176994Y117636*
Y117182*
X177151Y116955*
X177463Y116727*
X177776Y116614*
X178244Y116500*
X179026*
X179494Y116614*
X179807Y116727*
X180119Y116955*
X180276Y117182*
Y117636*
X180119Y117864*
X179807Y118091*
X179494Y118205*
X179026*
Y117636D02*
Y118205D01*
X176994Y119227D02*
X180276D01*
X176994D02*
X180276Y120818D01*
X176994D02*
X180276D01*
X176994Y121841D02*
X180276D01*
X176994D02*
Y122636D01*
X177151Y122977*
X177463Y123205*
X177776Y123318*
X178244Y123432*
X179026*
X179494Y123318*
X179807Y123205*
X180119Y122977*
X180276Y122636*
Y121841*
X80276Y118205D02*
X79963Y118091D01*
X79651Y117864*
X79494Y117636*
Y117182*
X79651Y116955*
X79963Y116727*
X80276Y116614*
X80744Y116500*
X81526*
X81994Y116614*
X82307Y116727*
X82619Y116955*
X82776Y117182*
Y117636*
X82619Y117864*
X82307Y118091*
X81994Y118205*
X81526*
Y117636D02*
Y118205D01*
X79494Y119227D02*
X82776D01*
X79494D02*
X82776Y120818D01*
X79494D02*
X82776D01*
X79494Y121841D02*
X82776D01*
X79494D02*
Y122636D01*
X79651Y122977*
X79963Y123205*
X80276Y123318*
X80744Y123432*
X81526*
X81994Y123318*
X82307Y123205*
X82619Y122977*
X82776Y122636*
Y121841*
X285229Y60648D02*
X284916Y60534D01*
X284604Y60307*
X284447Y60080*
Y59625*
X284604Y59398*
X284916Y59170*
X285229Y59057*
X285697Y58943*
X286479*
X286947Y59057*
X287260Y59170*
X287572Y59398*
X287729Y59625*
Y60080*
X287572Y60307*
X287260Y60534*
X286947Y60648*
X284447Y62807D02*
X286635Y61670D01*
Y63375*
X284447Y62807D02*
X287729D01*
X284447Y65534D02*
X286635Y64398D01*
Y66102*
X284447Y65534D02*
X287729D01*
X307494Y63000D02*
X310776D01*
X307494Y64591D02*
X310776D01*
X309057Y63000D02*
Y64591D01*
X307494Y66182D02*
X307651Y65841D01*
X307963Y65727*
X308276*
X308588Y65841*
X308744Y66068*
X308901Y66523*
X309057Y66864*
X309369Y67091*
X309682Y67205*
X310151*
X310463Y67091*
X310619Y66977*
X310776Y66636*
Y66182*
X310619Y65841*
X310463Y65727*
X310151Y65614*
X309682*
X309369Y65727*
X309057Y65955*
X308901Y66295*
X308744Y66750*
X308588Y66977*
X308276Y67091*
X307963*
X307651Y66977*
X307494Y66636*
Y66182*
X218276Y316295D02*
X218588Y316409D01*
X218901Y316636*
X219057Y316864*
Y317318*
X218901Y317545*
X218588Y317773*
X218276Y317886*
X217807Y318000*
X217026*
X216557Y317886*
X216244Y317773*
X215932Y317545*
X215776Y317318*
Y316864*
X215932Y316636*
X216244Y316409*
X216557Y316295*
X217963Y313795D02*
X217494Y313909D01*
X217182Y314136*
X217026Y314477*
Y314591*
X217182Y314932*
X217494Y315159*
X217963Y315273*
X218119*
X218588Y315159*
X218901Y314932*
X219057Y314591*
Y314477*
X218901Y314136*
X218588Y313909*
X217963Y313795*
X217182*
X216401Y313909*
X215932Y314136*
X215776Y314477*
Y314705*
X215932Y315045*
X216244Y315159*
X208276Y316295D02*
X208588Y316409D01*
X208901Y316636*
X209057Y316864*
Y317318*
X208901Y317545*
X208588Y317773*
X208276Y317886*
X207807Y318000*
X207026*
X206557Y317886*
X206244Y317773*
X205932Y317545*
X205776Y317318*
Y316864*
X205932Y316636*
X206244Y316409*
X206557Y316295*
X208432Y315273D02*
X208588Y315045D01*
X209057Y314705*
X205776*
X209057Y313000D02*
X208901Y313341D01*
X208432Y313568*
X207651Y313682*
X207182*
X206401Y313568*
X205932Y313341*
X205776Y313000*
Y312773*
X205932Y312432*
X206401Y312205*
X207182Y312091*
X207651*
X208432Y312205*
X208901Y312432*
X209057Y312773*
Y313000*
X198276Y316295D02*
X198588Y316409D01*
X198901Y316636*
X199057Y316864*
Y317318*
X198901Y317545*
X198588Y317773*
X198276Y317886*
X197807Y318000*
X197026*
X196557Y317886*
X196244Y317773*
X195932Y317545*
X195776Y317318*
Y316864*
X195932Y316636*
X196244Y316409*
X196557Y316295*
X198432Y315273D02*
X198588Y315045D01*
X199057Y314705*
X195776*
X198432Y313682D02*
X198588Y313455D01*
X199057Y313114*
X195776*
X194831Y269384D02*
Y271728D01*
X194717Y272197*
X194490Y272509*
X194149Y272665*
X193922*
X193581Y272509*
X193353Y272197*
X193240Y271728*
Y269384*
X190740Y270478D02*
X190853Y270947D01*
X191081Y271259*
X191422Y271415*
X191535*
X191876Y271259*
X192103Y270947*
X192217Y270478*
Y270322*
X192103Y269853*
X191876Y269540*
X191535Y269384*
X191422*
X191081Y269540*
X190853Y269853*
X190740Y270478*
Y271259*
X190853Y272040*
X191081Y272509*
X191422Y272665*
X191649*
X191990Y272509*
X192103Y272197*
X188276Y316295D02*
X188588Y316409D01*
X188901Y316636*
X189057Y316864*
Y317318*
X188901Y317545*
X188588Y317773*
X188276Y317886*
X187807Y318000*
X187026*
X186557Y317886*
X186244Y317773*
X185932Y317545*
X185776Y317318*
Y316864*
X185932Y316636*
X186244Y316409*
X186557Y316295*
X188432Y315273D02*
X188588Y315045D01*
X189057Y314705*
X185776*
X188276Y313568D02*
X188432D01*
X188744Y313455*
X188901Y313341*
X189057Y313114*
Y312659*
X188901Y312432*
X188744Y312318*
X188432Y312205*
X188119*
X187807Y312318*
X187338Y312545*
X185776Y313682*
Y312091*
X187729Y60705D02*
X187416Y60591D01*
X187104Y60364*
X186947Y60136*
Y59682*
X187104Y59455*
X187416Y59227*
X187729Y59114*
X188197Y59000*
X188979*
X189447Y59114*
X189760Y59227*
X190072Y59455*
X190229Y59682*
Y60136*
X190072Y60364*
X189760Y60591*
X189447Y60705*
X186947Y62864D02*
X189135Y61727D01*
Y63432*
X186947Y62864D02*
X190229D01*
X186947Y64682D02*
Y65932D01*
X188197Y65250*
Y65591*
X188354Y65818*
X188510Y65932*
X188979Y66045*
X189291*
X189760Y65932*
X190072Y65705*
X190229Y65364*
Y65023*
X190072Y64682*
X189916Y64568*
X189604Y64455*
X209994Y63000D02*
X213276D01*
X209994Y64591D02*
X213276D01*
X211557Y63000D02*
Y64591D01*
X209994Y65841D02*
Y67091D01*
X211244Y66409*
Y66750*
X211401Y66977*
X211557Y67091*
X212026Y67205*
X212338*
X212807Y67091*
X213119Y66864*
X213276Y66523*
Y66182*
X213119Y65841*
X212963Y65727*
X212651Y65614*
X179057Y315500D02*
X175776D01*
Y314136*
X178432Y313114D02*
X178588Y312886D01*
X179057Y312545*
X175776*
X161260Y40835D02*
X161146Y41147D01*
X160919Y41460*
X160691Y41616*
X160237*
X160010Y41460*
X159782Y41147*
X159669Y40835*
X159555Y40366*
Y39585*
X159669Y39116*
X159782Y38803*
X160010Y38491*
X160237Y38335*
X160691*
X160919Y38491*
X161146Y38803*
X161260Y39116*
X162282Y40991D02*
X162510Y41147D01*
X162851Y41616*
Y38335*
X165351Y41616D02*
X164214D01*
X164101Y40210*
X164214Y40366*
X164555Y40522*
X164896*
X165237Y40366*
X165464Y40053*
X165578Y39585*
X165464Y39272*
X165351Y38803*
X165123Y38491*
X164782Y38335*
X164441*
X164101Y38491*
X163987Y38647*
X163873Y38960*
X157760Y55346D02*
X158669Y52065D01*
X159578Y55346D02*
X158669Y52065D01*
X160601Y55346D02*
Y52065D01*
Y55346D02*
X161623D01*
X161964Y55190*
X162078Y55033*
X162192Y54721*
Y54408*
X162078Y54096*
X161964Y53940*
X161623Y53783*
X160601*
X161396D02*
X162192Y52065D01*
X163328Y54565D02*
Y54721D01*
X163442Y55033*
X163555Y55190*
X163783Y55346*
X164237*
X164464Y55190*
X164578Y55033*
X164692Y54721*
Y54408*
X164578Y54096*
X164351Y53627*
X163214Y52065*
X164805*
X154516Y220514D02*
Y218170D01*
X154629Y217701*
X154857Y217389*
X155198Y217232*
X155425*
X155766Y217389*
X155993Y217701*
X156107Y218170*
Y220514*
X157129Y219889D02*
X157357Y220045D01*
X157698Y220514*
Y217232*
X158720Y219889D02*
X158948Y220045D01*
X159288Y220514*
Y217232*
X154516Y210435D02*
Y208091D01*
X154629Y207622*
X154857Y207310*
X155198Y207154*
X155425*
X155766Y207310*
X155993Y207622*
X156107Y208091*
Y210435*
X157129Y209810D02*
X157357Y209966D01*
X157698Y210435*
Y207154*
X159402Y210435D02*
X159061Y210279D01*
X158834Y209810*
X158720Y209029*
Y208560*
X158834Y207779*
X159061Y207310*
X159402Y207154*
X159629*
X159970Y207310*
X160198Y207779*
X160311Y208560*
Y209029*
X160198Y209810*
X159970Y210279*
X159629Y210435*
X159402*
X140795Y43746D02*
X141108Y43860D01*
X141420Y44087*
X141577Y44314*
Y44769*
X141420Y44996*
X141108Y45224*
X140795Y45337*
X140327Y45451*
X139545*
X139077Y45337*
X138764Y45224*
X138452Y44996*
X138295Y44769*
Y44314*
X138452Y44087*
X138764Y43860*
X139077Y43746*
X140952Y42724D02*
X141108Y42496D01*
X141577Y42155*
X138295*
X141108Y39769D02*
X141420Y39883D01*
X141577Y40224*
Y40451*
X141420Y40792*
X140952Y41019*
X140170Y41133*
X139389*
X138764Y41019*
X138452Y40792*
X138295Y40451*
Y40337*
X138452Y39996*
X138764Y39769*
X139233Y39655*
X139389*
X139858Y39769*
X140170Y39996*
X140327Y40337*
Y40451*
X140170Y40792*
X139858Y41019*
X139389Y41133*
X130795Y38746D02*
X131108Y38860D01*
X131420Y39087*
X131577Y39314*
Y39769*
X131420Y39996*
X131108Y40224*
X130795Y40337*
X130327Y40451*
X129545*
X129077Y40337*
X128764Y40224*
X128452Y39996*
X128295Y39769*
Y39314*
X128452Y39087*
X128764Y38860*
X129077Y38746*
X130952Y37724D02*
X131108Y37496D01*
X131577Y37155*
X128295*
X131577Y35905D02*
Y34655D01*
X130327Y35337*
Y34996*
X130170Y34769*
X130014Y34655*
X129545Y34542*
X129233*
X128764Y34655*
X128452Y34883*
X128295Y35224*
Y35564*
X128452Y35905*
X128608Y36019*
X128920Y36133*
X117729Y133205D02*
X117416Y133091D01*
X117104Y132864*
X116947Y132636*
Y132182*
X117104Y131955*
X117416Y131727*
X117729Y131614*
X118197Y131500*
X118979*
X119447Y131614*
X119760Y131727*
X120072Y131955*
X120229Y132182*
Y132636*
X120072Y132864*
X119760Y133091*
X119447Y133205*
X116947Y135364D02*
X119135Y134227D01*
Y135932*
X116947Y135364D02*
X120229D01*
X117729Y137068D02*
X117572D01*
X117260Y137182*
X117104Y137295*
X116947Y137523*
Y137977*
X117104Y138205*
X117260Y138318*
X117572Y138432*
X117885*
X118197Y138318*
X118666Y138091*
X120229Y136955*
Y138545*
X139994Y135500D02*
X143276D01*
X139994Y137091D02*
X143276D01*
X141557Y135500D02*
Y137091D01*
X140776Y138227D02*
X140619D01*
X140307Y138341*
X140151Y138455*
X139994Y138682*
Y139136*
X140151Y139364*
X140307Y139477*
X140619Y139591*
X140932*
X141244Y139477*
X141713Y139250*
X143276Y138114*
Y139705*
X121577Y77951D02*
X118295Y77042D01*
X121577Y76133D02*
X118295Y77042D01*
X121577Y75110D02*
X118295D01*
X121577D02*
Y74087D01*
X121420Y73746*
X121264Y73633*
X120952Y73519*
X120639*
X120327Y73633*
X120170Y73746*
X120014Y74087*
Y75110*
Y74314D02*
X118295Y73519D01*
X120952Y72496D02*
X121108Y72269D01*
X121577Y71928*
X118295*
X73295Y73746D02*
X73608Y73860D01*
X73920Y74087*
X74077Y74314*
Y74769*
X73920Y74996*
X73608Y75224*
X73295Y75337*
X72827Y75451*
X72045*
X71577Y75337*
X71264Y75224*
X70952Y74996*
X70795Y74769*
Y74314*
X70952Y74087*
X71264Y73860*
X71577Y73746*
X73452Y72724D02*
X73608Y72496D01*
X74077Y72155*
X70795*
X74077Y69996D02*
X71889Y71133D01*
Y69428*
X74077Y69996D02*
X70795D01*
X35795Y81232D02*
Y77951D01*
Y81232D02*
X36818D01*
X37159Y81076*
X37273Y80920*
X37386Y80607*
Y80295*
X37273Y79982*
X37159Y79826*
X36818Y79670*
X35795*
X36591D02*
X37386Y77951D01*
X38523Y80451D02*
Y80607D01*
X38636Y80920*
X38750Y81076*
X38977Y81232*
X39432*
X39659Y81076*
X39773Y80920*
X39886Y80607*
Y80295*
X39773Y79982*
X39545Y79513*
X38409Y77951*
X40000*
X41967Y46735D02*
X45248D01*
X41967D02*
X45248Y47644D01*
X41967Y48553D02*
X45248Y47644D01*
X41967Y48553D02*
X45248D01*
X41967Y50258D02*
X42123Y50030D01*
X42436Y49803*
X42748Y49689*
X43217Y49576*
X43998*
X44467Y49689*
X44780Y49803*
X45092Y50030*
X45248Y50258*
Y50712*
X45092Y50939*
X44780Y51167*
X44467Y51280*
X43998Y51394*
X43217*
X42748Y51280*
X42436Y51167*
X42123Y50939*
X41967Y50712*
Y50258*
X42436Y54008D02*
X42123Y53780D01*
X41967Y53439*
Y52985*
X42123Y52644*
X42436Y52417*
X42748*
X43061Y52530*
X43217Y52644*
X43373Y52871*
X43686Y53553*
X43842Y53780*
X43998Y53894*
X44311Y54008*
X44780*
X45092Y53780*
X45248Y53439*
Y52985*
X45092Y52644*
X44780Y52417*
X41967Y55030D02*
X45248D01*
X41967D02*
Y56508D01*
X43530Y55030D02*
Y55939D01*
X41967Y57530D02*
X45248D01*
X41967D02*
Y59008D01*
X43530Y57530D02*
Y58439D01*
X45248Y57530D02*
Y59008D01*
X41967Y60826D02*
X45248D01*
X41967Y60030D02*
Y61621D01*
X42592Y62644D02*
X42436Y62871D01*
X41967Y63212*
X45248*
X20229Y133716D02*
X19916Y133602D01*
X19604Y133375*
X19447Y133148*
Y132693*
X19604Y132466*
X19916Y132239*
X20229Y132125*
X20697Y132011*
X21479*
X21947Y132125*
X22260Y132239*
X22572Y132466*
X22729Y132693*
Y133148*
X22572Y133375*
X22260Y133602*
X21947Y133716*
X19447Y135875D02*
X21635Y134739D01*
Y136443*
X19447Y135875D02*
X22729D01*
X20072Y137466D02*
X19916Y137693D01*
X19447Y138034*
X22729*
X42494Y135500D02*
X45776D01*
X42494Y137091D02*
X45776D01*
X44057Y135500D02*
Y137091D01*
X43119Y138114D02*
X42963Y138341D01*
X42494Y138682*
X45776*
X2159Y96779D02*
Y94435D01*
X2273Y93966*
X2500Y93654*
X2841Y93498*
X3068*
X3409Y93654*
X3636Y93966*
X3750Y94435*
Y96779*
X4886Y95998D02*
Y96154D01*
X5000Y96466*
X5113Y96623*
X5341Y96779*
X5795*
X6023Y96623*
X6136Y96466*
X6250Y96154*
Y95841*
X6136Y95529*
X5909Y95060*
X4773Y93498*
X6363*
X7500Y95998D02*
Y96154D01*
X7613Y96466*
X7727Y96623*
X7954Y96779*
X8409*
X8636Y96623*
X8750Y96466*
X8863Y96154*
Y95841*
X8750Y95529*
X8523Y95060*
X7386Y93498*
X8977*
G54D40*
X293925Y155461D02*
X352587D01*
X293925Y117665D02*
X352587D01*
X293925D02*
Y155461D01*
X352587Y117665D02*
Y155461D01*
X281051Y75402D02*
X273374D01*
Y56799*
X279575Y50598*
X281051*
X290500Y75402D02*
X298177D01*
Y56799*
X291976Y50598*
X290500*
X270776Y42693D02*
Y60462D01*
X275776*
Y65538*
X270776*
Y83307*
X350776*
Y42693*
X270776*
X194831Y154476D02*
X275146D01*
X194831Y118650D02*
X275146D01*
X194831D02*
Y154476D01*
X275146Y118650D02*
Y154476D01*
X202331Y250421D02*
X194407D01*
Y252931*
X192144*
Y250421*
X184220*
Y290579*
X202331*
Y250421*
X183551Y75402D02*
X175874D01*
Y56799*
X182075Y50598*
X183551*
X193000Y75402D02*
X200677D01*
Y56799*
X194476Y50598*
X193000*
X173276Y42693D02*
Y60462D01*
X178276*
Y65538*
X173276*
Y83307*
X253276*
Y42693*
X173276*
X156484Y53069D02*
Y55431D01*
X145067*
Y53069*
X156484*
X113551Y147902D02*
X105874D01*
Y129299*
X112075Y123098*
X113551*
X123000Y147902D02*
X130677D01*
Y129299*
X124476Y123098*
X123000*
X103276Y115193D02*
Y132962D01*
X108276*
Y138038*
X103276*
Y155807*
X183276*
Y115193*
X103276*
X49594Y65096D02*
X36996D01*
Y45805*
X49594*
Y65096*
X16051Y147902D02*
X8374D01*
Y129299*
X14575Y123098*
X16051*
X25500Y147902D02*
X33177D01*
Y129299*
X26976Y123098*
X25500*
X5776Y115193D02*
Y132962D01*
X10776*
Y138038*
X5776*
Y155807*
X85776*
Y115193*
X5776*
X8630Y76848D02*
X12961D01*
Y89053*
X8630*
Y76848*
X9417Y89053D02*
X8630Y88266D01*
X10205Y89053D02*
X8630Y87478D01*
X10992Y89053D02*
X8630Y86691D01*
X11780Y89053D02*
X8630Y85904D01*
X12567Y89053D02*
X8630Y85116D01*
G54D214*
X46642Y49742D02*
G03X46642I-985J0D01*
G54D215*
G01X313748Y115402D02*
G03X313748I-492J0D01*
G01X280953Y46858D02*
G03X280953I-492J0D01*
G01X215480Y116386D02*
G03X215480I-492J0D01*
G01X183453Y46858D02*
G03X183453I-492J0D01*
G01X144181Y48738D02*
G03X144181I-492J0D01*
G01X113453Y119358D02*
G03X113453I-492J0D01*
G01X56386Y44624D02*
G03X56386I-492J0D01*
G01X15953Y119358D02*
G03X15953I-492J0D01*
G01X4791Y90037D02*
G03X4791I-492J0D01*
G54D219*
G01X10092Y68571D02*
X9977Y68886D01*
X9748Y69201*
X9519Y69358*
X9061*
X8832Y69201*
X8603Y68886*
X8489Y68571*
X8374Y68098*
Y67311*
X8489Y66839*
X8603Y66524*
X8832Y66209*
X9061Y66051*
X9519*
X9748Y66209*
X9977Y66524*
X10092Y66839*
Y67311*
X9519D02*
X10092D01*
X11123Y69358D02*
Y66051D01*
Y69358D02*
X12726Y66051D01*
Y69358D02*
Y66051D01*
X13757Y69358D02*
Y66051D01*
Y69358D02*
X14559D01*
X14902Y69201*
X15131Y68886*
X15246Y68571*
X15360Y68098*
Y67311*
X15246Y66839*
X15131Y66524*
X14902Y66209*
X14559Y66051*
X13757*
X9405Y41169D02*
Y38335D01*
X8374Y39752D02*
X10436D01*
X11581Y40854D02*
Y41012D01*
X11695Y41327*
X11810Y41484*
X12039Y41642*
X12497*
X12726Y41484*
X12841Y41327*
X12955Y41012*
Y40697*
X12841Y40382*
X12612Y39909*
X11466Y38335*
X13070*
X15246Y41642D02*
X14101Y39437D01*
X15819*
X15246Y41642D02*
Y38335D01*
X16849Y41642D02*
X17766Y38335D01*
X18682Y41642D02*
X17766Y38335D01*
X341602Y29043D02*
Y25736D01*
X342977*
X345038Y28571D02*
Y25736D01*
X344008Y27154D02*
X346069D01*
X331524Y29043D02*
Y25736D01*
X332898*
X333929Y27154D02*
X335990D01*
X313886Y29043D02*
Y25736D01*
Y29043D02*
X315375D01*
X313886Y27469D02*
X314802D01*
X313886Y25736D02*
X315375D01*
X317436Y28571D02*
Y25736D01*
X316406Y27154D02*
X318467D01*
X303807Y29043D02*
Y25736D01*
Y29043D02*
X305296D01*
X303807Y27469D02*
X304723D01*
X303807Y25736D02*
X305296D01*
X306327Y27154D02*
X308388D01*
X285854Y29043D02*
Y25736D01*
Y29043D02*
X287458Y25736D01*
Y29043D02*
Y25736D01*
X290207Y28256D02*
X290092Y28571D01*
X289863Y28886*
X289634Y29043*
X289176*
X288947Y28886*
X288718Y28571*
X288603Y28256*
X288489Y27783*
Y26996*
X288603Y26524*
X288718Y26209*
X288947Y25894*
X289176Y25736*
X289634*
X289863Y25894*
X290092Y26209*
X290207Y26524*
X276091Y29043D02*
Y25736D01*
Y29043D02*
X277694Y25736D01*
Y29043D02*
Y25736D01*
X280443Y28256D02*
X280328Y28571D01*
X280099Y28886*
X279870Y29043*
X279412*
X279183Y28886*
X278954Y28571*
X278839Y28256*
X278725Y27783*
Y26996*
X278839Y26524*
X278954Y26209*
X279183Y25894*
X279412Y25736*
X279870*
X280099Y25894*
X280328Y26209*
X280443Y26524*
X266355Y28571D02*
X266126Y28886D01*
X265783Y29043*
X265325*
X264981Y28886*
X264752Y28571*
Y28256*
X264866Y27941*
X264866D02*
X264981Y27783D01*
X265210Y27626*
X265897Y27311*
X266126Y27154*
X266241Y26996*
X266355Y26681*
Y26209*
X266126Y25894*
X265783Y25736*
X265325*
X264981Y25894*
X264752Y26209*
X269104Y28256D02*
X268990Y28571D01*
X268761Y28886*
X268531Y29043*
X268073*
X267844Y28886*
X267615Y28571*
X267501Y28256*
X267386Y27783*
Y26996*
X267501Y26524*
X267615Y26209*
X267844Y25894*
X268073Y25736*
X268531*
X268761Y25894*
X268990Y26209*
X269104Y26524*
X271738Y28571D02*
X271509Y28886D01*
X271166Y29043*
X270708*
X270364Y28886*
X270135Y28571*
Y28256*
X270249Y27941*
X270364Y27783*
X270593Y27626*
X271280Y27311*
X271509Y27154*
X271624Y26996*
X271738Y26681*
Y26209*
X271509Y25894*
X271166Y25736*
X270708*
X270364Y25894*
X270135Y26209*
X257537Y28571D02*
X257307Y28886D01*
X256964Y29043*
X256506*
X256162Y28886*
X255933Y28571*
Y28256*
X256048Y27941*
X256162Y27783*
X256391Y27626*
X257078Y27311*
X257307Y27154*
X257422Y26996*
X257537Y26681*
Y26209*
X257307Y25894*
X256964Y25736*
X256506*
X256162Y25894*
X255933Y26209*
X260285Y28256D02*
X260171Y28571D01*
X259942Y28886*
X259713Y29043*
X259254*
X259025Y28886*
X258796Y28571*
X258682Y28256*
X258567Y27783*
Y26996*
X258682Y26524*
X258796Y26209*
X259025Y25894*
X259254Y25736*
X259713*
X259942Y25894*
X260171Y26209*
X260285Y26524*
X247773Y28571D02*
X247544Y28886D01*
X247200Y29043*
X246742*
X246398Y28886*
X246169Y28571*
Y28256*
X246284Y27941*
X246398Y27783*
X246627Y27626*
X247315Y27311*
X247544Y27154*
X247658Y26996*
X247773Y26681*
Y26209*
X247544Y25894*
X247200Y25736*
X246742*
X246398Y25894*
X246169Y26209*
X248804Y29043D02*
Y25736D01*
X250407Y29043D02*
Y25736D01*
X248804Y27469D02*
X250407D01*
X236434Y28571D02*
X236205Y28886D01*
X235861Y29043*
X235403*
X235060Y28886*
X234831Y28571*
Y28256*
X234945Y27941*
X235060Y27783*
X235289Y27626*
X235976Y27311*
X236205Y27154*
X236320Y26996*
X236434Y26681*
Y26209*
X236205Y25894*
X235861Y25736*
X235403*
X235060Y25894*
X234831Y26209*
X238267Y29043D02*
Y25736D01*
X237465Y29043D02*
X239068D01*
X240099D02*
Y25736D01*
Y29043D02*
X241130D01*
X241474Y28886*
X241588Y28728*
X241703Y28413*
Y27941*
X241588Y27626*
X241474Y27469*
X241130Y27311*
X240099*
X227930Y28571D02*
X227701Y28886D01*
X227358Y29043*
X226899*
X226556Y28886*
X226327Y28571*
Y28256*
X226441Y27941*
X226556Y27783*
X226785Y27626*
X227472Y27311*
X227701Y27154*
X227816Y26996*
X227930Y26681*
Y26209*
X227701Y25894*
X227358Y25736*
X226899*
X226556Y25894*
X226327Y26209*
X229763Y29043D02*
Y25736D01*
X228961Y29043D02*
X230564D01*
X216391Y28256D02*
X216277Y28571D01*
X216048Y28886*
X215819Y29043*
X215360*
X215131Y28886*
X214902Y28571*
X214788Y28256*
X214673Y27783*
Y26996*
X214788Y26524*
X214902Y26209*
X215131Y25894*
X215360Y25736*
X215819*
X216048Y25894*
X216277Y26209*
X216391Y26524*
Y26996*
X215819D02*
X216391D01*
X217422Y29043D02*
Y25736D01*
Y29043D02*
X219025Y25736D01*
Y29043D02*
Y25736D01*
X220056Y29043D02*
Y25736D01*
Y29043D02*
X220858D01*
X221202Y28886*
X221431Y28571*
X221545Y28256*
X221660Y27783*
Y26996*
X221545Y26524*
X221431Y26209*
X221202Y25894*
X220858Y25736*
X220056*
X128832Y28256D02*
X128718Y28571D01*
X128489Y28886*
X128259Y29043*
X127801*
X127572Y28886*
X127343Y28571*
X127229Y28256*
X127114Y27783*
Y26996*
X127229Y26524*
X127343Y26209*
X127572Y25894*
X127801Y25736*
X128259*
X128489Y25894*
X128718Y26209*
X128832Y26524*
Y26996*
X128259D02*
X128832D01*
X129863Y29043D02*
Y25736D01*
Y29043D02*
X131466Y25736D01*
Y29043D02*
Y25736D01*
X132497Y29043D02*
Y25736D01*
Y29043D02*
X133299D01*
X133642Y28886*
X133872Y28571*
X133986Y28256*
X134101Y27783*
Y26996*
X133986Y26524*
X133872Y26209*
X133642Y25894*
X133299Y25736*
X132497*
X138596Y28256D02*
X138481Y28571D01*
X138252Y28886*
X138023Y29043*
X137565*
X137336Y28886*
X137107Y28571*
X136992Y28256*
X136878Y27783*
Y26996*
X136992Y26524*
X137107Y26209*
X137336Y25894*
X137565Y25736*
X138023*
X138252Y25894*
X138481Y26209*
X138596Y26524*
Y26996*
X138023D02*
X138596D01*
X139627Y29043D02*
Y25736D01*
Y29043D02*
X141230Y25736D01*
Y29043D02*
Y25736D01*
X142261Y29043D02*
Y25736D01*
Y29043D02*
X143063D01*
X143406Y28886*
X143635Y28571*
X143750Y28256*
X143864Y27783*
Y26996*
X143750Y26524*
X143635Y26209*
X143406Y25894*
X143063Y25736*
X142261*
X150135Y28571D02*
X149906Y28886D01*
X149562Y29043*
X149104*
X148761Y28886*
X148531Y28571*
Y28256*
X148646Y27941*
X148761Y27783*
X148990Y27626*
X149677Y27311*
X149906Y27154*
X150020Y26996*
X150135Y26681*
Y26209*
X149906Y25894*
X149562Y25736*
X149104*
X148761Y25894*
X148531Y26209*
X151967Y29043D02*
Y25736D01*
X151166Y29043D02*
X152769D01*
X158954Y28571D02*
X158725Y28886D01*
X158381Y29043*
X157923*
X157579Y28886*
X157350Y28571*
Y28256*
X157465Y27941*
X157579Y27783*
X157809Y27626*
X158496Y27311*
X158725Y27154*
X158839Y26996*
X158954Y26681*
Y26209*
X158725Y25894*
X158381Y25736*
X157923*
X157579Y25894*
X157350Y26209*
X160786Y29043D02*
Y25736D01*
X159985Y29043D02*
X161588D01*
X162619D02*
Y25736D01*
Y29043D02*
X163650D01*
X163993Y28886*
X164108Y28728*
X164222Y28413*
Y27941*
X164108Y27626*
X163993Y27469*
X163650Y27311*
X162619*
X169977Y28571D02*
X169748Y28886D01*
X169405Y29043*
X168947*
X168603Y28886*
X168374Y28571*
Y28256*
X168489Y27941*
X168603Y27783*
X168832Y27626*
X169519Y27311*
X169748Y27154*
X169863Y26996*
X169977Y26681*
Y26209*
X169748Y25894*
X169405Y25736*
X168947*
X168603Y25894*
X168374Y26209*
X171008Y29043D02*
Y25736D01*
X172612Y29043D02*
Y25736D01*
X171008Y27469D02*
X172612D01*
X180056Y28571D02*
X179827Y28886D01*
X179484Y29043*
X179025*
X178682Y28886*
X178453Y28571*
Y28256*
X178567Y27941*
X178682Y27783*
X178911Y27626*
X179598Y27311*
X179827Y27154*
X179942Y26996*
X180056Y26681*
Y26209*
X179827Y25894*
X179484Y25736*
X179025*
X178682Y25894*
X178453Y26209*
X182805Y28256D02*
X182690Y28571D01*
X182461Y28886*
X182232Y29043*
X181774*
X181545Y28886*
X181316Y28571*
X181202Y28256*
X181087Y27783*
Y26996*
X181202Y26524*
X181316Y26209*
X181545Y25894*
X181774Y25736*
X182232*
X182461Y25894*
X182690Y26209*
X182805Y26524*
X186957Y29043D02*
Y25736D01*
Y29043D02*
X187987D01*
X188331Y28886*
X188446Y28728*
X188560Y28413*
Y27941*
X188446Y27626*
X188331Y27469*
X187987Y27311*
X186957*
X189591Y29043D02*
X190164Y25736D01*
X190736Y29043D02*
X190164Y25736D01*
X190736Y29043D02*
X191309Y25736D01*
X191882Y29043D02*
X191309Y25736D01*
X192912Y29043D02*
Y25736D01*
Y29043D02*
X193943D01*
X194287Y28886*
X194401Y28728*
X194516Y28413*
Y28098*
X194401Y27783*
X194287Y27626*
X193943Y27469*
X192912*
X193714D02*
X194516Y25736D01*
X197035Y29043D02*
Y25736D01*
Y29043D02*
X198066D01*
X198410Y28886*
X198524Y28728*
X198639Y28413*
Y27941*
X198524Y27626*
X198410Y27469*
X198066Y27311*
X197035*
X199670Y29043D02*
X200242Y25736D01*
X200815Y29043D02*
X200242Y25736D01*
X200815Y29043D02*
X201388Y25736D01*
X201960Y29043D02*
X201388Y25736D01*
X202991Y29043D02*
Y25736D01*
Y29043D02*
X204022D01*
X204365Y28886*
X204480Y28728*
X204594Y28413*
Y28098*
X204480Y27783*
X204365Y27626*
X204022Y27469*
X202991*
X203793D02*
X204594Y25736D01*
X41273Y28256D02*
X41159Y28571D01*
X40929Y28886*
X40700Y29043*
X40242*
X40013Y28886*
X39784Y28571*
X39670Y28256*
X39555Y27783*
Y26996*
X39670Y26524*
X39784Y26209*
X40013Y25894*
X40242Y25736*
X40700*
X40929Y25894*
X41159Y26209*
X41273Y26524*
Y26996*
X40700D02*
X41273D01*
X42304Y29043D02*
Y25736D01*
Y29043D02*
X43907Y25736D01*
Y29043D02*
Y25736D01*
X44938Y29043D02*
Y25736D01*
Y29043D02*
X45740D01*
X46083Y28886*
X46312Y28571*
X46427Y28256*
X46542Y27783*
Y26996*
X46427Y26524*
X46312Y26209*
X46083Y25894*
X45740Y25736*
X44938*
X51352Y28256D02*
X51237Y28571D01*
X51008Y28886*
X50779Y29043*
X50321*
X50092Y28886*
X49863Y28571*
X49748Y28256*
X49634Y27783*
Y26996*
X49748Y26524*
X49863Y26209*
X50092Y25894*
X50321Y25736*
X50779*
X51008Y25894*
X51237Y26209*
X51352Y26524*
Y26996*
X50779D02*
X51352D01*
X52383Y29043D02*
Y25736D01*
Y29043D02*
X53986Y25736D01*
Y29043D02*
Y25736D01*
X55017Y29043D02*
Y25736D01*
Y29043D02*
X55819D01*
X56162Y28886*
X56391Y28571*
X56506Y28256*
X56620Y27783*
Y26996*
X56506Y26524*
X56391Y26209*
X56162Y25894*
X55819Y25736*
X55017*
X60343Y29043D02*
Y25736D01*
Y29043D02*
X61373D01*
X61717Y28886*
X61831Y28728*
X61946Y28413*
Y28098*
X61831Y27783*
X61717Y27626*
X61373Y27469*
X60343*
X61144D02*
X61946Y25736D01*
X62977Y29043D02*
Y25736D01*
Y29043D02*
X63778D01*
X64122Y28886*
X64351Y28571*
X64466Y28256*
X64580Y27783*
Y26996*
X64466Y26524*
X64351Y26209*
X64122Y25894*
X63778Y25736*
X62977*
X65611Y29043D02*
Y25736D01*
X66985*
X70106Y29043D02*
Y25736D01*
Y29043D02*
X71137D01*
X71481Y28886*
X71595Y28728*
X71710Y28413*
Y28098*
X71595Y27783*
X71481Y27626*
X71137Y27469*
X70106*
X70908D02*
X71710Y25736D01*
X72741Y29043D02*
Y25736D01*
Y29043D02*
X74344Y25736D01*
Y29043D02*
Y25736D01*
X75375Y29043D02*
Y25736D01*
X76749*
X80185Y29043D02*
Y25736D01*
Y29043D02*
X81674D01*
X80185Y27469D02*
X81101D01*
X80185Y25736D02*
X81674D01*
X82705Y29043D02*
Y25736D01*
Y29043D02*
X83736D01*
X84079Y28886*
X84194Y28728*
X84308Y28413*
Y28098*
X84194Y27783*
X84079Y27626*
X83736Y27469*
X82705*
X83506D02*
X84308Y25736D01*
X85339Y29043D02*
Y25736D01*
X86713*
X89634Y29043D02*
Y25736D01*
Y29043D02*
X90665D01*
X91008Y28886*
X91123Y28728*
X91237Y28413*
Y27941*
X91123Y27626*
X91008Y27469*
X90665Y27311*
X89634*
X92268Y29043D02*
X92841Y25736D01*
X93413Y29043D02*
X92841Y25736D01*
X93413Y29043D02*
X93986Y25736D01*
X94559Y29043D02*
X93986Y25736D01*
X95589Y29043D02*
Y25736D01*
Y29043D02*
X96620D01*
X96964Y28886*
X97078Y28728*
X97193Y28413*
Y28098*
X97078Y27783*
X96964Y27626*
X96620Y27469*
X95589*
X96391D02*
X97193Y25736D01*
X99713Y29043D02*
Y25736D01*
Y29043D02*
X100743D01*
X101087Y28886*
X101202Y28728*
X101316Y28413*
Y27941*
X101202Y27626*
X101087Y27469*
X100743Y27311*
X99713*
X102347Y29043D02*
X102919Y25736D01*
X103492Y29043D02*
X102919Y25736D01*
X103492Y29043D02*
X104065Y25736D01*
X104637Y29043D02*
X104065Y25736D01*
X105668Y29043D02*
Y25736D01*
Y29043D02*
X106699D01*
X107043Y28886*
X107157Y28728*
X107272Y28413*
Y28098*
X107157Y27783*
X107043Y27626*
X106699Y27469*
X105668*
X106470D02*
X107272Y25736D01*
X109476Y29043D02*
Y25736D01*
Y29043D02*
X110507D01*
X110851Y28886*
X110965Y28728*
X111080Y28413*
Y27941*
X110965Y27626*
X110851Y27469*
X110507Y27311*
X109476*
X112111Y29043D02*
X112683Y25736D01*
X113256Y29043D02*
X112683Y25736D01*
X113256Y29043D02*
X113829Y25736D01*
X114401Y29043D02*
X113829Y25736D01*
X115432Y29043D02*
Y25736D01*
Y29043D02*
X116463D01*
X116806Y28886*
X116921Y28728*
X117035Y28413*
Y28098*
X116921Y27783*
X116806Y27626*
X116463Y27469*
X115432*
X116234D02*
X117035Y25736D01*
X357429Y37218D02*
X357114Y37103D01*
X356799Y36874*
X356642Y36645*
Y36187*
X356799Y35958*
X357114Y35729*
X357429Y35615*
X357902Y35500*
X358689*
X359161Y35615*
X359476Y35729*
X359791Y35958*
X359949Y36187*
Y36645*
X359791Y36874*
X359476Y37103*
X359161Y37218*
X358689*
Y36645D02*
Y37218D01*
X356642Y38249D02*
X359949D01*
X356642D02*
X359949Y39852D01*
X356642D02*
X359949D01*
X356642Y40883D02*
X359949D01*
X356642D02*
Y41685D01*
X356799Y42028*
X357114Y42257*
X357429Y42372*
X357902Y42486*
X358689*
X359161Y42372*
X359476Y42257*
X359791Y42028*
X359949Y41685*
Y40883*
X356642Y45894D02*
X359949Y47497D01*
X356642D02*
X359949Y45894D01*
X356642Y48528D02*
X359949D01*
Y49902*
X356642Y50933D02*
X359949D01*
X356642D02*
Y52422D01*
X358217Y50933D02*
Y51849D01*
X356642Y55657D02*
X359949Y57261D01*
X356642D02*
X359949Y55657D01*
X356642Y58292D02*
X359949D01*
Y59666*
X356642Y60697D02*
X359949D01*
X356642D02*
Y61728D01*
X356799Y62071*
X356957Y62186*
X357272Y62300*
X357587*
X357902Y62186*
X358059Y62071*
X358217Y61728*
Y60697*
Y61499D02*
X359949Y62300D01*
X356642Y65736D02*
X358217Y66652D01*
X359949*
X356642Y67569D02*
X358217Y66652D01*
X356642Y68599D02*
X359949D01*
X359949D02*
Y69974D01*
X356642Y71005D02*
X359949D01*
X356642D02*
Y72494D01*
X358217Y71005D02*
Y71921D01*
X356642Y75500D02*
X358217Y76416D01*
X359949*
X356642Y77332D02*
X358217Y76416D01*
X356642Y78363D02*
X359949D01*
Y79738*
X356642Y80768D02*
X359949D01*
X356642D02*
Y81799D01*
X356799Y82143*
X356957Y82257*
X357272Y82372*
X357587*
X357902Y82257*
X358059Y82143*
X358217Y81799*
Y80768D02*
Y81799D01*
X358374Y82143*
X358531Y82257*
X358846Y82372*
X359319*
X359634Y82257*
X359791Y82143*
X359949Y81799*
Y80768*
X356642Y87497D02*
X359949Y85894D01*
X356642D02*
Y87497D01*
X359949Y85894D02*
Y87497D01*
X356642Y88528D02*
X359949D01*
Y89902*
X356642Y90933D02*
X359949D01*
X356642D02*
Y91735D01*
X356799Y92078*
X357114Y92307*
X357429Y92422*
X357902Y92537*
X358689*
X359161Y92422*
X359476Y92307*
X359791Y92078*
X359949Y91735*
Y90933*
X356642Y97204D02*
X359949Y96287D01*
X356642Y97204D02*
X359949Y98120D01*
X358846Y96631D02*
Y97776D01*
X356642Y99151D02*
X359949D01*
Y100525*
X357272Y101556D02*
X357114Y101785D01*
X356642Y102128*
X359949*
X356642Y106023D02*
X359949Y105106D01*
X356642Y106023D02*
X359949Y106939D01*
X358846Y105450D02*
Y106595D01*
X356642Y107970D02*
X359949D01*
Y109344*
X357429Y110489D02*
X357272D01*
X356957Y110604*
X356799Y110718*
X356642Y110947*
Y111406*
X356799Y111635*
X356957Y111749*
X357272Y111864*
X357587*
X357902Y111749*
X358374Y111520*
X359949Y110375*
Y111978*
X356642Y118650D02*
X359949Y120253D01*
X356642D02*
X359949Y118650D01*
X356642Y122200D02*
X359949Y121284D01*
X356642Y122200D02*
X359949Y123116D01*
X358846Y121627D02*
Y122773D01*
X357272Y124147D02*
X357114Y124376D01*
X356642Y124720*
X359949*
X356642Y127783D02*
X359949Y129387D01*
X356642D02*
X359949Y127783D01*
X356642Y131334D02*
X359949Y130418D01*
X356642Y131334D02*
X359949Y132250D01*
X358846Y130761D02*
Y131907D01*
X357429Y133395D02*
X357272D01*
X356957Y133510*
X356799Y133625*
X356642Y133854*
Y134312*
X356799Y134541*
X356957Y134655*
X357272Y134770*
X357587*
X357902Y134655*
X358374Y134426*
X359949Y133281*
Y134884*
X356642Y137862D02*
X359949Y139466D01*
X356642D02*
X359949Y137862D01*
X356642Y140496D02*
X359949D01*
X356642D02*
Y141527D01*
X356799Y141871*
X356957Y141985*
X357272Y142100*
X357587*
X357902Y141985*
X358059Y141871*
X358217Y141527*
Y140496D02*
Y141527D01*
X358374Y141871*
X358531Y141985*
X358846Y142100*
X359319*
X359634Y141985*
X359791Y141871*
X359949Y141527*
Y140496*
X357429Y143245D02*
X357272D01*
X356957Y143360*
X356799Y143474*
X356642Y143703*
Y144161*
X356799Y144390*
X356957Y144505*
X357272Y144620*
X357587*
X357902Y144505*
X358374Y144276*
X359949Y143131*
Y144734*
X356642Y148571D02*
X359949Y150174D01*
X356642D02*
X359949Y148571D01*
X356642Y151205D02*
X359949D01*
X356642D02*
Y152236D01*
X356799Y152579*
X356957Y152694*
X357272Y152809*
X357587*
X357902Y152694*
X358059Y152579*
X358217Y152236*
Y151205D02*
Y152236D01*
X358374Y152579*
X358531Y152694*
X358846Y152809*
X359319*
X359634Y152694*
X359791Y152579*
X359949Y152236*
Y151205*
X357272Y153839D02*
X357114Y154068D01*
X356642Y154412*
X359949*
X356642Y161799D02*
X358217Y162715D01*
X359949*
X356642Y163632D02*
X358217Y162715D01*
X356642Y165579D02*
X359949Y164662D01*
X356642Y165579D02*
X359949Y166495D01*
X358846Y165006D02*
Y166151D01*
X357272Y167526D02*
X357114Y167755D01*
X356642Y168098*
X359949*
X356642Y170933D02*
X358217Y171849D01*
X359949*
X356642Y172766D02*
X358217Y171849D01*
X356642Y174713D02*
X359949Y173796D01*
X356642Y174713D02*
X359949Y175629D01*
X358846Y174140D02*
Y175285D01*
X357429Y176774D02*
X357272D01*
X356957Y176889*
X356799Y177003*
X356642Y177232*
Y177690*
X356799Y177919*
X356957Y178034*
X357272Y178149*
X357587*
X357902Y178034*
X358374Y177805*
X359949Y176660*
Y178263*
X356642Y181012D02*
X358217Y181928D01*
X359949*
X356642Y182844D02*
X358217Y181928D01*
X356642Y183875D02*
X359949D01*
X356642D02*
Y184906D01*
X356799Y185249*
X356957Y185364*
X357272Y185479*
X357587*
X357902Y185364*
X358059Y185249*
X358217Y184906*
Y183875D02*
Y184906D01*
X358374Y185249*
X358531Y185364*
X358846Y185479*
X359319*
X359634Y185364*
X359791Y185249*
X359949Y184906*
Y183875*
X357429Y186624D02*
X357272D01*
X356957Y186738*
X356799Y186853*
X356642Y187082*
Y187540*
X356799Y187769*
X356957Y187884*
X357272Y187998*
X357587*
X357902Y187884*
X358374Y187655*
X359949Y186509*
Y188113*
X356642Y191720D02*
X358217Y192637D01*
X359949*
X356642Y193553D02*
X358217Y192637D01*
X356642Y194584D02*
X359949D01*
X356642D02*
Y195615D01*
X356799Y195958*
X356957Y196073*
X357272Y196187*
X357587*
X357902Y196073*
X358059Y195958*
X358217Y195615*
Y194584D02*
Y195615D01*
X358374Y195958*
X358531Y196073*
X358846Y196187*
X359319*
X359634Y196073*
X359791Y195958*
X359949Y195615*
Y194584*
X357272Y197218D02*
X357114Y197447D01*
X356642Y197791*
X359949*
X356642Y206867D02*
X359949Y205264D01*
X356642D02*
Y206867D01*
X359949Y205264D02*
Y206867D01*
X356642Y208814D02*
X359949Y207898D01*
X356642Y208814D02*
X359949Y209730D01*
X358846Y208242D02*
Y209387D01*
X357272Y210761D02*
X357114Y210990D01*
X356642Y211334*
X359949*
X356642Y216316D02*
X359949Y214713D01*
X356642D02*
Y216316D01*
X359949Y214713D02*
Y216316D01*
X356642Y218263D02*
X359949Y217347D01*
X356642Y218263D02*
X359949Y219179D01*
X358846Y217690D02*
Y218836D01*
X357429Y220325D02*
X357272D01*
X356957Y220439*
X356799Y220554*
X356642Y220783*
Y221241*
X356799Y221470*
X356957Y221584*
X357272Y221699*
X357587*
X357902Y221584*
X358374Y221355*
X359949Y220210*
Y221814*
X356642Y226395D02*
X359949Y224791D01*
X356642D02*
Y226395D01*
X359949Y224791D02*
Y226395D01*
X356642Y227426D02*
X359949D01*
X356642D02*
Y228456D01*
X356799Y228800*
X356957Y228914*
X357272Y229029*
X357587*
X357902Y228914*
X358059Y228800*
X358217Y228456*
Y227426D02*
Y228456D01*
X358374Y228800*
X358531Y228914*
X358846Y229029*
X359319*
X359634Y228914*
X359791Y228800*
X359949Y228456*
Y227426*
X357429Y230174D02*
X357272D01*
X356957Y230289*
X356799Y230403*
X356642Y230632*
Y231091*
X356799Y231320*
X356957Y231434*
X357272Y231549*
X357587*
X357902Y231434*
X358374Y231205*
X359949Y230060*
Y231663*
X356642Y236788D02*
X359949Y235185D01*
X356642D02*
Y236788D01*
X359949Y235185D02*
Y236788D01*
X356642Y237819D02*
X359949D01*
X356642D02*
Y238850D01*
X356799Y239194*
X356957Y239308*
X357272Y239423*
X357587*
X357902Y239308*
X358059Y239194*
X358217Y238850*
Y237819D02*
Y238850D01*
X358374Y239194*
X358531Y239308*
X358846Y239423*
X359319*
X359634Y239308*
X359791Y239194*
X359949Y238850*
Y237819*
X357272Y240453D02*
X357114Y240683D01*
X356642Y241026*
X359949*
X356642Y249015D02*
X359949Y248098D01*
X356642Y249015D02*
X359949Y249931D01*
X358846Y248442D02*
Y249587D01*
X356642Y251878D02*
X359949Y250962D01*
X356642Y251878D02*
X359949Y252794D01*
X358846Y251305D02*
Y252451D01*
X357272Y253825D02*
X357114Y254054D01*
X356642Y254398*
X359949*
X356642Y258463D02*
X359949Y257547D01*
X356642Y258463D02*
X359949Y259380D01*
X358846Y257891D02*
Y259036D01*
X356642Y261327D02*
X359949Y260411D01*
X356642Y261327D02*
X359949Y262243D01*
X358846Y260754D02*
Y261899D01*
X357429Y263388D02*
X357272D01*
X356957Y263503*
X356799Y263617*
X356642Y263846*
Y264305*
X356799Y264534*
X356957Y264648*
X357272Y264763*
X357587*
X357902Y264648*
X358374Y264419*
X359949Y263274*
Y264877*
X356642Y268542D02*
X359949Y267626D01*
X356642Y268542D02*
X359949Y269458D01*
X358846Y267970D02*
Y269115D01*
X356642Y270489D02*
X359949D01*
X356642D02*
Y271520D01*
X356799Y271864*
X356957Y271978*
X357272Y272093*
X357587*
X357902Y271978*
X358059Y271864*
X358217Y271520*
Y270489D02*
Y271520D01*
X358374Y271864*
X358531Y271978*
X358846Y272093*
X359319*
X359634Y271978*
X359791Y271864*
X359949Y271520*
Y270489*
X357429Y273238D02*
X357272D01*
X356957Y273353*
X356799Y273467*
X356642Y273696*
Y274154*
X356799Y274383*
X356957Y274498*
X357272Y274612*
X357587*
X357902Y274498*
X358374Y274269*
X359949Y273123*
Y274727*
X356642Y279251D02*
X359949Y278335D01*
X356642Y279251D02*
X359949Y280167D01*
X358846Y278678D02*
Y279824D01*
X356642Y281198D02*
X359949D01*
X356642D02*
Y282229D01*
X356799Y282572*
X356957Y282687*
X357272Y282801*
X357587*
X357902Y282687*
X358059Y282572*
X358217Y282229*
Y281198D02*
Y282229D01*
X358374Y282572*
X358531Y282687*
X358846Y282801*
X359319*
X359634Y282687*
X359791Y282572*
X359949Y282229*
Y281198*
X357272Y283832D02*
X357114Y284061D01*
X356642Y284405*
X359949*
G74*
X0Y0D02*
M02*
