*
*
G04 PADS 9.3.1 Build Number: 456998 generated Gerber (RS-274-X) file*
G04 PC Version=2.1*
*
%IN "ShuttleBoxBehavior.pcb"*%
*
%MOIN*%
*
%FSLAX35Y35*%
*
*
*
*
G04 PC Standard Apertures*
*
*
G04 Thermal Relief Aperture macro.*
%AMTER*
1,1,$1,0,0*
1,0,$1-$2,0,0*
21,0,$3,$4,0,0,45*
21,0,$3,$4,0,0,135*
%
*
*
G04 Annular Aperture macro.*
%AMANN*
1,1,$1,0,0*
1,0,$2,0,0*
%
*
*
G04 Odd Aperture macro.*
%AMODD*
1,1,$1,0,0*
1,0,$1-0.005,0,0*
%
*
*
G04 PC Custom Aperture Macros*
*
*
*
*
*
*
G04 PC Aperture Table*
*
%ADD010C,0.001*%
%ADD011C,0.01*%
%ADD012C,0.005*%
*
*
*
*
G04 PC Circuitry*
G04 Layer Name ShuttleBoxBehavior.pcb - circuitry*
%LPD*%
*
*
G04 PC Custom Flashes*
G04 Layer Name ShuttleBoxBehavior.pcb - flashes*
%LPD*%
*
*
G04 PC Circuitry*
G04 Layer Name ShuttleBoxBehavior.pcb - circuitry*
%LPD*%
*
G54D10*
G01X260000Y50781D02*
Y47500D01*
Y50781D02*
X258977D01*
X258636Y50625*
X258523Y50469*
X258409Y50156*
Y49844*
X258523Y49531*
X258636Y49375*
X258977Y49219*
X260000*
X259205D02*
X258409Y47500D01*
X257273Y50000D02*
Y50156D01*
X257159Y50469*
X257045Y50625*
X256818Y50781*
X256364*
X256136Y50625*
X256023Y50469*
X255909Y50156*
Y49844*
X256023Y49531*
X256250Y49063*
X256250D02*
X257386Y47500D01*
X255795*
X208295Y157500D02*
X208409Y157813D01*
X208409D02*
X208636Y158125D01*
X208864Y158281*
X209318*
X209545Y158125*
X209773Y157813*
X209773D02*
X209886Y157500D01*
X210000Y157031*
Y156250*
X209886Y155781*
X209773Y155469*
X209545Y155156*
X209318Y155000*
X208864*
X208636Y155156*
X208409Y155469*
X208295Y155781*
X207273Y157656D02*
X207045Y157813D01*
X207045D02*
X206705Y158281D01*
Y155000*
X223750Y149531D02*
Y147188D01*
X223750D02*
X223636Y146719D01*
X223409Y146406*
X223068Y146250*
X222841*
X222500Y146406*
X222273Y146719*
X222159Y147188*
X222159D02*
Y149531D01*
X220568D02*
X220909Y149375D01*
X221023Y149063*
X221023D02*
Y148750D01*
X220909Y148438*
X220909D02*
X220682Y148281D01*
X220227Y148125*
X219886Y147969*
X219659Y147656*
X219545Y147344*
Y146875*
X219659Y146563*
X219659D02*
X219773Y146406D01*
X220114Y146250*
X220568*
X220909Y146406*
X221023Y146563*
X221023D02*
X221136Y146875D01*
Y147344*
X221023Y147656*
X220795Y147969*
X220455Y148125*
X220000Y148281*
X219773Y148438*
X219773D02*
X219659Y148750D01*
Y149063*
X219659D02*
X219773Y149375D01*
X220114Y149531*
X220568*
X193295Y76250D02*
X193409Y76563D01*
X193636Y76875*
X193864Y77031*
X194318*
X194545Y76875*
X194773Y76563*
X194886Y76250*
X195000Y75781*
Y75000*
X194886Y74531*
X194773Y74219*
X194545Y73906*
X194318Y73750*
X193864*
X193636Y73906*
X193409Y74219*
X193295Y74531*
X192159Y76250D02*
Y76406D01*
X192045Y76719*
X191932Y76875*
X191705Y77031*
X191250*
X191023Y76875*
X190909Y76719*
X190795Y76406*
Y76094*
X190909Y75781*
X191136Y75313*
X192273Y73750*
X190682*
X268295Y156250D02*
X268409Y156563D01*
X268409D02*
X268636Y156875D01*
X268864Y157031*
X269318*
X269545Y156875*
X269773Y156563*
X269773D02*
X269886Y156250D01*
X270000Y155781*
Y155000*
X269886Y154531*
X269773Y154219*
X269545Y153906*
X269318Y153750*
X268864*
X268636Y153906*
X268409Y154219*
X268295Y154531*
X266136Y157031D02*
X267273Y154844D01*
X265568*
X266136Y157031D02*
Y153750D01*
X193295Y61250D02*
X193409Y61563D01*
X193636Y61875*
X193864Y62031*
X194318*
X194545Y61875*
X194773Y61563*
X194886Y61250*
X195000Y60781*
Y60000*
X194886Y59531*
X194773Y59219*
X194545Y58906*
X194318Y58750*
X193864*
X193636Y58906*
X193409Y59219*
X193295Y59531*
X192045Y62031D02*
X190795D01*
X191477Y60781*
X191136*
X190909Y60625*
X190795Y60469*
X190682Y60000*
Y59688*
X190795Y59219*
X191023Y58906*
X191364Y58750*
X191705*
X192045Y58906*
X192159Y59063*
X192273Y59375*
X172045Y7500D02*
X172159Y7813D01*
X172159D02*
X172386Y8125D01*
X172614Y8281*
X173068*
X173295Y8125*
X173523Y7813*
X173523D02*
X173636Y7500D01*
X173750Y7031*
Y6250*
X173636Y5781*
X173523Y5469*
X173295Y5156*
X173068Y5000*
X172614*
X172386Y5156*
X172159Y5469*
X172045Y5781*
X170455Y7188D02*
X170682Y7031D01*
X170909Y6719*
X171023Y6250*
Y5938*
X171023D02*
X170909Y5469D01*
X170682Y5156*
X170455Y5000*
X170114*
X169886Y5156*
X169659Y5469*
X169545Y5938*
X169545D02*
Y6250D01*
X169659Y6719*
X169886Y7031*
X170114Y7188*
X170114D02*
X170455D01*
X168523D02*
Y5000D01*
Y6250D02*
X168409Y6719D01*
X168182Y7031*
X167955Y7188*
X167955D02*
X167614D01*
X166591D02*
X166136Y5000D01*
X165682Y7188D02*
X166136Y5000D01*
X165682Y7188D02*
X165227Y5000D01*
X164773Y7188D02*
X165227Y5000D01*
X163750Y8281D02*
X163636Y8125D01*
X163523Y8281*
X163636Y8438*
X163636D02*
X163750Y8281D01*
X163636Y7188D02*
Y5000D01*
X162500Y7188D02*
Y5000D01*
Y6563D02*
X162159Y7031D01*
X161932Y7188*
X161932D02*
X161591D01*
X161591D02*
X161364Y7031D01*
X161250Y6563*
X161250D02*
Y5000D01*
X157614Y8281D02*
Y5000D01*
Y8281D02*
X156591D01*
X156250Y8125*
X156136Y7969*
X156023Y7656*
Y7188*
X156023D02*
X156136Y6875D01*
X156250Y6719*
X156591Y6563*
X156591D02*
X157614D01*
X155000Y6250D02*
X153636D01*
Y6563*
X153636D02*
X153750Y6875D01*
X153864Y7031*
X154091Y7188*
X154091D02*
X154432D01*
X154432D02*
X154659Y7031D01*
X154886Y6719*
X155000Y6250*
Y5938*
X155000D02*
X154886Y5469D01*
X154659Y5156*
X154432Y5000*
X154091*
X153864Y5156*
X153636Y5469*
X152614Y7188D02*
Y5000D01*
Y6250D02*
X152500Y6719D01*
X152273Y7031*
X152045Y7188*
X152045D02*
X151705D01*
X150682D02*
Y5000D01*
Y6250D02*
X150568Y6719D01*
X150341Y7031*
X150114Y7188*
X150114D02*
X149773D01*
X148750Y6250D02*
X147386D01*
Y6563*
X147386D02*
X147500Y6875D01*
X147614Y7031*
X147841Y7188*
X147841D02*
X148182D01*
X148182D02*
X148409Y7031D01*
X148636Y6719*
X148750Y6250*
Y5938*
X148750D02*
X148636Y5469D01*
X148409Y5156*
X148182Y5000*
X147841*
X147614Y5156*
X147386Y5469*
X146364Y7188D02*
Y5000D01*
Y6563D02*
X146023Y7031D01*
X145795Y7188*
X145795D02*
X145455D01*
X145455D02*
X145227Y7031D01*
X145114Y6563*
X145114D02*
Y5000D01*
X141477Y6406D02*
X139432D01*
X134659Y8281D02*
X135795Y6094D01*
X134091*
X134659Y8281D02*
Y5000D01*
X131023Y8906D02*
X133068Y3906D01*
X129886Y7500D02*
Y7656D01*
X129773Y7969*
X129659Y8125*
X129432Y8281*
X128977*
X128750Y8125*
X128636Y7969*
X128523Y7656*
Y7344*
X128636Y7031*
X128864Y6563*
X128864D02*
X130000Y5000D01*
X128409*
X125341Y8906D02*
X127386Y3906D01*
X124318Y7656D02*
X124091Y7813D01*
X124091D02*
X123750Y8281D01*
Y5000*
X121591Y8281D02*
X122727Y6094D01*
X121023*
X121591Y8281D02*
Y5000D01*
G54D11*
X259950Y46000D02*
X265750D01*
Y39000*
X259950*
X257550Y46000D02*
X251750D01*
Y39000*
X257550*
X207450Y152250D02*
X213250D01*
Y145250*
X207450*
X205050Y152250D02*
X199250D01*
Y145250*
X205050*
X208800Y72750D02*
X203000D01*
Y79750*
X208800*
X211200Y72750D02*
X217000D01*
Y79750*
X211200*
X262500Y142500D02*
Y150550D01*
X272500*
Y142500*
X262500Y135000D02*
Y126950D01*
X272500*
Y135000*
X206250Y54250D02*
X198200D01*
Y68250*
X206250*
X213750Y54250D02*
X221800D01*
Y68250*
X213750*
G54D12*
X201250Y33281D02*
Y30938D01*
X201250D02*
X201136Y30469D01*
X200909Y30156*
X200568Y30000*
X200341*
X200000Y30156*
X199773Y30469*
X199659Y30938*
X199659D02*
Y33281D01*
X198523Y32500D02*
Y32656D01*
X198409Y32969*
X198295Y33125*
X198068Y33281*
X197614*
X197386Y33125*
X197273Y32969*
X197159Y32656*
Y32344*
X197273Y32031*
X197500Y31563*
X197500D02*
X198636Y30000D01*
X197045*
X250909Y34063D02*
X251136Y34375D01*
X251477Y34531*
X251932*
X252273Y34375*
X252500Y34063*
X252500D02*
Y33750D01*
X252386Y33438*
X252386D02*
X252273Y33281D01*
X252045Y33125*
X251364Y32813*
X251364D02*
X251136Y32656D01*
X251023Y32500*
X250909Y32188*
X250909D02*
Y31719D01*
X251136Y31406*
X251477Y31250*
X251932*
X252273Y31406*
X252500Y31719*
X249886Y33906D02*
X249659Y34063D01*
X249659D02*
X249318Y34531D01*
Y31250*
X345000Y115781D02*
Y113437D01*
X345000D02*
X344886Y112969D01*
X344659Y112656*
X344318Y112500*
X344091*
X343750Y112656*
X343523Y112969*
X343409Y113437*
X343409D02*
Y115781D01*
X340795Y115312D02*
X341023Y115625D01*
X341364Y115781*
X341818*
X342159Y115625*
X342386Y115312*
X342386D02*
Y115000D01*
X342273Y114687*
X342273D02*
X342159Y114531D01*
X341932Y114375*
X341250Y114062*
X341250D02*
X341023Y113906D01*
X340909Y113750*
X340795Y113437*
X340795D02*
Y112969D01*
X341023Y112656*
X341364Y112500*
X341818*
X342159Y112656*
X342386Y112969*
X339773Y115781D02*
Y112500D01*
Y115781D02*
X338750D01*
X338409Y115625*
X338295Y115469*
X338182Y115156*
Y114844*
X338295Y114531*
X338409Y114375*
X338750Y114219*
X339773D02*
X338750D01*
X338409Y114062*
X338409D02*
X338295Y113906D01*
X338182Y113594*
Y113125*
X338295Y112812*
X338295D02*
X338409Y112656D01*
X338750Y112500*
X339773*
X337159Y115156D02*
X336932Y115312D01*
X336932D02*
X336591Y115781D01*
Y112500*
X343864Y167031D02*
Y164531D01*
X343977Y164062*
X343977D02*
X344091Y163906D01*
X344318Y163750*
X344545*
X344773Y163906*
X344886Y164062*
X344886D02*
X345000Y164531D01*
Y164844*
X342614Y167031D02*
X341364D01*
X342045Y165781*
X341705*
X341477Y165625*
X341364Y165469*
X341250Y165000*
Y164687*
X341250D02*
X341364Y164219D01*
X341591Y163906*
X341932Y163750*
X342273*
X342614Y163906*
X342727Y164062*
X342727D02*
X342841Y164375D01*
X155344Y152779D02*
Y150436D01*
X155231Y149967*
X155004Y149654*
X154663Y149498*
X154435*
X154094Y149654*
X153867Y149967*
X153754Y150436*
Y152779*
X152731Y152154D02*
X152504Y152311D01*
X152163Y152779*
Y149498*
X150458Y152779D02*
X150799Y152623D01*
X151026Y152154*
X151140Y151373*
Y150904*
X151026Y150123*
X150799Y149654*
X150458Y149498*
X150231*
X149890Y149654*
X149663Y150123*
X149549Y150904*
Y151373*
X149663Y152154*
X149890Y152623*
X150231Y152779*
X150458*
X0Y0D02*
M02*
