%
T1C.035F197S550
X004000Y006000
X004000Y007000
X004000Y008000
X021000Y002000
X021000Y003000
X022000Y003000
X022000Y002000
X023000Y002000
X023000Y003000
X029000Y007984
X029000Y007000
X029787Y007984
X029787Y007000
X004000Y009000
X004000Y012000
X004000Y013000
X004000Y011000
X004000Y014000
X014500Y023700
X015500Y023700
X016500Y023700
T2C.037F197S550
X009875Y002500
X009875Y003750
X010625Y001250
X011500Y000625
X012625Y004250
X014000Y004500
X014500Y003625
X014875Y002500
X014875Y004500
X016000Y002500
X017375Y004625
X017500Y001875
X018500Y005000
X019250Y003375
X019875Y003125
X020750Y004375
X023625Y009125
X021375Y009625
X020000Y007000
X016625Y005875
X016375Y009750
X015625Y006500
X015000Y005875
X014875Y009125
X012250Y008000
X008625Y008250
X011500Y013125
X012125Y012375
X013125Y015250
X016125Y015250
X019250Y011125
X019625Y010625
X021375Y011750
X024875Y014875
X026125Y012375
X023250Y017000
X018125Y019000
X016625Y018500
X016250Y019000
X015875Y017250
X015500Y018125
X015250Y019625
X012875Y019000
X010625Y016250
X007000Y018750
X018750Y023125
T3C.04724F139S550
X004025Y016781
X004025Y018750
X011469Y023700
X009500Y023700
X007469Y023700
X005500Y023700
T4C.09843F066S550
X030850Y005122
X030850Y009862
T5C.125F035S794
X002000Y002000
X033000Y002000
X033000Y023000
X002000Y023000
T6C.13386F035S794
X030431Y013150
X031612Y015000
T7C.14961F035S900
X029250Y015000
M30
