*
*
G04 PADS 9.3.1 Build Number: 456998 generated Gerber (RS-274-X) file*
G04 PC Version=2.1*
*
%IN "ShuttleBoxBehavior.pcb"*%
*
%MOIN*%
*
%FSLAX35Y35*%
*
*
*
*
G04 PC Standard Apertures*
*
*
G04 Thermal Relief Aperture macro.*
%AMTER*
1,1,$1,0,0*
1,0,$1-$2,0,0*
21,0,$3,$4,0,0,45*
21,0,$3,$4,0,0,135*
%
*
*
G04 Annular Aperture macro.*
%AMANN*
1,1,$1,0,0*
1,0,$2,0,0*
%
*
*
G04 Odd Aperture macro.*
%AMODD*
1,1,$1,0,0*
1,0,$1-0.005,0,0*
%
*
*
G04 PC Custom Aperture Macros*
*
*
*
*
*
*
G04 PC Aperture Table*
*
%ADD010C,0.001*%
%ADD042R,0.048X0.04*%
%ADD051C,0.07*%
%ADD053R,0.07X0.07*%
%ADD055C,0.15173*%
%ADD148R,0.09268X0.06118*%
%ADD172C,0.135*%
%ADD177C,0.20685*%
%ADD187C,0.08087*%
%ADD188R,0.04937X0.08087*%
%ADD189R,0.07X0.11*%
%ADD190R,0.04937X0.13441*%
*
*
*
*
G04 PC Circuitry*
G04 Layer Name ShuttleBoxBehavior.pcb - circuitry*
%LPD*%
*
*
G04 PC Custom Flashes*
G04 Layer Name ShuttleBoxBehavior.pcb - flashes*
%LPD*%
*
*
G04 PC Circuitry*
G04 Layer Name ShuttleBoxBehavior.pcb - circuitry*
%LPD*%
*
G54D10*
G54D42*
G01X261850Y42500D03*
X255650D03*
X209350Y148750D03*
X203150D03*
X206900Y76250D03*
X213100D03*
G54D51*
X230000Y20000D03*
Y30000D03*
X220000Y20000D03*
Y30000D03*
X210000Y20000D03*
X145000Y237000D03*
X155000D03*
X165000D03*
X290000Y70000D03*
Y79843D03*
X297874D03*
Y70000D03*
X40000Y110000D03*
Y120000D03*
Y130000D03*
Y140000D03*
Y60000D03*
Y70000D03*
Y80000D03*
Y90000D03*
G54D53*
X210000Y30000D03*
X267500Y145500D03*
Y132000D03*
G54D55*
X308504Y98622D03*
Y51220D03*
G54D148*
X264173Y27795D03*
X300000D03*
X264173Y10000D03*
X300000D03*
G54D172*
X20000Y230000D03*
X330000D03*
Y20000D03*
X20000D03*
G54D177*
X292500Y150000D03*
X316122D03*
X304311Y131496D03*
G54D187*
X40250Y187500D03*
Y167815D03*
X55000Y237000D03*
X74685D03*
X95000D03*
X114685D03*
G54D188*
X242500Y93750D03*
X202500D03*
X242500Y137136D03*
X232500D03*
X212500D03*
X202500D03*
G54D189*
X203250Y61250D03*
X216750D03*
G54D190*
X161250Y133750D03*
X141250D03*
X131250D03*
X121250D03*
Y162254D03*
X131250D03*
X141250D03*
X161250D03*
X0Y0D02*
M02*
