*
*
G04 PADS 9.3.1 Build Number: 456998 generated Gerber (RS-274-X) file*
G04 PC Version=2.1*
*
%IN "ShuttleBoxBehavior.pcb"*%
*
%MOIN*%
*
%FSLAX35Y35*%
*
*
*
*
G04 PC Standard Apertures*
*
*
G04 Thermal Relief Aperture macro.*
%AMTER*
1,1,$1,0,0*
1,0,$1-$2,0,0*
21,0,$3,$4,0,0,45*
21,0,$3,$4,0,0,135*
%
*
*
G04 Annular Aperture macro.*
%AMANN*
1,1,$1,0,0*
1,0,$2,0,0*
%
*
*
G04 Odd Aperture macro.*
%AMODD*
1,1,$1,0,0*
1,0,$1-0.005,0,0*
%
*
*
G04 PC Custom Aperture Macros*
*
*
*
*
*
*
G04 PC Aperture Table*
*
%ADD010C,0.001*%
%ADD042R,0.048X0.04*%
%ADD048R,0.04X0.048*%
%ADD051C,0.07*%
%ADD059R,0.08087X0.02772*%
%ADD148R,0.09268X0.06118*%
%ADD163R,0.06906X0.03165*%
%ADD164R,0.03165X0.06906*%
%ADD166R,0.06906X0.03362*%
%ADD172C,0.135*%
%ADD173R,0.06512X0.02575*%
%ADD174C,0.16748*%
%ADD175R,0.04346X0.02575*%
%ADD187C,0.08087*%
*
*
*
*
G04 PC Circuitry*
G04 Layer Name ShuttleBoxBehavior.pcb - circuitry*
%LPD*%
*
*
G04 PC Custom Flashes*
G04 Layer Name ShuttleBoxBehavior.pcb - flashes*
%LPD*%
*
*
G04 PC Circuitry*
G04 Layer Name ShuttleBoxBehavior.pcb - circuitry*
%LPD*%
*
G54D10*
G54D42*
G01X231900Y67500D03*
X238100D03*
Y57500D03*
X231900D03*
X128100Y195000D03*
X121900D03*
Y185000D03*
X128100D03*
X91900Y82500D03*
X98100D03*
Y72500D03*
X91900D03*
X109400Y82500D03*
X115600D03*
Y72500D03*
X109400D03*
G54D48*
X115000Y21900D03*
Y28100D03*
X262500Y84400D03*
Y90600D03*
X80000Y43100D03*
Y36900D03*
Y25600D03*
Y19400D03*
X77500Y163100D03*
Y156900D03*
Y138100D03*
Y131900D03*
Y113100D03*
Y106900D03*
X70000Y36900D03*
Y43100D03*
Y19400D03*
Y25600D03*
X87500Y156900D03*
Y163100D03*
Y131900D03*
Y138100D03*
Y106900D03*
Y113100D03*
X183750Y20650D03*
Y26850D03*
X192500Y20650D03*
Y26850D03*
G54D51*
X230000Y20000D03*
Y30000D03*
X220000Y20000D03*
Y30000D03*
X210000Y20000D03*
Y30000D03*
X145000Y237000D03*
X155000D03*
X165000D03*
X290000Y70000D03*
Y79843D03*
X297874D03*
Y70000D03*
X308504Y98622D03*
Y51220D03*
X40000Y110000D03*
Y120000D03*
Y130000D03*
Y140000D03*
Y60000D03*
Y70000D03*
Y80000D03*
Y90000D03*
G54D59*
X221024Y111634D03*
Y109075D03*
Y106516D03*
Y103957D03*
Y101398D03*
Y98839D03*
Y96280D03*
Y93720D03*
Y91161D03*
Y88602D03*
Y86043D03*
Y83484D03*
Y80925D03*
Y78366D03*
X248976D03*
Y80925D03*
Y83484D03*
Y86043D03*
Y88602D03*
Y91161D03*
Y93720D03*
Y96280D03*
Y98839D03*
Y101398D03*
Y103957D03*
Y106516D03*
Y109075D03*
Y111634D03*
G54D148*
X232827Y193795D03*
X197000D03*
X232827Y176000D03*
X197000D03*
X232827Y233795D03*
X197000D03*
X232827Y216000D03*
X197000D03*
G54D163*
X133268Y46024D03*
Y42874D03*
Y39724D03*
Y36575D03*
Y33425D03*
Y30276D03*
Y27126D03*
Y23976D03*
X166732D03*
Y27126D03*
Y30276D03*
Y33425D03*
Y36575D03*
Y39724D03*
Y42874D03*
Y46024D03*
G54D164*
X138976Y18268D03*
X142126D03*
X145276D03*
X148425D03*
X151575D03*
X154724D03*
X157874D03*
X161024D03*
Y51732D03*
X157874D03*
X154724D03*
X151575D03*
X148425D03*
X145276D03*
X142126D03*
X138976D03*
G54D166*
X98130Y182500D03*
Y187500D03*
Y192500D03*
Y197500D03*
X76870D03*
Y192500D03*
Y187500D03*
Y182500D03*
G54D172*
X20000Y230000D03*
X330000D03*
Y20000D03*
X20000D03*
G54D173*
X105000D03*
Y24724D03*
Y29449D03*
G54D174*
X292500Y150000D03*
X316122D03*
X304311Y131496D03*
G54D175*
X148366Y192559D03*
Y190000D03*
Y187441D03*
X156634D03*
Y190000D03*
Y192559D03*
G54D187*
X40250Y187500D03*
Y167815D03*
X55000Y237000D03*
X74685D03*
X95000D03*
X114685D03*
X0Y0D02*
M02*
