%
T1C.035F197S550
X123531Y175500
X123531Y176500
X123531Y177500
X123531Y178500
X123531Y179500
X123531Y180500
X123531Y181500
X123531Y182500
X123000Y186500
X122000Y186500
X123000Y187500
X122000Y187500
X123000Y188500
X122000Y188500
X123000Y189500
X122000Y189500
X123000Y190500
X122000Y190500
X123000Y191500
X122000Y191500
X123000Y192500
X122000Y192500
X123000Y193500
X122000Y193500
X123000Y194500
X122000Y194500
X123000Y195500
X122000Y195500
X123000Y196500
X122000Y196500
X123000Y197500
X122000Y197500
X124213Y204000
X124213Y204984
X125000Y204984
X125000Y204000
X129000Y196000
X129000Y195000
X129000Y194000
X128469Y182500
X128469Y181500
X128469Y180500
X128469Y179500
X128469Y178500
X128469Y177500
X128469Y176500
X128469Y175500
X132531Y175500
X132531Y176500
X132531Y177500
X132531Y178500
X132531Y179500
X132531Y180500
X132531Y181500
X132531Y182500
X130000Y194000
X130000Y195000
X130000Y196000
X137469Y182500
X137469Y181500
X137469Y180500
X137469Y179500
X137469Y178500
X137469Y177500
X137469Y176500
X137469Y175500
X148531Y175500
X148531Y176500
X148531Y177500
X148531Y178500
X148531Y179500
X148531Y180500
X148531Y181500
X148531Y182500
X153469Y182500
X153469Y181500
X153469Y180500
X153469Y179500
X153469Y178500
X153469Y177500
X153469Y176500
X153469Y175500
X157531Y175500
X162469Y175500
X162469Y176500
X157531Y176500
X157531Y177500
X162469Y177500
X157531Y178500
X162469Y178500
X162469Y179500
X157531Y179500
X162469Y180500
X157531Y180500
X162469Y181500
X157531Y181500
X162469Y182500
X157531Y182500
X163000Y191217
X163000Y193500
T2C.037F197S550
X129000Y184800
X128950Y189300
X129350Y190200
X124100Y190900
X124250Y192000
X128800Y203350
X129400Y203700
X128400Y204900
X128800Y207300
X126150Y209900
X135150Y209900
X132250Y194050
X130750Y192200
X129550Y192050
X136000Y192000
X131200Y190200
X138200Y171700
X138200Y189300
X137750Y190050
X137250Y191050
X138800Y191800
X138150Y191800
X137700Y192450
X139100Y193150
X138650Y193600
X138650Y194250
X137800Y194500
X138350Y195300
X139150Y195900
X138300Y196550
X138750Y198800
X139200Y202650
X137500Y205200
X140850Y210650
X144150Y209900
X142300Y205300
X141300Y204850
X141900Y204700
X142750Y204700
X143650Y203400
X143200Y202950
X144000Y201950
X139800Y201550
X142300Y201300
X141800Y197300
X143000Y196850
X142250Y196800
X140750Y196700
X143300Y195400
X143950Y195400
X141250Y195400
X141800Y195050
X140600Y195000
X141800Y193700
X141150Y193450
X141750Y192950
X140700Y191800
X140600Y191150
X142400Y190650
X143750Y190650
X143100Y190650
X141650Y190600
X142400Y189300
X142800Y188800
X143650Y188800
X144100Y186950
X142200Y186600
X141800Y175500
X143550Y175100
X144200Y173000
X144850Y175800
X145650Y176200
X146050Y176750
X146800Y177750
X145250Y179850
X146750Y180900
X144500Y185800
X144500Y188250
X144750Y188900
X146700Y191700
X145400Y191800
X146700Y192700
X145300Y192700
X145150Y193550
X146700Y193650
X146700Y194350
X145250Y194400
X144500Y194900
X145900Y195900
X144700Y196750
X144550Y197450
X144600Y201550
X147100Y195300
X147900Y195250
X147550Y194700
X148200Y194300
X147150Y193150
X147100Y192200
X148100Y190650
X151850Y189900
X151950Y189150
X151300Y189050
X149600Y188000
X147250Y181750
X147250Y180250
X149400Y179250
X147750Y177150
X155600Y188000
X153850Y189550
X152550Y190300
X160850Y196000
X161250Y196500
X161950Y196550
X158300Y196800
X153300Y203150
X162300Y206750
X163100Y200000
X171000Y193850
X171000Y189850
X162350Y188000
X171000Y185850
X171000Y173850
X166850Y173000
X162700Y172600
X172500Y175850
T3C.03937F197S550
X123000Y171000
X124969Y171000
X126937Y171000
X128906Y171000
X123000Y212000
X124969Y212000
X128906Y212000
X126937Y212000
X132000Y212000
X133969Y212000
X135937Y212000
X133969Y171000
X132000Y171000
X135937Y171000
X137906Y171000
X141000Y171000
X142969Y171000
X137906Y212000
X142969Y212000
X141000Y212000
X144937Y212000
X146906Y212000
X150000Y212000
X151969Y212000
X144937Y171000
X148000Y171000
X149969Y171000
X151937Y171000
X153906Y171000
X157000Y171000
X158969Y171000
X160937Y171000
X155906Y212000
X161969Y212000
X160000Y212000
X153937Y212000
X165000Y212000
X166969Y212000
X166000Y171000
X162906Y171000
X167969Y171000
X173000Y173000
X173000Y174969
X173000Y177000
X173000Y178969
X173000Y181000
X173000Y182969
X173000Y185000
X173000Y186969
X173000Y189000
X173000Y190969
X173000Y193000
X173000Y194969
X173000Y197000
X173000Y198969
X173000Y201000
X173000Y202969
X173000Y205000
X173000Y206969
X173000Y209000
X173000Y210969
T4C.09843F066S550
X123150Y202122
X123150Y206862
T5C.13386F035S794
X134000Y186500
X134500Y206000
X164000Y209000
X168000Y180500
T6C.1378F035S794
X167300Y183850
X167100Y203400
M30
