*
*
G04 PADS 9.3.1 Build Number: 456998 generated Gerber (RS-274-X) file*
G04 PC Version=2.1*
*
%IN "Mega2560DriverBoard.pcb"*%
*
%MOIN*%
*
%FSLAX35Y35*%
*
*
*
*
G04 PC Standard Apertures*
*
*
G04 Thermal Relief Aperture macro.*
%AMTER*
1,1,$1,0,0*
1,0,$1-$2,0,0*
21,0,$3,$4,0,0,45*
21,0,$3,$4,0,0,135*
%
*
*
G04 Annular Aperture macro.*
%AMANN*
1,1,$1,0,0*
1,0,$2,0,0*
%
*
*
G04 Odd Aperture macro.*
%AMODD*
1,1,$1,0,0*
1,0,$1-0.005,0,0*
%
*
*
G04 PC Custom Aperture Macros*
*
*
*
*
*
*
G04 PC Aperture Table*
*
%ADD010C,0.001*%
%ADD011C,0.01*%
%ADD041R,0.02575X0.06512*%
%ADD042R,0.048X0.04*%
%ADD043C,0.07693*%
%ADD044R,0.06X0.03*%
%ADD045R,0.10843X0.0474*%
%ADD046R,0.12024X0.0415*%
%ADD047R,0.08677X0.04346*%
%ADD048R,0.04X0.048*%
%ADD049R,0.48992X0.13303*%
%ADD050R,0.13795X0.08283*%
%ADD051C,0.07*%
%ADD052R,0.07693X0.07693*%
%ADD053R,0.07X0.07*%
%ADD054R,0.06118X0.09268*%
%ADD055C,0.15173*%
%ADD056R,0.06906X0.02181*%
%ADD057R,0.02181X0.06906*%
%ADD058R,0.03362X0.06906*%
%ADD059R,0.08087X0.02772*%
*
*
*
*
G04 PC Circuitry*
G04 Layer Name Mega2560DriverBoard.pcb - circuitry*
%LPD*%
*
*
G04 PC Custom Flashes*
G04 Layer Name Mega2560DriverBoard.pcb - flashes*
%LPD*%
*
*
G04 PC Circuitry*
G04 Layer Name Mega2560DriverBoard.pcb - circuitry*
%LPD*%
*
G54D10*
G54D11*
G01X1504606Y2042283D02*
Y2077717D01*
X1508543Y2081654*
X1543976*
X1547913Y2077717*
Y2042283*
X1543976Y2038346*
X1508543*
X1504606Y2042283*
X1507890Y2039000D02*
X1544630D01*
X1506890Y2040000D02*
X1545630D01*
X1505890Y2041000D02*
X1546630D01*
X1504890Y2042000D02*
X1547630D01*
X1504606Y2043000D02*
X1547913D01*
X1504606Y2044000D02*
X1547913D01*
X1504606Y2045000D02*
X1547913D01*
X1504606Y2046000D02*
X1547913D01*
X1504606Y2047000D02*
X1547913D01*
X1504606Y2048000D02*
X1547913D01*
X1504606Y2049000D02*
X1547913D01*
X1504606Y2050000D02*
X1547913D01*
X1504606Y2051000D02*
X1547913D01*
X1504606Y2052000D02*
X1547913D01*
X1504606Y2053000D02*
X1547913D01*
X1504606Y2054000D02*
X1547913D01*
X1504606Y2055000D02*
X1547913D01*
X1504606Y2056000D02*
X1547913D01*
X1504606Y2057000D02*
X1547913D01*
X1504606Y2058000D02*
X1547913D01*
X1504606Y2059000D02*
X1547913D01*
X1504606Y2060000D02*
X1547913D01*
X1504606Y2061000D02*
X1547913D01*
X1504606Y2062000D02*
X1547913D01*
X1504606Y2063000D02*
X1547913D01*
X1504606Y2064000D02*
X1547913D01*
X1504606Y2065000D02*
X1547913D01*
X1504606Y2066000D02*
X1547913D01*
X1504606Y2067000D02*
X1547913D01*
X1504606Y2068000D02*
X1547913D01*
X1504606Y2069000D02*
X1547913D01*
X1504606Y2070000D02*
X1547913D01*
X1504606Y2071000D02*
X1547913D01*
X1504606Y2072000D02*
X1547913D01*
X1504606Y2073000D02*
X1547913D01*
X1504606Y2074000D02*
X1547913D01*
X1504606Y2075000D02*
X1547913D01*
X1504606Y2076000D02*
X1547913D01*
X1504606Y2077000D02*
X1547913D01*
X1504890Y2078000D02*
X1547630D01*
X1505890Y2079000D02*
X1546630D01*
X1506890Y2080000D02*
X1545630D01*
X1507890Y2081000D02*
X1544630D01*
X1505000Y2041890D02*
Y2078110D01*
X1506000Y2040890D02*
Y2079110D01*
X1507000Y2039890D02*
Y2080110D01*
X1508000Y2038890D02*
Y2081110D01*
X1509000Y2038346D02*
Y2081654D01*
X1510000Y2038346D02*
Y2081654D01*
X1511000Y2038346D02*
Y2081654D01*
X1512000Y2038346D02*
Y2081654D01*
X1513000Y2038346D02*
Y2081654D01*
X1514000Y2038346D02*
Y2081654D01*
X1515000Y2038346D02*
Y2081654D01*
X1516000Y2038346D02*
Y2081654D01*
X1517000Y2038346D02*
Y2081654D01*
X1518000Y2038346D02*
Y2081654D01*
X1519000Y2038346D02*
Y2081654D01*
X1520000Y2038346D02*
Y2081654D01*
X1521000Y2038346D02*
Y2081654D01*
X1522000Y2038346D02*
Y2081654D01*
X1523000Y2038346D02*
Y2081654D01*
X1524000Y2038346D02*
Y2081654D01*
X1525000Y2038346D02*
Y2081654D01*
X1526000Y2038346D02*
Y2081654D01*
X1527000Y2038346D02*
Y2081654D01*
X1528000Y2038346D02*
Y2081654D01*
X1529000Y2038346D02*
Y2081654D01*
X1530000Y2038346D02*
Y2081654D01*
X1531000Y2038346D02*
Y2081654D01*
X1532000Y2038346D02*
Y2081654D01*
X1533000Y2038346D02*
Y2081654D01*
X1534000Y2038346D02*
Y2081654D01*
X1535000Y2038346D02*
Y2081654D01*
X1536000Y2038346D02*
Y2081654D01*
X1537000Y2038346D02*
Y2081654D01*
X1538000Y2038346D02*
Y2081654D01*
X1539000Y2038346D02*
Y2081654D01*
X1540000Y2038346D02*
Y2081654D01*
X1541000Y2038346D02*
Y2081654D01*
X1542000Y2038346D02*
Y2081654D01*
X1543000Y2038346D02*
Y2081654D01*
X1544000Y2038370D02*
Y2081630D01*
X1545000Y2039370D02*
Y2080630D01*
X1546000Y2040370D02*
Y2079630D01*
X1547000Y2041370D02*
Y2078630D01*
G54D41*
X1415000Y1875000D03*
X1419724D03*
X1424449D03*
G54D42*
X1416900Y1885000D03*
X1423100D03*
X1446900Y2100000D03*
X1453100D03*
X1536900D03*
X1543100D03*
X1413100D03*
X1406900D03*
X1323100D03*
X1316900D03*
X1233100D03*
X1226900D03*
X1266900D03*
X1273100D03*
X1503100D03*
X1496900D03*
X1356900D03*
X1363100D03*
X1691900Y2115000D03*
X1698100D03*
Y2125000D03*
X1691900D03*
X1663100Y1730000D03*
X1656900D03*
X1301900Y1850000D03*
X1308100D03*
X1358100Y1960000D03*
X1351900D03*
X1378100D03*
X1371900D03*
X1358100Y1950000D03*
X1351900D03*
X1378100D03*
X1371900D03*
X1378100Y1991000D03*
X1371900D03*
X1378100Y2000000D03*
X1371900D03*
X1351900Y1991000D03*
X1358100D03*
X1351900Y2000000D03*
X1358100D03*
G54D43*
X1500000Y2120000D03*
X1519685D03*
X1539370D03*
X1559055D03*
X1410000D03*
X1429685D03*
X1449370D03*
X1469055D03*
X1320000D03*
X1339685D03*
X1359370D03*
X1379055D03*
X1230000D03*
X1249685D03*
X1269370D03*
X1289055D03*
X1600000D03*
X1619685D03*
X1650000D03*
X1669685D03*
X1480000Y1710000D03*
X1499685D03*
X1519370D03*
X1539055D03*
X1320000D03*
X1339685D03*
X1359370D03*
X1379055D03*
X1230000D03*
X1249685D03*
X1269370D03*
X1289055D03*
X1660000D03*
X1679685D03*
X1429685D03*
X1449370D03*
X1570000D03*
X1589685D03*
X1609370D03*
X1629055D03*
X1730000Y1730000D03*
Y1749685D03*
Y1770000D03*
Y1789685D03*
Y1810000D03*
Y1829685D03*
Y1850000D03*
Y1869685D03*
Y1890000D03*
Y1909685D03*
Y1930000D03*
Y1949685D03*
Y1970000D03*
Y1989685D03*
Y2010000D03*
Y2029685D03*
Y2050000D03*
Y2069685D03*
Y2090000D03*
Y2109685D03*
G54D44*
X1455000Y2026250D03*
Y2033750D03*
X1445000Y2030000D03*
Y2026250D03*
Y2033750D03*
G54D45*
X1560000Y2045000D03*
Y2050000D03*
Y2055000D03*
Y2060000D03*
Y2065000D03*
Y2070000D03*
Y2075000D03*
G54D46*
X1655000Y2055000D03*
X1670748D03*
X1505000Y1880000D03*
X1520748D03*
X1565000D03*
X1580748D03*
G54D47*
X1631000Y1977000D03*
Y1994520D03*
G54D48*
X1505000Y2021900D03*
Y2028100D03*
X1280000Y2073100D03*
Y2066900D03*
X1300000D03*
Y2073100D03*
X1320000Y2026900D03*
Y2033100D03*
X1650000Y1816900D03*
Y1823100D03*
X1710000Y1733100D03*
Y1726900D03*
Y1773100D03*
Y1766900D03*
Y1813100D03*
Y1806900D03*
Y1853100D03*
Y1846900D03*
Y1893100D03*
Y1886900D03*
Y1933100D03*
Y1926900D03*
Y1973100D03*
Y1966900D03*
Y2013100D03*
Y2006900D03*
Y2053100D03*
Y2046900D03*
Y2093100D03*
Y2086900D03*
G54D49*
X1534000Y1973000D03*
Y1912783D03*
G54D50*
X1670000Y2080000D03*
Y2104000D03*
G54D51*
X1630000Y1935000D03*
Y1912165D03*
X1290000Y1960000D03*
X1300000D03*
X1290000Y1950000D03*
X1300000D03*
X1290000Y1940000D03*
X1250000Y2040000D03*
Y2049843D03*
X1242126D03*
Y2040000D03*
X1230000Y1955000D03*
X1220000D03*
X1230000Y1945000D03*
X1220000D03*
X1230000Y1935000D03*
X1220000D03*
X1230000Y1925000D03*
X1220000D03*
X1230000Y1915000D03*
X1220000D03*
X1230000Y1905000D03*
X1220000D03*
X1230000Y1895000D03*
X1220000D03*
X1230000Y1885000D03*
X1220000D03*
X1230000Y1875000D03*
X1220000D03*
X1230000Y1865000D03*
X1220000D03*
G54D52*
X1410000Y1710000D03*
G54D53*
X1300000Y1940000D03*
X1230000Y1975000D03*
X1220000D03*
X1230000Y1965000D03*
X1220000D03*
X1235315Y1825000D03*
Y1815000D03*
Y1805000D03*
Y1795000D03*
Y1785000D03*
Y1775000D03*
Y1765000D03*
Y1755000D03*
X1284685D03*
Y1765000D03*
Y1775000D03*
Y1785000D03*
Y1795000D03*
Y1805000D03*
Y1815000D03*
Y1825000D03*
X1325315D03*
Y1815000D03*
Y1805000D03*
Y1795000D03*
Y1785000D03*
Y1775000D03*
Y1765000D03*
Y1755000D03*
X1374685D03*
Y1765000D03*
Y1775000D03*
Y1785000D03*
Y1795000D03*
Y1805000D03*
Y1815000D03*
Y1825000D03*
X1485315D03*
Y1815000D03*
Y1805000D03*
Y1795000D03*
Y1785000D03*
Y1775000D03*
Y1765000D03*
Y1755000D03*
X1534685D03*
Y1765000D03*
Y1775000D03*
Y1785000D03*
Y1795000D03*
Y1805000D03*
Y1815000D03*
Y1825000D03*
X1575315D03*
Y1815000D03*
Y1805000D03*
Y1795000D03*
Y1785000D03*
Y1775000D03*
Y1765000D03*
Y1755000D03*
X1624685D03*
Y1765000D03*
Y1775000D03*
Y1785000D03*
Y1795000D03*
Y1805000D03*
Y1815000D03*
Y1825000D03*
G54D54*
X1287205Y1900827D03*
Y1865000D03*
X1305000Y1900827D03*
Y1865000D03*
G54D55*
X1231496Y2068622D03*
Y2021220D03*
X1680000Y1805000D03*
X1340000Y1865000D03*
X1345000Y2060000D03*
X1640000Y2090000D03*
G54D56*
X1399488Y1953622D03*
Y1951654D03*
Y1949685D03*
Y1947717D03*
Y1945748D03*
Y1943780D03*
Y1941811D03*
Y1939843D03*
Y1937874D03*
Y1935906D03*
Y1933937D03*
Y1931969D03*
Y1930000D03*
Y1928031D03*
Y1926063D03*
Y1924094D03*
Y1922126D03*
Y1920157D03*
Y1918189D03*
Y1916220D03*
Y1914252D03*
Y1912283D03*
Y1910315D03*
Y1908346D03*
Y1906378D03*
X1460512D03*
Y1908346D03*
Y1910315D03*
Y1912283D03*
Y1914252D03*
Y1916220D03*
Y1918189D03*
Y1920157D03*
Y1922126D03*
Y1924094D03*
Y1926063D03*
Y1928031D03*
Y1930000D03*
Y1931969D03*
Y1933937D03*
Y1935906D03*
Y1937874D03*
Y1939843D03*
Y1941811D03*
Y1943780D03*
Y1945748D03*
Y1947717D03*
Y1949685D03*
Y1951654D03*
Y1953622D03*
G54D57*
X1406378Y1899488D03*
X1408346D03*
X1410315D03*
X1412283D03*
X1414252D03*
X1416220D03*
X1418189D03*
X1420157D03*
X1422126D03*
X1424094D03*
X1426063D03*
X1428031D03*
X1430000D03*
X1431969D03*
X1433937D03*
X1435906D03*
X1437874D03*
X1439843D03*
X1441811D03*
X1443780D03*
X1445748D03*
X1447717D03*
X1449685D03*
X1451654D03*
X1453622D03*
Y1960512D03*
X1451654D03*
X1449685D03*
X1447717D03*
X1445748D03*
X1443780D03*
X1441811D03*
X1439843D03*
X1437874D03*
X1435906D03*
X1433937D03*
X1431969D03*
X1430000D03*
X1428031D03*
X1426063D03*
X1424094D03*
X1422126D03*
X1420157D03*
X1418189D03*
X1416220D03*
X1414252D03*
X1412283D03*
X1410315D03*
X1408346D03*
X1406378D03*
G54D58*
X1405000Y2019370D03*
X1410000D03*
X1415000D03*
X1420000D03*
X1425000D03*
X1430000D03*
X1435000D03*
Y2040630D03*
X1430000D03*
X1425000D03*
X1420000D03*
X1415000D03*
X1410000D03*
X1405000D03*
G54D59*
X1276024Y2056634D03*
Y2054075D03*
Y2051516D03*
Y2048957D03*
Y2046398D03*
Y2043839D03*
Y2041280D03*
Y2038720D03*
Y2036161D03*
Y2033602D03*
Y2031043D03*
Y2028484D03*
Y2025925D03*
Y2023366D03*
X1303976D03*
Y2025925D03*
Y2028484D03*
Y2031043D03*
Y2033602D03*
Y2036161D03*
Y2038720D03*
Y2041280D03*
Y2043839D03*
Y2046398D03*
Y2048957D03*
Y2051516D03*
Y2054075D03*
Y2056634D03*
X0Y0D02*
M02*
