*
*
G04 PADS 9.3.1 Build Number: 456998 generated Gerber (RS-274-X) file*
G04 PC Version=2.1*
*
%IN "Mega2560DriverBoard.pcb"*%
*
%MOIN*%
*
%FSLAX35Y35*%
*
*
*
*
G04 PC Standard Apertures*
*
*
G04 Thermal Relief Aperture macro.*
%AMTER*
1,1,$1,0,0*
1,0,$1-$2,0,0*
21,0,$3,$4,0,0,45*
21,0,$3,$4,0,0,135*
%
*
*
G04 Annular Aperture macro.*
%AMANN*
1,1,$1,0,0*
1,0,$2,0,0*
%
*
*
G04 Odd Aperture macro.*
%AMODD*
1,1,$1,0,0*
1,0,$1-0.005,0,0*
%
*
*
G04 PC Custom Aperture Macros*
*
*
*
*
*
*
G04 PC Aperture Table*
*
%ADD010C,0.001*%
%ADD011C,0.01*%
%ADD013R,0.05906X0.01181*%
%ADD014R,0.01181X0.05906*%
%ADD015R,0.01575X0.05512*%
%ADD016R,0.038X0.03*%
%ADD017C,0.06693*%
%ADD018R,0.02362X0.05906*%
%ADD019R,0.05X0.02*%
%ADD020R,0.09843X0.0374*%
%ADD021R,0.11024X0.0315*%
%ADD022R,0.07677X0.03346*%
%ADD023R,0.03X0.038*%
%ADD024R,0.47992X0.12303*%
%ADD025R,0.12795X0.07283*%
%ADD026C,0.06*%
%ADD027R,0.06X0.06*%
%ADD028R,0.06693X0.06693*%
%ADD029R,0.05118X0.08268*%
%ADD030R,0.07087X0.01772*%
%ADD031C,0.14173*%
%ADD032C,0.05433*%
%ADD033C,0.006*%
%ADD034C,0.09843*%
%ADD035C,0.05276*%
%ADD036C,0.0374*%
%ADD037C,0.055*%
%ADD128C,0.17717*%
*
*
*
*
G04 PC Circuitry*
G04 Layer Name Mega2560DriverBoard.pcb - circuitry*
%LPD*%
*
*
G04 PC Custom Flashes*
G04 Layer Name Mega2560DriverBoard.pcb - flashes*
%LPD*%
*
*
G04 PC Circuitry*
G04 Layer Name Mega2560DriverBoard.pcb - circuitry*
%LPD*%
*
G54D10*
G54D11*
G01X1505106Y2042491D02*
Y2077509D01*
X1508750Y2081154*
X1543769*
X1547413Y2077509*
Y2042491*
X1543769Y2038846*
X1508750*
X1505106Y2042491*
X1508597Y2039000D02*
X1543923D01*
X1507597Y2040000D02*
X1544923D01*
X1506597Y2041000D02*
X1545923D01*
X1505597Y2042000D02*
X1546923D01*
X1505106Y2043000D02*
X1547413D01*
X1505106Y2044000D02*
X1547413D01*
X1505106Y2045000D02*
X1547413D01*
X1505106Y2046000D02*
X1547413D01*
X1505106Y2047000D02*
X1547413D01*
X1505106Y2048000D02*
X1547413D01*
X1505106Y2049000D02*
X1547413D01*
X1505106Y2050000D02*
X1547413D01*
X1505106Y2051000D02*
X1547413D01*
X1505106Y2052000D02*
X1547413D01*
X1505106Y2053000D02*
X1547413D01*
X1505106Y2054000D02*
X1547413D01*
X1505106Y2055000D02*
X1547413D01*
X1505106Y2056000D02*
X1547413D01*
X1505106Y2057000D02*
X1547413D01*
X1505106Y2058000D02*
X1547413D01*
X1505106Y2059000D02*
X1547413D01*
X1505106Y2060000D02*
X1547413D01*
X1505106Y2061000D02*
X1547413D01*
X1505106Y2062000D02*
X1547413D01*
X1505106Y2063000D02*
X1547413D01*
X1505106Y2064000D02*
X1547413D01*
X1505106Y2065000D02*
X1547413D01*
X1505106Y2066000D02*
X1547413D01*
X1505106Y2067000D02*
X1547413D01*
X1505106Y2068000D02*
X1547413D01*
X1505106Y2069000D02*
X1547413D01*
X1505106Y2070000D02*
X1547413D01*
X1505106Y2071000D02*
X1547413D01*
X1505106Y2072000D02*
X1547413D01*
X1505106Y2073000D02*
X1547413D01*
X1505106Y2074000D02*
X1547413D01*
X1505106Y2075000D02*
X1547413D01*
X1505106Y2076000D02*
X1547413D01*
X1505106Y2077000D02*
X1547413D01*
X1505597Y2078000D02*
X1546923D01*
X1506597Y2079000D02*
X1545923D01*
X1507597Y2080000D02*
X1544923D01*
X1508597Y2081000D02*
X1543923D01*
X1506000Y2041597D02*
Y2078403D01*
X1507000Y2040597D02*
Y2079403D01*
X1508000Y2039597D02*
Y2080403D01*
X1509000Y2038846D02*
Y2081154D01*
X1510000Y2038846D02*
Y2081154D01*
X1511000Y2038846D02*
Y2081154D01*
X1512000Y2038846D02*
Y2081154D01*
X1513000Y2038846D02*
Y2081154D01*
X1514000Y2038846D02*
Y2081154D01*
X1515000Y2038846D02*
Y2081154D01*
X1516000Y2038846D02*
Y2081154D01*
X1517000Y2038846D02*
Y2081154D01*
X1518000Y2038846D02*
Y2081154D01*
X1519000Y2038846D02*
Y2081154D01*
X1520000Y2038846D02*
Y2081154D01*
X1521000Y2038846D02*
Y2081154D01*
X1522000Y2038846D02*
Y2081154D01*
X1523000Y2038846D02*
Y2081154D01*
X1524000Y2038846D02*
Y2081154D01*
X1525000Y2038846D02*
Y2081154D01*
X1526000Y2038846D02*
Y2081154D01*
X1527000Y2038846D02*
Y2081154D01*
X1528000Y2038846D02*
Y2081154D01*
X1529000Y2038846D02*
Y2081154D01*
X1530000Y2038846D02*
Y2081154D01*
X1531000Y2038846D02*
Y2081154D01*
X1532000Y2038846D02*
Y2081154D01*
X1533000Y2038846D02*
Y2081154D01*
X1534000Y2038846D02*
Y2081154D01*
X1535000Y2038846D02*
Y2081154D01*
X1536000Y2038846D02*
Y2081154D01*
X1537000Y2038846D02*
Y2081154D01*
X1538000Y2038846D02*
Y2081154D01*
X1539000Y2038846D02*
Y2081154D01*
X1540000Y2038846D02*
Y2081154D01*
X1541000Y2038846D02*
Y2081154D01*
X1542000Y2038846D02*
Y2081154D01*
X1543000Y2038846D02*
Y2081154D01*
X1544000Y2039077D02*
Y2080923D01*
X1545000Y2040077D02*
Y2079923D01*
X1546000Y2041077D02*
Y2078923D01*
X1547000Y2042077D02*
Y2077923D01*
X1549500Y2089500D02*
Y2035500D01*
X1465500*
Y2089500*
X1549500*
X1465500Y2089499D02*
X1549500D01*
X1465500Y2088599D02*
X1549500D01*
X1465500Y2087699D02*
X1549500D01*
X1465500Y2086799D02*
X1549500D01*
X1465500Y2085899D02*
X1549500D01*
X1465500Y2084999D02*
X1549500D01*
X1465500Y2084099D02*
X1549500D01*
X1465500Y2083199D02*
X1549500D01*
X1465500Y2082299D02*
X1549500D01*
X1465500Y2081399D02*
X1549500D01*
X1465500Y2080499D02*
X1549500D01*
X1465500Y2079599D02*
X1549500D01*
X1465500Y2078699D02*
X1549500D01*
X1465500Y2077799D02*
X1549500D01*
X1465500Y2076899D02*
X1549500D01*
X1465500Y2075999D02*
X1549500D01*
X1465500Y2075099D02*
X1549500D01*
X1465500Y2074199D02*
X1549500D01*
X1465500Y2073299D02*
X1549500D01*
X1465500Y2072399D02*
X1549500D01*
X1465500Y2071499D02*
X1549500D01*
X1465500Y2070599D02*
X1549500D01*
X1465500Y2069699D02*
X1549500D01*
X1465500Y2068799D02*
X1549500D01*
X1465500Y2067899D02*
X1549500D01*
X1465500Y2066999D02*
X1549500D01*
X1465500Y2066099D02*
X1549500D01*
X1465500Y2065199D02*
X1549500D01*
X1465500Y2064299D02*
X1549500D01*
X1465500Y2063399D02*
X1549500D01*
X1465500Y2062499D02*
X1549500D01*
X1465500Y2061599D02*
X1549500D01*
X1465500Y2060699D02*
X1549500D01*
X1465500Y2059799D02*
X1549500D01*
X1465500Y2058899D02*
X1549500D01*
X1465500Y2057999D02*
X1549500D01*
X1465500Y2057099D02*
X1549500D01*
X1465500Y2056199D02*
X1549500D01*
X1465500Y2055299D02*
X1549500D01*
X1465500Y2054399D02*
X1549500D01*
X1465500Y2053499D02*
X1549500D01*
X1465500Y2052599D02*
X1549500D01*
X1465500Y2051699D02*
X1549500D01*
X1465500Y2050799D02*
X1549500D01*
X1465500Y2049899D02*
X1549500D01*
X1465500Y2048999D02*
X1549500D01*
X1465500Y2048099D02*
X1549500D01*
X1465500Y2047199D02*
X1549500D01*
X1465500Y2046299D02*
X1549500D01*
X1465500Y2045399D02*
X1549500D01*
X1465500Y2044499D02*
X1549500D01*
X1465500Y2043599D02*
X1549500D01*
X1465500Y2042699D02*
X1549500D01*
X1465500Y2041799D02*
X1549500D01*
X1465500Y2040899D02*
X1549500D01*
X1465500Y2039999D02*
X1549500D01*
X1465500Y2039099D02*
X1549500D01*
X1465500Y2038199D02*
X1549500D01*
X1465500Y2037299D02*
X1549500D01*
X1465500Y2036399D02*
X1549500D01*
G54D13*
X1399488Y1953622D03*
Y1951654D03*
Y1949685D03*
Y1947717D03*
Y1945748D03*
Y1943780D03*
Y1941811D03*
Y1939843D03*
Y1937874D03*
Y1935906D03*
Y1933937D03*
Y1931969D03*
Y1930000D03*
Y1928031D03*
Y1926063D03*
Y1924094D03*
Y1922126D03*
Y1920157D03*
Y1918189D03*
Y1916220D03*
Y1914252D03*
Y1912283D03*
Y1910315D03*
Y1908346D03*
Y1906378D03*
X1460512D03*
Y1908346D03*
Y1910315D03*
Y1912283D03*
Y1914252D03*
Y1916220D03*
Y1918189D03*
Y1920157D03*
Y1922126D03*
Y1924094D03*
Y1926063D03*
Y1928031D03*
Y1930000D03*
Y1931969D03*
Y1933937D03*
Y1935906D03*
Y1937874D03*
Y1939843D03*
Y1941811D03*
Y1943780D03*
Y1945748D03*
Y1947717D03*
Y1949685D03*
Y1951654D03*
Y1953622D03*
G54D14*
X1406378Y1899488D03*
X1408346D03*
X1410315D03*
X1412283D03*
X1414252D03*
X1416220D03*
X1418189D03*
X1420157D03*
X1422126D03*
X1424094D03*
X1426063D03*
X1428031D03*
X1430000D03*
X1431969D03*
X1433937D03*
X1435906D03*
X1437874D03*
X1439843D03*
X1441811D03*
X1443780D03*
X1445748D03*
X1447717D03*
X1449685D03*
X1451654D03*
X1453622D03*
Y1960512D03*
X1451654D03*
X1449685D03*
X1447717D03*
X1445748D03*
X1443780D03*
X1441811D03*
X1439843D03*
X1437874D03*
X1435906D03*
X1433937D03*
X1431969D03*
X1430000D03*
X1428031D03*
X1426063D03*
X1424094D03*
X1422126D03*
X1420157D03*
X1418189D03*
X1416220D03*
X1414252D03*
X1412283D03*
X1410315D03*
X1408346D03*
X1406378D03*
G54D15*
X1415000Y1875000D03*
X1419724D03*
X1424449D03*
G54D16*
X1416900Y1885000D03*
X1423100D03*
X1446900Y2100000D03*
X1453100D03*
X1536900D03*
X1543100D03*
X1413100D03*
X1406900D03*
X1323100D03*
X1316900D03*
X1233100D03*
X1226900D03*
X1266900D03*
X1273100D03*
X1503100D03*
X1496900D03*
X1356900D03*
X1363100D03*
X1691900Y2115000D03*
X1698100D03*
Y2125000D03*
X1691900D03*
X1663100Y1730000D03*
X1656900D03*
X1301900Y1850000D03*
X1308100D03*
X1358100Y1960000D03*
X1351900D03*
X1378100D03*
X1371900D03*
X1358100Y1950000D03*
X1351900D03*
X1378100D03*
X1371900D03*
X1378100Y1991000D03*
X1371900D03*
X1378100Y2000000D03*
X1371900D03*
X1351900Y1991000D03*
X1358100D03*
X1351900Y2000000D03*
X1358100D03*
G54D17*
X1500000Y2120000D03*
X1519685D03*
X1539370D03*
X1559055D03*
X1410000D03*
X1429685D03*
X1449370D03*
X1469055D03*
X1320000D03*
X1339685D03*
X1359370D03*
X1379055D03*
X1230000D03*
X1249685D03*
X1269370D03*
X1289055D03*
X1600000D03*
X1619685D03*
X1650000D03*
X1669685D03*
X1480000Y1710000D03*
X1499685D03*
X1519370D03*
X1539055D03*
X1320000D03*
X1339685D03*
X1359370D03*
X1379055D03*
X1230000D03*
X1249685D03*
X1269370D03*
X1289055D03*
X1660000D03*
X1679685D03*
X1429685D03*
X1449370D03*
X1570000D03*
X1589685D03*
X1609370D03*
X1629055D03*
X1730000Y1730000D03*
Y1749685D03*
Y1770000D03*
Y1789685D03*
Y1810000D03*
Y1829685D03*
Y1850000D03*
Y1869685D03*
Y1890000D03*
Y1909685D03*
Y1930000D03*
Y1949685D03*
Y1970000D03*
Y1989685D03*
Y2010000D03*
Y2029685D03*
Y2050000D03*
Y2069685D03*
Y2090000D03*
Y2109685D03*
G54D18*
X1405000Y2019370D03*
X1410000D03*
X1415000D03*
X1420000D03*
X1425000D03*
X1430000D03*
X1435000D03*
Y2040630D03*
X1430000D03*
X1425000D03*
X1420000D03*
X1415000D03*
X1410000D03*
X1405000D03*
G54D19*
X1455000Y2026250D03*
Y2033750D03*
X1445000Y2030000D03*
Y2026250D03*
Y2033750D03*
G54D20*
X1560000Y2045000D03*
Y2050000D03*
Y2055000D03*
Y2060000D03*
Y2065000D03*
Y2070000D03*
Y2075000D03*
G54D21*
X1655000Y2055000D03*
X1670748D03*
X1505000Y1880000D03*
X1520748D03*
X1565000D03*
X1580748D03*
G54D22*
X1631000Y1977000D03*
Y1994520D03*
G54D23*
X1505000Y2021900D03*
Y2028100D03*
X1280000Y2073100D03*
Y2066900D03*
X1300000D03*
Y2073100D03*
X1320000Y2026900D03*
Y2033100D03*
X1650000Y1816900D03*
Y1823100D03*
X1710000Y1733100D03*
Y1726900D03*
Y1773100D03*
Y1766900D03*
Y1813100D03*
Y1806900D03*
Y1853100D03*
Y1846900D03*
Y1893100D03*
Y1886900D03*
Y1933100D03*
Y1926900D03*
Y1973100D03*
Y1966900D03*
Y2013100D03*
Y2006900D03*
Y2053100D03*
Y2046900D03*
Y2093100D03*
Y2086900D03*
G54D24*
X1534000Y1973000D03*
Y1912783D03*
G54D25*
X1670000Y2080000D03*
Y2104000D03*
G54D26*
X1630000Y1935000D03*
Y1912165D03*
X1290000Y1960000D03*
X1300000D03*
X1290000Y1950000D03*
X1300000D03*
X1290000Y1940000D03*
X1250000Y2040000D03*
Y2049843D03*
X1242126D03*
Y2040000D03*
X1230000Y1955000D03*
X1220000D03*
X1230000Y1945000D03*
X1220000D03*
X1230000Y1935000D03*
X1220000D03*
X1230000Y1925000D03*
X1220000D03*
X1230000Y1915000D03*
X1220000D03*
X1230000Y1905000D03*
X1220000D03*
X1230000Y1895000D03*
X1220000D03*
X1230000Y1885000D03*
X1220000D03*
X1230000Y1875000D03*
X1220000D03*
X1230000Y1865000D03*
X1220000D03*
G54D27*
X1235315Y1825000D03*
Y1815000D03*
Y1805000D03*
Y1795000D03*
Y1785000D03*
Y1775000D03*
Y1765000D03*
Y1755000D03*
X1284685D03*
Y1765000D03*
Y1775000D03*
Y1785000D03*
Y1795000D03*
Y1805000D03*
Y1815000D03*
Y1825000D03*
X1325315D03*
Y1815000D03*
Y1805000D03*
Y1795000D03*
Y1785000D03*
Y1775000D03*
Y1765000D03*
Y1755000D03*
X1374685D03*
Y1765000D03*
Y1775000D03*
Y1785000D03*
Y1795000D03*
Y1805000D03*
Y1815000D03*
Y1825000D03*
X1485315D03*
Y1815000D03*
Y1805000D03*
Y1795000D03*
Y1785000D03*
Y1775000D03*
Y1765000D03*
Y1755000D03*
X1534685D03*
Y1765000D03*
Y1775000D03*
Y1785000D03*
Y1795000D03*
Y1805000D03*
Y1815000D03*
Y1825000D03*
X1300000Y1940000D03*
X1575315Y1825000D03*
Y1815000D03*
Y1805000D03*
Y1795000D03*
Y1785000D03*
Y1775000D03*
Y1765000D03*
Y1755000D03*
X1624685D03*
Y1765000D03*
Y1775000D03*
Y1785000D03*
Y1795000D03*
Y1805000D03*
Y1815000D03*
Y1825000D03*
X1230000Y1975000D03*
X1220000D03*
X1230000Y1965000D03*
X1220000D03*
G54D28*
X1410000Y1710000D03*
G54D29*
X1287205Y1900827D03*
Y1865000D03*
X1305000Y1900827D03*
Y1865000D03*
G54D30*
X1276024Y2056634D03*
Y2054075D03*
Y2051516D03*
Y2048957D03*
Y2046398D03*
Y2043839D03*
Y2041280D03*
Y2038720D03*
Y2036161D03*
Y2033602D03*
Y2031043D03*
Y2028484D03*
Y2025925D03*
Y2023366D03*
X1303976D03*
Y2025925D03*
Y2028484D03*
Y2031043D03*
Y2033602D03*
Y2036161D03*
Y2038720D03*
Y2041280D03*
Y2043839D03*
Y2046398D03*
Y2048957D03*
Y2051516D03*
Y2054075D03*
Y2056634D03*
G54D31*
X1231496Y2068622D03*
Y2021220D03*
X1680000Y1805000D03*
X1340000Y1865000D03*
X1345000Y2060000D03*
X1640000Y2090000D03*
X1246002Y1825000D02*
X1257000D01*
X1268000Y1836000*
X1303628*
X1314628Y1825000*
X1325315Y1832500D02*
X1328815Y1836000D01*
X1467765*
X1474628Y1829137*
X1496002Y1827165D02*
X1504836Y1836000D01*
X1553628*
X1564628Y1825000*
X1575315Y1835687D02*
X1578128Y1838500D01*
X1673000*
X1670000Y2080000D02*
Y2067000D01*
X1670748Y2066252*
Y2055000*
Y2034000*
X1671000*
X1619685Y2120000D02*
X1650000D01*
X1669685D02*
X1670000D01*
Y2104000*
G54D32*
X1382000Y1717000D02*
X1433908D01*
X1440908Y1710000*
X1449370*
X1465370Y1726000*
X1627000*
X1520748Y1880000D02*
X1524685D01*
X1531185Y1873500*
X1544567*
X1570311*
X1576811Y1880000*
X1580748*
X1623500*
X1534000Y1912783D02*
Y1903315D01*
X1534815Y1902500*
X1540079*
X1544567Y1898013*
Y1873500*
X1510004Y2021900D02*
X1551933D01*
X1568500Y2038467*
Y2044500*
X1510004Y2021900D02*
Y2013181D01*
X1534000Y1989185*
Y1973000*
X1505000Y2021900D02*
X1510004D01*
X1568238Y2050567D02*
Y2050738D01*
X1568500Y2051000*
X1608643*
X1609643Y2050000*
X1660345*
X1661811*
X1666811Y2055000*
X1670748*
G54D33*
X1679685Y1710000D02*
X1694519Y1724834D01*
Y1728181*
X1716023Y1749685*
X1730000*
X1710000Y1726900D02*
X1717400D01*
X1720500Y1730000*
X1730000*
X1235315Y1765000D02*
X1258314D01*
X1262814Y1769500*
X1401551*
X1409551Y1777500*
X1468000*
X1284685Y1755000D02*
X1303314D01*
X1307814Y1759500*
X1423293*
X1425793Y1762000*
X1456500*
X1325315Y1765000D02*
X1348314D01*
X1352314Y1761000*
X1401551*
X1408051Y1767500*
X1460500*
X1374685Y1765000D02*
X1401551D01*
X1408051Y1771500*
X1477500*
X1442000Y1730000D02*
X1656900D01*
X1418000Y1755000D02*
X1441500D01*
X1442500Y1754000*
X1469820*
X1474820Y1759000*
X1674404*
X1674904Y1758500*
X1725000*
X1448500Y1758000D02*
X1464901D01*
X1467401Y1760500*
X1704000*
X1710000Y1766500*
Y1766900*
X1435500Y1751000D02*
X1676634D01*
X1679634Y1754000*
X1731690*
X1734246Y1751444*
Y1743210*
X1656900Y1730000D02*
Y1722600D01*
X1660000Y1719500*
Y1710000*
X1663100Y1730000D02*
X1668500D01*
X1710000Y1738500D02*
Y1733100D01*
X1730000Y1730000D02*
Y1738963D01*
X1734246Y1743210*
X1710000Y1766900D02*
X1717527D01*
X1720627Y1770000*
X1730000*
X1284685Y1805000D02*
X1303314D01*
X1308814Y1810500*
X1420648*
X1423933Y1813785*
X1468785*
X1472500Y1817500*
X1284685Y1795000D02*
X1303314D01*
X1308814Y1800500*
X1413398*
X1415398Y1802500*
X1472500*
X1284685Y1775000D02*
X1303314D01*
X1307314Y1771000*
X1347686*
X1351686Y1775000*
X1374685*
Y1805000D02*
X1419218D01*
X1423218Y1809000*
X1467500*
X1374685Y1795000D02*
X1411968D01*
X1415468Y1798500*
X1452500*
X1494000Y1792500D02*
X1517000Y1769500D01*
X1552186*
X1556686Y1765000*
X1575315*
X1534685Y1785000D02*
Y1775000D01*
X1553314*
X1557314Y1771000*
X1597686*
X1601686Y1775000*
X1624685*
Y1785000D02*
X1650000Y1810315D01*
Y1816900*
X1680000Y1805000D02*
X1707864Y1777136D01*
Y1775636*
X1710000Y1773500*
Y1773100*
X1680000Y1805000D02*
X1688100Y1813100D01*
X1710000*
Y1806900D02*
Y1807300D01*
X1712400Y1809700*
X1710000Y1806900D02*
X1717527D01*
X1720627Y1810000*
X1730000*
X1284685Y1825000D02*
X1292685Y1817000D01*
X1318983*
X1320983Y1819000*
X1346166*
X1352166Y1825000*
X1374685*
X1290000Y1848000D02*
X1295500D01*
X1297500Y1850000*
X1301900*
X1374685Y1825000D02*
X1423028D01*
X1426878Y1821150*
X1477472*
X1479443Y1819179*
X1512137*
X1517958Y1825000*
X1534685*
X1542685Y1817000*
X1568983*
X1570983Y1819000*
X1593443*
X1599443Y1825000*
X1624685*
X1575315Y1815000D02*
X1593443D01*
X1598443Y1820000*
X1654293*
X1669293Y1805000*
X1680000*
X1624685Y1825000D02*
X1637000D01*
X1638900Y1823100*
X1650000*
Y1816900D02*
Y1816500D01*
X1696500Y1770000*
X1711573*
X1719699Y1778126*
Y1779384*
X1730000Y1789685*
X1710000Y1846900D02*
X1717400D01*
X1720500Y1850000*
X1730000*
X1230000Y1865000D02*
X1273000D01*
X1290000Y1848000*
X1220000Y1885000D02*
X1224000D01*
X1229000Y1890000*
X1263678*
X1279539Y1905861*
X1308139*
X1312000Y1902000*
X1287205Y1865000D02*
Y1878705D01*
X1289500Y1881000*
Y1893000*
X1305000Y1865000D02*
Y1857733D01*
X1308100Y1854633*
Y1850000*
X1305000Y1865000D02*
Y1900827D01*
X1340000Y1865000D02*
X1382668D01*
X1383668Y1866000*
X1422000*
X1413313Y1871871D02*
Y1889313D01*
X1417898Y1893898*
Y1899488*
X1418189*
X1413313Y1871871D02*
X1414184Y1871000D01*
X1417693*
X1419724Y1873031*
Y1875000*
X1415000D02*
Y1879678D01*
X1416900Y1881578*
Y1885000*
X1432850Y1886488D02*
X1436838Y1882500D01*
X1445000*
X1432850Y1886488D02*
Y1891219D01*
X1433937Y1892306*
Y1899488*
X1431650Y1873688D02*
X1441838Y1863500D01*
X1693800*
X1710000Y1847300*
Y1846900*
X1431650Y1873688D02*
Y1893516D01*
X1431969Y1893835*
Y1899488*
X1420350Y1887350D02*
Y1894512D01*
X1421338Y1895500*
X1422126Y1897616*
Y1899488*
X1420350Y1887350D02*
X1422700Y1885000D01*
X1423100*
X1441000Y1869500D02*
X1693000D01*
X1710000Y1886500*
Y1886900*
X1428000Y1888000D02*
X1430000Y1891162D01*
Y1899488*
X1445000Y1858000D02*
X1669773D01*
X1712400Y1815373*
Y1809700*
X1436500Y1888000D02*
X1437874Y1891788D01*
Y1899488*
X1423100Y1885000D02*
Y1881400D01*
X1424449Y1880051*
Y1875000*
X1416900Y1885000D02*
Y1889301D01*
X1419124Y1891526*
Y1895016*
X1419608Y1895500*
X1420157Y1898336*
Y1899488*
X1419724Y1875000D02*
X1421412D01*
X1422000Y1874412*
Y1866000*
X1496000Y1880000D02*
X1505000D01*
X1556000D02*
X1565000D01*
X1710000Y1858500D02*
Y1853100D01*
Y1886900D02*
X1717400D01*
X1720500Y1890000*
X1730000*
X1216000Y1923485D02*
Y1937000D01*
X1220000Y1941000*
Y1945000*
X1216000Y1923485D02*
X1219485Y1920000D01*
X1220515*
X1225000Y1915515*
Y1914485*
X1228385Y1911100*
X1233153*
X1236753Y1914700*
X1329469*
X1331419Y1912750*
X1368498*
X1369898Y1914150*
X1374176*
X1379979Y1908346*
X1399488*
X1241000Y1909000D02*
X1249988D01*
X1253088Y1912100*
X1324751*
X1330072Y1906779*
X1391651*
X1392052Y1906378*
X1399488*
X1242500Y1920000D02*
X1268494D01*
X1272176Y1916318*
X1331491*
X1333859Y1913950*
X1366911*
X1368311Y1915350*
X1374837*
X1379872Y1910315*
X1399488*
X1220000Y1895000D02*
X1224000D01*
X1228500Y1899500*
X1260240*
X1269240Y1908500*
X1316977*
X1324977Y1900500*
X1377500*
X1230000Y1895000D02*
X1262247D01*
X1274307Y1907061*
X1314490*
X1324701Y1896850*
X1398733*
X1406671Y1904788*
X1409694*
X1415056Y1910150*
X1439012*
X1441150Y1908012*
Y1904818*
X1220000Y1905000D02*
X1224000D01*
X1227900Y1901100*
X1255334*
X1263934Y1909700*
X1319702*
X1325175Y1904227*
X1382963*
X1383502Y1903687*
X1403685*
X1406251Y1906253*
X1409026*
X1414123Y1911350*
X1439509*
X1442350Y1908509*
Y1904000*
X1230000Y1905000D02*
X1252666D01*
X1258566Y1910900*
X1322268*
X1327664Y1905504*
X1387411*
X1388027Y1904887*
X1403000*
X1405699Y1907586*
X1408225*
X1413189Y1912550*
X1440006*
X1443780Y1908776*
Y1899488*
X1220000Y1915000D02*
X1225500Y1909500D01*
X1234794*
X1238794Y1913500*
X1327010*
X1330010Y1910500*
X1372500*
X1230000Y1915000D02*
X1240650Y1925650D01*
X1332940*
X1338590Y1920000*
X1360000*
X1220000Y1925000D02*
X1224000D01*
X1228000Y1929000*
X1360500*
X1365000Y1924500*
X1377000*
X1230000Y1925000D02*
X1236000D01*
X1238000Y1927000*
X1360500*
X1366500Y1921000*
X1374736*
X1377736Y1918000*
X1381500*
X1293500Y1902000D02*
X1298759D01*
X1299932Y1900827*
X1305000*
X1295500Y1920500D02*
X1301494D01*
X1304059Y1917935*
X1333481*
X1336266Y1915150*
X1365203*
X1366603Y1916550*
X1375502*
X1379768Y1912283*
X1399488*
X1287205Y1900827D02*
X1289464D01*
Y1896993*
X1289500Y1893000*
X1307500Y1922000D02*
X1332940D01*
X1338590Y1916350*
X1363255*
X1364655Y1917750*
X1376175*
X1379673Y1914252*
X1399488*
X1305000Y1900827D02*
Y1899252D01*
X1315252Y1889000*
X1407617*
X1414252Y1895635*
Y1899488*
X1406000Y1911500D02*
X1410000D01*
X1412250Y1913750*
X1443213*
X1453622Y1903341*
Y1899488*
X1382000Y1893000D02*
X1402252D01*
X1406378Y1897126*
Y1899488*
X1407000Y1918000D02*
X1429744D01*
X1433469Y1921725*
X1454939*
X1457309Y1924094*
X1460512*
X1455459Y1904918D02*
Y1912047D01*
X1457664Y1914252*
X1460512*
X1455459Y1904918D02*
X1466227Y1894150D01*
X1516850*
X1519500Y1891500*
X1454259Y1904420D02*
Y1912815D01*
X1457664Y1916220*
X1460512*
X1454259Y1904420D02*
X1468180Y1890500D01*
X1513000*
X1454000Y1918000D02*
X1456157Y1920157D01*
X1460512*
X1424000Y1893000D02*
X1424094D01*
Y1899488*
X1424000Y1906500D02*
X1426063Y1903401D01*
Y1899488*
X1445748D02*
Y1895252D01*
X1447500Y1893500*
Y1889000*
X1441811Y1899488D02*
Y1903461D01*
X1442350Y1904000*
X1439843Y1899488D02*
Y1903511D01*
X1441150Y1904818*
X1435906Y1899488D02*
Y1904906D01*
X1437500Y1906500*
X1428031Y1899488D02*
Y1903531D01*
X1431000Y1906500*
X1416220Y1899488D02*
Y1906000D01*
X1416500*
X1456659Y1908346D02*
Y1905415D01*
X1466724Y1895350*
X1527356*
X1527506Y1895500*
X1538500*
X1456659Y1908346D02*
X1460512D01*
X1467000Y1927000D02*
X1589000D01*
X1589100Y1926900*
X1710000*
X1460512Y1922126D02*
X1465794D01*
X1465920Y1922000*
X1471000*
X1460512Y1918189D02*
X1461924D01*
X1467000Y1917000*
X1460512Y1912283D02*
X1490479D01*
X1499762Y1903000*
X1525500*
X1460512Y1910315D02*
X1473171D01*
X1473356Y1910500*
X1490479*
X1501979Y1899000*
X1518500*
X1460512Y1906378D02*
X1470796D01*
X1470918Y1906500*
X1481000*
X1630000Y1912165D02*
X1678587D01*
X1681067Y1909685*
X1730000*
X1710000Y1898500D02*
Y1893100D01*
Y1926900D02*
X1717527D01*
X1720627Y1930000*
X1730000*
X1214800Y1945315D02*
Y1884685D01*
X1218485Y1881000*
X1226000*
X1230000Y1885000*
X1214800Y1945315D02*
X1218985Y1949500D01*
X1266560*
X1272060Y1955000*
X1331500*
X1339000Y1962500*
X1380273*
X1383500Y1959273*
Y1953000*
X1220000Y1935000D02*
X1224000D01*
X1228500Y1930500*
X1376162*
X1383035Y1923627*
Y1922965*
X1388000Y1918000*
X1220000Y1955000D02*
X1224000D01*
X1227900Y1951100*
X1249039*
X1267089Y1969150*
X1384512*
X1386650Y1967012*
Y1955672*
X1387150Y1955172*
Y1950991*
X1230000Y1955000D02*
X1245350Y1970350D01*
X1385009*
X1387850Y1967509*
Y1956828*
X1388350Y1956328*
Y1949997*
X1290000Y1950000D02*
X1295000Y1945000D01*
X1307555*
X1318280Y1934275*
X1374146*
X1386664Y1921756*
X1389729*
X1395265Y1916220*
X1399488*
X1322500Y1940500D02*
X1369741D01*
X1387241Y1923000*
X1390489*
X1395300Y1918189*
X1399488*
X1300000Y1960000D02*
X1333500D01*
X1339000Y1965500*
X1383000*
X1374000Y1939944D02*
X1388507Y1925438D01*
X1388507D02*
X1392043D01*
X1392043D02*
X1395355Y1922126D01*
X1399488*
X1374000Y1939944D02*
Y1946795D01*
X1375000Y1947795*
X1351900Y1950000D02*
X1352300D01*
X1357650Y1944650*
X1367412*
X1387843Y1924219*
X1391274*
X1395336Y1920157*
X1399488*
X1358100Y1950000D02*
X1371900D01*
X1351900Y1960000D02*
X1352300D01*
X1357300Y1955000*
X1371573*
X1375000Y1951573*
Y1947795*
X1358100Y1960000D02*
X1371900D01*
X1413350Y1930850D02*
Y1931188D01*
X1415081Y1932919*
X1415244Y1933082*
Y1934594*
X1416488Y1933350*
X1417000*
X1408678Y1955444D02*
Y1952572D01*
X1422500Y1938750*
Y1934994*
X1408678Y1955444D02*
X1409734Y1956500D01*
X1410315Y1959218*
Y1960512*
X1381500Y1939500D02*
X1381650Y1939650D01*
Y1945491*
X1387150Y1950991*
X1381500Y1939500D02*
Y1934141D01*
X1388997Y1926644*
X1392810*
X1395359Y1924094*
X1399488*
X1382850Y1934488D02*
Y1944497D01*
X1388350Y1949997*
X1382850Y1934488D02*
X1389488Y1927850D01*
X1393831*
X1395618Y1926063*
X1399488*
X1386500Y1942500D02*
X1390440Y1938560D01*
X1390906*
X1395529Y1933937*
X1399488*
X1407500Y1967000D02*
X1408346Y1961160D01*
Y1960512*
X1378000Y1945000D02*
Y1950000D01*
X1378100*
X1391000Y1931500D02*
X1394662Y1930000D01*
X1399488*
X1386500Y1936000D02*
X1391662D01*
X1395000Y1932662*
Y1932604*
X1395635Y1931969*
X1399488*
X1412500Y1954000D02*
X1416244D01*
X1417744Y1955500*
X1421000*
X1422126Y1956626*
Y1960512*
X1391500Y1959000D02*
Y1945946D01*
X1395635Y1941811*
X1399488*
X1378100Y1960000D02*
Y1950000D01*
X1406378Y1960512D02*
Y1956544D01*
X1407478Y1955444*
X1408678*
X1399488Y1935906D02*
X1404094D01*
X1409500Y1930500*
X1413000*
X1413350Y1930850*
X1399488Y1943780D02*
X1403341D01*
X1406130Y1940990*
Y1939870*
X1411500Y1934500*
X1399488Y1945748D02*
X1409252D01*
X1418000Y1937000*
X1399488Y1949685D02*
Y1949976D01*
X1402141*
X1406000Y1950000*
X1417000Y1933350D02*
X1419512D01*
X1421156Y1934994*
X1417000Y1933350D02*
Y1930000D01*
X1417500Y1929500*
X1441350Y1948200D02*
Y1950600D01*
X1445748Y1954998*
Y1960512*
X1441350Y1948200D02*
Y1933488D01*
X1451838Y1923000*
X1454162*
X1456659Y1925497*
Y1926063*
X1460512*
X1422500Y1934994D02*
X1425494D01*
X1438700Y1948200*
X1441350*
X1421156Y1934994D02*
X1422500D01*
Y1968000D02*
X1419919Y1965419D01*
Y1960512*
X1420157*
X1447850Y1933988D02*
Y1944671D01*
X1455113Y1951934*
X1447850Y1933988D02*
X1450588Y1931250D01*
X1453912*
X1456500Y1928662*
X1459021Y1928031*
X1460512*
X1453000Y1927000D02*
X1446650Y1933350D01*
Y1945327*
X1451654Y1950331*
Y1960512*
X1452500Y1944000D02*
Y1943780D01*
X1460512*
X1451500Y1935500D02*
X1455000Y1932000D01*
X1455079*
X1456000Y1931079*
Y1931000*
X1456500Y1930500*
X1459744Y1930000*
X1460512*
X1418000Y1950500D02*
X1422370Y1954870D01*
X1424274*
X1426063Y1956659*
Y1960512*
X1445000Y1949000D02*
X1449685Y1953685D01*
Y1960512*
X1447000Y1967500D02*
X1450822Y1966160D01*
X1451840*
X1453622Y1964378*
Y1960512*
X1433000Y1954000D02*
X1434210D01*
X1437874Y1957664*
Y1960512*
X1439500Y1954000D02*
X1439552Y1957859D01*
Y1960512*
X1439843*
X1424094D02*
Y1964399D01*
X1426150Y1966454*
X1428031Y1960512D02*
Y1965307D01*
X1430000Y1968500*
Y1960512D02*
Y1963359D01*
X1431248Y1964607*
X1431269*
X1434128Y1967466*
Y1975078*
X1442450Y1983400*
X1488335*
X1505787Y1965948*
X1567834*
X1569885Y1968000*
X1583000*
X1431969Y1960512D02*
Y1963571D01*
X1435805Y1967407*
Y1975058*
X1442947Y1982200*
X1483993*
X1501843Y1964350*
X1591695*
X1595995Y1968650*
X1616350*
X1619500Y1965500*
X1433937Y1960512D02*
Y1962210D01*
X1434634Y1964500*
X1437500Y1967366*
Y1975056*
X1443444Y1981000*
X1479224*
X1497224Y1963000*
X1599232*
X1601232Y1965000*
X1612500*
X1435906Y1960512D02*
X1436196D01*
Y1964365*
X1439500Y1967669*
Y1975359*
X1443641Y1979500*
X1474755*
X1494255Y1960000*
X1608500*
X1441811Y1960512D02*
Y1975973D01*
X1443988Y1978150*
X1469853*
X1491653Y1956350*
X1617135*
X1689029Y2028245*
Y2065529*
X1710000Y2086500*
Y2086900*
X1471500Y1931500D02*
X1551567D01*
X1553067Y1930000*
X1711573*
X1713650Y1932077*
Y1953850*
X1459000Y1959000D02*
X1482484D01*
X1486484Y1955000*
X1617482*
X1698500Y2036018*
Y2046273*
X1708227Y2056000*
X1711773*
X1712400Y2055373*
Y2049700*
X1460512Y1953622D02*
X1465546D01*
X1466168Y1953000*
X1471000*
X1460512Y1951654D02*
X1466988D01*
X1469142Y1949500*
X1469811*
X1470311Y1949000*
X1472338*
X1475000Y1951662*
X1479000Y1952500*
X1460512Y1949685D02*
X1467207D01*
X1468664Y1948228*
X1469284*
X1470512Y1947000*
X1475500*
X1460512Y1947717D02*
X1467425D01*
X1468142Y1947000*
X1468713*
X1472713Y1943000*
X1482000*
X1460512Y1945748D02*
X1464752D01*
X1467000Y1943500*
X1460512Y1931969D02*
X1466469D01*
X1467000Y1932500*
Y1936500*
X1710000Y1966900D02*
Y1957500D01*
X1713650Y1953850*
X1710000Y1966900D02*
X1717400D01*
X1720500Y1970000*
X1730000*
X1710000Y1933100D02*
Y1938500D01*
X1375300Y1985442D02*
Y2031899D01*
X1378650Y2035249*
X1375300Y1985442D02*
X1395500Y1965242D01*
Y1951789*
X1395635Y1951654*
X1399488*
X1358100Y2000000D02*
X1371900D01*
X1358100Y1991000D02*
X1371900D01*
X1411950Y2001950D02*
Y1969909D01*
X1414252Y1967607*
Y1960512*
X1411950Y2001950D02*
X1415000Y2005000D01*
Y2019370*
X1414350Y1982674D02*
Y1971307D01*
X1418189Y1967468*
Y1960512*
X1414350Y1982674D02*
X1426650Y1994974D01*
Y2015500*
X1413150Y1991335D02*
Y1970608D01*
X1416220Y1967537*
Y1960512*
X1413150Y1991335D02*
X1423000Y2001185D01*
Y2013000*
X1387500Y1988000D02*
Y1981752D01*
X1406378Y1962874*
Y1960512*
X1378100Y2000000D02*
Y2017762D01*
X1400968Y2040630*
X1405000*
X1378100Y2000000D02*
Y1991000D01*
X1384500*
X1387500Y1988000*
X1445592Y1974408D02*
X1443011Y1971827D01*
Y1965730*
X1443780Y1964962*
Y1960512*
X1445592Y1974408D02*
X1445500Y1974500D01*
X1455113Y1964887*
Y1951934*
X1418000Y1973000D02*
X1422662D01*
X1426150Y1969512*
Y1966454*
X1631000Y2000000D02*
Y1994520D01*
X1707600Y1970827D02*
X1710000Y1972173D01*
Y1973100*
X1707600Y1970827D02*
Y1951376D01*
X1710000Y1948976*
Y1938500*
Y2006900D02*
X1717400D01*
X1720500Y2010000*
X1730000*
X1246100Y2038385D02*
Y2045943D01*
X1250000Y2049843*
X1246100Y2038385D02*
X1262985Y2021500D01*
X1285230*
X1289655Y2025925*
X1303976*
X1238226Y2038385D02*
Y2045943D01*
X1242126Y2049843*
X1238226Y2038385D02*
X1256611Y2020000D01*
X1290797*
X1294163Y2023366*
X1303976*
X1250000Y2040000D02*
X1276900Y2066900D01*
X1280000*
X1284000Y2049000D02*
X1289500Y2043500D01*
X1292662*
X1298500Y2037662*
Y2037194*
X1299533Y2036161*
X1303976*
X1288000Y2033500D02*
X1291994D01*
X1292494Y2033000*
X1297046*
X1297649Y2033602*
X1303976*
X1276024Y2041280D02*
X1280467D01*
X1282500Y2039246*
Y2033838*
X1286838Y2029500*
X1293500*
X1295043Y2031043*
X1303976*
X1276024Y2046398D02*
X1280954D01*
X1284886Y2042465*
X1288535*
X1294000Y2037000*
X1276024Y2048957D02*
X1284000D01*
Y2049000*
X1308420Y2031043D02*
X1312543D01*
X1314600Y2033100*
X1320000*
X1303976Y2048957D02*
X1299533D01*
Y2038720*
X1303976*
Y2048957D02*
X1307220D01*
Y2051516*
X1303976Y2043839D02*
X1315631D01*
X1351900Y2007570*
Y2000000*
X1303976Y2041280D02*
X1316493D01*
X1335500Y2022273*
Y2007000*
X1351500Y1991000*
X1351900*
X1303976Y2038720D02*
X1308420D01*
Y2031043*
X1303976D02*
X1308420D01*
X1303976Y2028484D02*
X1312218D01*
X1313802Y2026900*
X1320000*
X1409834Y2038692D02*
X1413026Y2035500D01*
X1430277*
X1432500Y2037723*
Y2043537*
X1433463Y2044500*
X1439023*
X1455000Y2028523*
Y2026250*
X1409834Y2038692D02*
Y2040630D01*
X1410000*
X1413000Y2048500D02*
X1414119Y2043283D01*
Y2040630*
X1415000*
X1392000Y2026500D02*
X1412744D01*
X1413394Y2025850*
X1437350*
X1437750Y2026250*
X1445000*
X1398000Y2015500D02*
X1406537D01*
X1407500Y2016463*
X1410000Y2016856*
Y2019370*
X1405000Y2040630D02*
Y2038858D01*
X1409858Y2034000*
X1436500*
X1415000Y2019370D02*
Y2021142D01*
X1417081Y2023223*
X1438222*
X1438295Y2023150*
X1476874*
X1485224Y2031500*
X1533000*
X1410000Y2019370D02*
Y1969909D01*
X1412283Y1967625*
Y1960512*
X1405000Y2019370D02*
Y2021142D01*
X1408281Y2024423*
X1440387*
X1440459Y2024350*
X1457873*
X1458400Y2024877*
Y2031850*
X1426650Y2015500D02*
X1446000D01*
X1432000Y2029500D02*
X1438375D01*
X1438875Y2030000*
X1445000*
X1436500Y2034000D02*
Y2033813D01*
X1436500D02*
X1445000D01*
X1445000D02*
Y2033750D01*
X1419000Y2047000D02*
X1419119Y2043283D01*
Y2040630*
X1420000*
X1427500Y2047000D02*
X1430000Y2041259D01*
Y2040630*
X1455000Y2033750D02*
X1456500D01*
X1458400Y2031850*
X1435000Y2019370D02*
Y2019500D01*
X1440000*
X1425000Y2019370D02*
Y2018112D01*
X1426650Y2015500*
X1420000Y2019370D02*
Y2018263D01*
X1423000Y2013000*
X1505000Y2028100D02*
X1519400D01*
X1520000Y2027500*
X1543480*
X1552539Y2036559*
Y2050604*
X1556942Y2055006*
X1560000*
Y2055000*
X1707600Y2010827D02*
X1710000Y2012173D01*
Y2013100*
X1707600Y2010827D02*
Y1991400D01*
X1710000Y1989000*
Y1973100*
Y2046900D02*
Y2047300D01*
X1712400Y2049700*
X1710000Y2046900D02*
X1717527D01*
X1720627Y2050000*
X1730000*
X1288000Y2073000D02*
X1294575D01*
X1294675Y2073100*
X1300000*
X1280000D02*
X1283325D01*
X1283425Y2073000*
X1288000*
X1276024Y2056634D02*
X1281134D01*
X1294500Y2070000*
X1362162*
X1378650Y2053512*
Y2035249*
X1303976Y2051516D02*
X1299533D01*
Y2060533*
X1300000Y2061000*
Y2066900*
X1307220Y2051516D02*
X1303976D01*
X1318474*
X1326959Y2060000*
X1345000*
X1367000*
X1375000Y2052000*
X1423000Y2053000D02*
Y2044402D01*
X1425000Y2042402*
Y2040630*
X1535000Y2089700D02*
X1536583D01*
Y2094092*
X1536900Y2094408*
Y2100000*
X1549700Y2060312D02*
X1552459D01*
X1552770Y2060000*
X1560000*
X1707600Y2050827D02*
X1710000Y2052173D01*
Y2053100*
X1707600Y2050827D02*
Y2031400D01*
X1710000Y2029000*
Y2013100*
Y2086900D02*
X1717400D01*
X1720500Y2090000*
X1730000*
X1226900Y2100000D02*
Y2107527D01*
X1230000Y2110627*
Y2120000*
X1226900Y2100000D02*
X1227300D01*
X1247825Y2079475*
X1376562*
X1412455Y2043582*
Y2037769*
X1413446Y2036777*
X1417919*
X1420000Y2038858*
Y2040630*
X1233100Y2100000D02*
X1246375D01*
X1247375Y2099000*
X1261500*
X1249685Y2120000D02*
X1258648D01*
X1263148Y2124500*
X1275592*
X1280092Y2120000*
X1289055*
X1261500Y2099000D02*
Y2098800D01*
X1266900*
Y2100000*
X1273100D02*
X1273500D01*
X1290000Y2083500*
X1378000*
X1413000Y2048500*
X1289055Y2120000D02*
X1303648D01*
X1308148Y2124500*
X1326222*
X1330722Y2120000*
X1339685*
X1269370D02*
Y2110942D01*
X1273100Y2107212*
Y2100000*
X1316900D02*
Y2107527D01*
X1320000Y2110627*
Y2120000*
X1316900Y2100000D02*
X1317300D01*
X1327300Y2090000*
X1391162*
X1427500Y2053662*
Y2047000*
X1323100Y2100000D02*
X1336375D01*
X1337375Y2099000*
X1351500*
Y2098800*
X1356900*
Y2100000*
X1359370Y2120000D02*
Y2110942D01*
X1363100Y2107212*
Y2100000*
X1339685Y2120000D02*
X1348648D01*
X1353148Y2124500*
X1365592*
X1370092Y2120000*
X1379055*
X1404850Y2114850D02*
Y2104650D01*
X1406900Y2102600*
Y2100000*
X1404850Y2114850D02*
X1410000Y2120000D01*
X1408500Y2106500D02*
X1445073D01*
X1450000Y2101573*
Y2098427*
X1450927Y2097500*
X1473500*
X1476000Y2100000*
X1496900*
X1413100D02*
X1426375D01*
X1427375Y2099000*
X1441500*
X1379055Y2120000D02*
X1393648D01*
X1398148Y2124500*
X1416222*
X1420722Y2120000*
X1429685*
X1441500Y2099000D02*
Y2098800D01*
X1446900*
Y2100000*
Y2097600*
X1455300Y2089200*
X1465300*
X1449370Y2120000D02*
Y2110942D01*
X1453100Y2107212*
Y2100000*
X1429685Y2120000D02*
X1438648D01*
X1443148Y2124500*
X1455592*
X1460092Y2120000*
X1469055*
X1483648*
X1488148Y2124500*
X1506222*
X1510722Y2120000*
X1519685*
X1496900Y2100000D02*
Y2107527D01*
X1500000Y2110627*
Y2120000*
X1503100Y2100000D02*
Y2094400D01*
X1503417Y2094083*
Y2089700*
X1505000*
X1519685Y2120000D02*
X1528648D01*
X1533148Y2124500*
X1545592*
X1550092Y2120000*
X1559055*
X1567055Y2128000*
X1679500*
X1682500Y2125000*
X1691900*
X1539370Y2120000D02*
Y2110942D01*
X1543100Y2107212*
Y2100000*
X1600000Y2120000D02*
X1616170Y2103830D01*
X1626170*
X1640000Y2090000*
X1655000Y2075000*
Y2055000*
X1640000Y2090000D02*
X1667762D01*
X1683500Y2105738*
Y2107000*
X1691500Y2115000*
X1691900*
Y2125000D02*
Y2121100D01*
X1695000Y2118000*
Y2113427*
X1698742Y2109685*
X1730000*
X1691900Y2115000D02*
Y2111600D01*
X1710000Y2093500*
Y2093100*
X1698100Y2115000D02*
Y2125000D01*
G54D34*
X1235315Y1825000D02*
X1246002D01*
X1325315D02*
Y1832500D01*
X1314628Y1825000*
X1485315D02*
Y1825089D01*
X1485404*
X1485315Y1825000D02*
X1493836D01*
X1496002Y1827165*
X1474628Y1829137D02*
X1475137D01*
X1477993Y1831993*
X1478500*
X1485404Y1825089*
X1575315Y1835687D02*
Y1825000D01*
X1564628*
G54D35*
X1534000Y1973000D02*
X1570500D01*
X1574500Y1977000*
X1631000*
G54D36*
X1560000Y2045000D02*
X1563051D01*
X1568500Y2044500*
X1560000Y2070000D02*
X1591336D01*
X1593836Y2067500*
X1623000*
X1560000Y2050000D02*
X1567671D01*
X1568238Y2050567*
G54D37*
X1382000Y1717000D03*
X1627000Y1726000D03*
X1442000Y1730000D03*
X1418000Y1755000D03*
X1448500Y1758000D03*
X1435500Y1751000D03*
X1456500Y1762000D03*
X1460500Y1767500D03*
X1668500Y1730000D03*
X1710000Y1738500D03*
X1725000Y1758500D03*
X1452500Y1798500D03*
X1468000Y1777500D03*
X1472500Y1802500D03*
X1477500Y1771500D03*
X1467500Y1809000D03*
X1494000Y1792500D03*
X1290000Y1848000D03*
X1472500Y1817500D03*
X1422000Y1866000D03*
X1447500Y1889000D03*
X1441000Y1869500D03*
X1428000Y1888000D03*
X1445000Y1858000D03*
Y1882500D03*
X1436500Y1888000D03*
X1496000Y1880000D03*
X1556000D03*
X1623500D03*
X1710000Y1858500D03*
X1241000Y1909000D03*
X1242500Y1920000D03*
X1289500Y1893000D03*
X1293500Y1902000D03*
X1295500Y1920500D03*
X1312000Y1902000D03*
X1307500Y1922000D03*
X1372500Y1910500D03*
X1360000Y1920000D03*
X1406000Y1911500D03*
X1377500Y1900500D03*
X1377000Y1924500D03*
X1388000Y1918000D03*
X1381500D03*
X1382000Y1893000D03*
X1407000Y1918000D03*
X1416500Y1906000D03*
X1417500Y1929500D03*
X1453000Y1927000D03*
X1454000Y1918000D03*
X1424000Y1893000D03*
Y1906500D03*
X1431000D03*
X1437500D03*
X1467000Y1917000D03*
X1471000Y1922000D03*
X1467000Y1927000D03*
X1481000Y1906500D03*
X1518500Y1899000D03*
X1525500Y1903000D03*
X1519500Y1891500D03*
X1513000Y1890500D03*
X1538500Y1895500D03*
X1710000Y1898500D03*
X1322500Y1940500D03*
X1386500Y1942500D03*
X1407500Y1967000D03*
X1378000Y1945000D03*
X1383000Y1965500D03*
X1391000Y1931500D03*
X1383500Y1953000D03*
X1386500Y1936000D03*
X1406000Y1950000D03*
X1412500Y1954000D03*
X1391500Y1959000D03*
X1411500Y1934500D03*
X1452500Y1944000D03*
X1451500Y1935500D03*
X1418000Y1950500D03*
X1445000Y1949000D03*
X1447000Y1967500D03*
X1422500Y1968000D03*
X1418000Y1937000D03*
X1430000Y1968500D03*
X1433000Y1954000D03*
X1439500D03*
X1467000Y1936500D03*
X1475500Y1947000D03*
X1479000Y1952500D03*
X1471000Y1953000D03*
X1467000Y1943500D03*
X1482000Y1943000D03*
X1471500Y1931500D03*
X1459000Y1959000D03*
X1583000Y1968000D03*
X1612500Y1965000D03*
X1608500Y1960000D03*
X1619500Y1965500D03*
X1710000Y1938500D03*
X1387500Y1988000D03*
X1445500Y1974500D03*
X1418000Y1973000D03*
X1631000Y2000000D03*
X1284000Y2049000D03*
X1294000Y2037000D03*
X1288000Y2033500D03*
X1413000Y2048500D03*
X1392000Y2026500D03*
X1398000Y2015500D03*
X1432000Y2029500D03*
X1440000Y2019500D03*
X1436500Y2034000D03*
X1419000Y2047000D03*
X1427500D03*
X1423000Y2013000D03*
X1446000Y2015500D03*
X1533000Y2031500D03*
X1288000Y2073000D03*
X1375000Y2052000D03*
X1423000Y2053000D03*
X1623000Y2067500D03*
X1261500Y2099000D03*
X1351500D03*
X1408500Y2106500D03*
X1441500Y2099000D03*
G54D128*
X1673000Y1838500D03*
X1671000Y2034000D03*
X0Y0D02*
M02*
