*
*
G04 PADS 9.3.1 Build Number: 456998 generated Gerber (RS-274-X) file*
G04 PC Version=2.1*
*
%IN "Lighting.pcb"*%
*
%MOIN*%
*
%FSLAX35Y35*%
*
*
*
*
G04 PC Standard Apertures*
*
*
G04 Thermal Relief Aperture macro.*
%AMTER*
1,1,$1,0,0*
1,0,$1-$2,0,0*
21,0,$3,$4,0,0,45*
21,0,$3,$4,0,0,135*
%
*
*
G04 Annular Aperture macro.*
%AMANN*
1,1,$1,0,0*
1,0,$2,0,0*
%
*
*
G04 Odd Aperture macro.*
%AMODD*
1,1,$1,0,0*
1,0,$1-0.005,0,0*
%
*
*
G04 PC Custom Aperture Macros*
*
*
*
*
*
*
G04 PC Aperture Table*
*
%ADD010C,0.001*%
%ADD051C,0.07*%
%ADD053R,0.07X0.07*%
%ADD191R,0.04937X0.04937*%
%ADD192C,0.11236*%
*
*
*
*
G04 PC Circuitry*
G04 Layer Name Lighting.pcb - circuitry*
%LPD*%
*
*
G04 PC Custom Flashes*
G04 Layer Name Lighting.pcb - flashes*
%LPD*%
*
*
G04 PC Circuitry*
G04 Layer Name Lighting.pcb - circuitry*
%LPD*%
*
G54D10*
G54D51*
G01X7559Y45354D03*
Y55354D03*
Y35276D03*
Y25276D03*
X170079Y34528D03*
Y24528D03*
Y45354D03*
Y55354D03*
G54D53*
X8368Y70551D03*
X21868D03*
X8368Y10079D03*
X21868D03*
G54D191*
X37244Y73622D03*
X37291Y66520D03*
X46866D03*
X47087Y73622D03*
X85119Y14409D03*
X85166Y7307D03*
X94741D03*
X94961Y14409D03*
X107796D03*
X107843Y7307D03*
X117418D03*
X117638Y14409D03*
X130473D03*
X130520Y7307D03*
X140095D03*
X140315Y14409D03*
X49213Y43386D03*
X49260Y36283D03*
X58835D03*
X59055Y43386D03*
X73150D03*
X73197Y36283D03*
X82772D03*
X82992Y43386D03*
X61181Y73622D03*
X61228Y66520D03*
X70803D03*
X71024Y73622D03*
X85118D03*
X85165Y66520D03*
X94740D03*
X94961Y73622D03*
X107795D03*
X107843Y66520D03*
X117417D03*
X117638Y73622D03*
X130472D03*
X130520Y66520D03*
X140094D03*
X140315Y73622D03*
X129055Y36614D03*
X129008Y43717D03*
X119433D03*
X119213Y36614D03*
X106378D03*
X106331Y43717D03*
X96756D03*
X96535Y36614D03*
X37245Y14409D03*
X37292Y7307D03*
X46867D03*
X47087Y14409D03*
X61182D03*
X61229Y7307D03*
X70804D03*
X71024Y14409D03*
G54D192*
X147638Y39370D03*
X29528D03*
X0Y0D02*
M02*
