*
*
G04 PADS 9.3.1 Build Number: 456998 generated Gerber (RS-274-X) file*
G04 PC Version=2.1*
*
%IN "Lighting.pcb"*%
*
%MOIN*%
*
%FSLAX35Y35*%
*
*
*
*
G04 PC Standard Apertures*
*
*
G04 Thermal Relief Aperture macro.*
%AMTER*
1,1,$1,0,0*
1,0,$1-$2,0,0*
21,0,$3,$4,0,0,45*
21,0,$3,$4,0,0,135*
%
*
*
G04 Annular Aperture macro.*
%AMANN*
1,1,$1,0,0*
1,0,$2,0,0*
%
*
*
G04 Odd Aperture macro.*
%AMODD*
1,1,$1,0,0*
1,0,$1-0.005,0,0*
%
*
*
G04 PC Custom Aperture Macros*
*
*
*
*
*
*
G04 PC Aperture Table*
*
%ADD010C,0.001*%
%ADD026C,0.06*%
%ADD027R,0.06X0.06*%
%ADD037C,0.055*%
%ADD188R,0.03937X0.03937*%
%ADD189C,0.10236*%
%ADD190C,0.04*%
*
*
*
*
G04 PC Circuitry*
G04 Layer Name Lighting.pcb - circuitry*
%LPD*%
*
*
G04 PC Custom Flashes*
G04 Layer Name Lighting.pcb - flashes*
%LPD*%
*
*
G04 PC Circuitry*
G04 Layer Name Lighting.pcb - circuitry*
%LPD*%
*
G54D10*
G54D26*
G01X7559Y45354D03*
Y55354D03*
Y35276D03*
Y25276D03*
X170079Y34528D03*
Y24528D03*
Y45354D03*
Y55354D03*
G54D27*
X8368Y70551D03*
X21868D03*
X8368Y10079D03*
X21868D03*
G54D37*
X134173Y49134D03*
Y61102D03*
G54D188*
X37244Y73622D03*
X37291Y66520D03*
X46866D03*
X47087Y73622D03*
X85119Y14409D03*
X85166Y7307D03*
X94741D03*
X94961Y14409D03*
X107796D03*
X107843Y7307D03*
X117418D03*
X117638Y14409D03*
X130473D03*
X130520Y7307D03*
X140095D03*
X140315Y14409D03*
X49213Y43386D03*
X49260Y36283D03*
X58835D03*
X59055Y43386D03*
X73150D03*
X73197Y36283D03*
X82772D03*
X82992Y43386D03*
X61181Y73622D03*
X61228Y66520D03*
X70803D03*
X71024Y73622D03*
X85118D03*
X85165Y66520D03*
X94740D03*
X94961Y73622D03*
X107795D03*
X107843Y66520D03*
X117417D03*
X117638Y73622D03*
X130472D03*
X130520Y66520D03*
X140094D03*
X140315Y73622D03*
X129055Y36614D03*
X129008Y43717D03*
X119433D03*
X119213Y36614D03*
X106378D03*
X106331Y43717D03*
X96756D03*
X96535Y36614D03*
X37245Y14409D03*
X37292Y7307D03*
X46867D03*
X47087Y14409D03*
X61182D03*
X61229Y7307D03*
X70804D03*
X71024Y14409D03*
G54D189*
X147638Y39370D03*
X29528D03*
G54D190*
X21868Y10079D02*
X28710D01*
X31481Y7307*
X37292*
X47087Y14409D02*
X51656D01*
X56660Y9405*
Y7307*
X61229*
X71024Y14409D02*
X75593D01*
X80597Y9405*
Y7307*
X85166*
X94961Y14409D02*
X99530D01*
X103274Y10665*
Y7307*
X107843*
X117638Y14409D02*
X122207D01*
X125951Y10665*
Y7307*
X130520*
X7559Y25276D02*
X8233D01*
Y10079*
X8368*
X7559Y35276D02*
Y45354D01*
X49260Y36283D02*
X64756Y20787D01*
X133937*
X140315Y14409*
X96535Y36614D02*
X101654Y31496D01*
X156169*
X159201Y34528*
X170079*
X7559Y45354D02*
X18772D01*
X21921Y48504*
X77874*
X82992Y43386*
X59055D02*
X63624D01*
X68628Y38381*
Y36283*
X73197*
X82992Y43386D02*
X87561D01*
X91967Y38980*
Y36614*
X96535*
X106331Y43717D02*
X110899D01*
X114644Y39972*
Y36614*
X119213*
X134296Y49011D02*
X129005Y43719D01*
X129008*
Y43717*
X134173Y49134D02*
X134296Y49011D01*
X170079Y55354D02*
X7559D01*
X8233*
Y70551*
X8368*
X134173Y61102D02*
X135433D01*
Y73309*
X135746Y73622*
X140315*
X21868Y70551D02*
X26707Y65713D01*
X31916*
X32723Y66520*
X37291*
X47087Y73622D02*
X51655D01*
X56660Y68617*
Y66520*
X61228*
X71024Y73622D02*
X75592D01*
X80597Y68617*
Y66520*
X85165*
X94961Y73622D02*
X99529D01*
X103274Y69877*
Y66520*
X107843*
X117638Y73622D02*
X122206D01*
X125951Y69877*
Y66520*
X130520*
X0Y0D02*
M02*
