*
*
G04 PADS 9.3.1 Build Number: 456998 generated Gerber (RS-274-X) file*
G04 PC Version=2.1*
*
%IN "Lighting.pcb"*%
*
%MOIN*%
*
%FSLAX35Y35*%
*
*
*
*
G04 PC Standard Apertures*
*
*
G04 Thermal Relief Aperture macro.*
%AMTER*
1,1,$1,0,0*
1,0,$1-$2,0,0*
21,0,$3,$4,0,0,45*
21,0,$3,$4,0,0,135*
%
*
*
G04 Annular Aperture macro.*
%AMANN*
1,1,$1,0,0*
1,0,$2,0,0*
%
*
*
G04 Odd Aperture macro.*
%AMODD*
1,1,$1,0,0*
1,0,$1-0.005,0,0*
%
*
*
G04 PC Custom Aperture Macros*
*
*
*
*
*
*
G04 PC Aperture Table*
*
%ADD010C,0.001*%
%ADD011C,0.01*%
%ADD193C,0.003*%
*
*
*
*
G04 PC Circuitry*
G04 Layer Name Lighting.pcb - circuitry*
%LPD*%
*
*
G04 PC Custom Flashes*
G04 Layer Name Lighting.pcb - flashes*
%LPD*%
*
*
G04 PC Circuitry*
G04 Layer Name Lighting.pcb - circuitry*
%LPD*%
*
G54D10*
G54D11*
G01X11368Y75551D02*
X3318D01*
Y65551*
X11368*
X18868Y75551D02*
X26918D01*
Y65551*
X18868*
X11368Y15079D02*
X3318D01*
Y5079*
X11368*
X18868Y15079D02*
X26918D01*
Y5079*
X18868*
G54D193*
X145989Y73478D02*
X145830Y73369D01*
X145671Y73150*
X145591Y72931*
X145512Y72603*
Y72056*
X145591Y71728*
X145671Y71509*
X145830Y71290*
X145989Y71181*
X146307*
X146466Y71290*
X146625Y71509*
X146705Y71728*
X146785Y72056*
Y72603*
X146705Y72931*
X146625Y73150*
X146466Y73369*
X146307Y73478*
X145989*
X148614Y73150D02*
X148455Y73369D01*
X148216Y73478*
X147898*
X147660Y73369*
X147500Y73150*
Y72931*
X147580Y72712*
X147660Y72603*
X147819Y72494*
X148296Y72275*
X148455Y72165*
X148535Y72056*
X148614Y71837*
Y71509*
X148455Y71290*
X148216Y71181*
X147898*
X147660Y71290*
X147500Y71509*
X149330Y73478D02*
Y71837D01*
X149410Y71509*
X149569Y71290*
X149807Y71181*
X149966*
X150205Y71290*
X150364Y71509*
X150444Y71837*
Y73478*
X153546D02*
Y71181D01*
X152989Y73478D02*
X154103D01*
X155773Y72712D02*
Y71181D01*
Y72384D02*
X155614Y72603D01*
X155455Y72712*
X155216*
X155057Y72603*
X154898Y72384*
X154819Y72056*
Y71837*
X154898Y71509*
X155057Y71290*
X155216Y71181*
X155455*
X155614Y71290*
X155773Y71509*
X156489Y72712D02*
Y71181D01*
Y72275D02*
X156728Y72603D01*
X156887Y72712*
X157125*
X157285Y72603*
X157364Y72275*
Y71181*
X159035Y72712D02*
Y70962D01*
X158955Y70634*
X158875Y70525*
X158716Y70415*
X158478*
X158319Y70525*
X159035Y72384D02*
X158875Y72603D01*
X158716Y72712*
X158478*
X158319Y72603*
X158160Y72384*
X158080Y72056*
Y71837*
X158160Y71509*
X158319Y71290*
X158478Y71181*
X158716*
X158875Y71290*
X159035Y71509*
X159750Y72712D02*
Y71619D01*
X159830Y71290*
X159989Y71181*
X160228*
X160387Y71290*
X160625Y71619*
Y72712D02*
Y71181D01*
X162296Y72712D02*
Y71181D01*
Y72384D02*
X162137Y72603D01*
X161978Y72712*
X161739*
X161580Y72603*
X161421Y72384*
X161341Y72056*
Y71837*
X161421Y71509*
X161580Y71290*
X161739Y71181*
X161978*
X162137Y71290*
X162296Y71509*
X163091Y72712D02*
X163569Y71181D01*
X164046Y72712D02*
X163569Y71181D01*
X163410Y70744*
X163250Y70525*
X163091Y70415*
X163012*
X166591Y73478D02*
Y71181D01*
X167546*
X169216Y72712D02*
Y71181D01*
Y72384D02*
X169057Y72603D01*
X168898Y72712*
X168660*
X168500Y72603*
X168341Y72384*
X168262Y72056*
Y71837*
X168341Y71509*
X168500Y71290*
X168660Y71181*
X168898*
X169057Y71290*
X169216Y71509*
X169932Y73478D02*
Y71181D01*
Y72384D02*
X170091Y72603D01*
X170250Y72712*
X170489*
X170648Y72603*
X170807Y72384*
X170887Y72056*
Y71837*
X170807Y71509*
X170648Y71290*
X170489Y71181*
X170250*
X170091Y71290*
X169932Y71509*
X172478Y72384D02*
X172398Y72603D01*
X172160Y72712*
X171921*
X171682Y72603*
X171603Y72384*
X171682Y72165*
X171841Y72056*
X172239Y71947*
X172398Y71837*
X172478Y71619*
Y71509*
X172398Y71290*
X172160Y71181*
X171921*
X171682Y71290*
X171603Y71509*
X146625Y76929D02*
X146466Y77148D01*
X146228Y77258*
X145910*
X145671Y77148*
X145512Y76929*
Y76711*
X145591Y76492*
X145671Y76383*
X145830Y76273*
X146307Y76054*
X146466Y75945*
X146546Y75836*
X146625Y75617*
Y75289*
X146466Y75070*
X146228Y74961*
X145910*
X145671Y75070*
X145512Y75289*
X147978Y77258D02*
X147341Y74961D01*
X147978Y77258D02*
X148614Y74961D01*
X147580Y75726D02*
X148375D01*
X149330Y77258D02*
Y74961D01*
Y77258D02*
X150046D01*
X150285Y77148*
X150364Y77039*
X150444Y76820*
Y76601*
X150364Y76383*
X150285Y76273*
X150046Y76164*
X149330*
X149887D02*
X150444Y74961D01*
X151160Y77258D02*
Y74961D01*
X152114*
X145512Y69698D02*
Y67402D01*
X146466*
X147182Y69698D02*
X147262Y69589D01*
X147341Y69698*
X147262Y69808*
X147182Y69698*
X147262Y68933D02*
Y67402D01*
X149012Y68933D02*
Y67183D01*
X148932Y66855*
X148853Y66745*
X148694Y66636*
X148455*
X148296Y66745*
X149012Y68605D02*
X148853Y68823D01*
X148694Y68933*
X148455*
X148296Y68823*
X148137Y68605*
X148057Y68277*
Y68058*
X148137Y67730*
X148296Y67511*
X148455Y67402*
X148694*
X148853Y67511*
X149012Y67730*
X149728Y69698D02*
Y67402D01*
Y68495D02*
X149966Y68823D01*
X150125Y68933*
X150364*
X150523Y68823*
X150603Y68495*
Y67402*
X151557Y69698D02*
Y67839D01*
X151637Y67511*
X151796Y67402*
X151955*
X151319Y68933D02*
X151875D01*
X152671Y69698D02*
X152750Y69589D01*
X152830Y69698*
X152750Y69808*
X152671Y69698*
X152750Y68933D02*
Y67402D01*
X153546Y68933D02*
Y67402D01*
Y68495D02*
X153785Y68823D01*
X153944Y68933*
X154182*
X154341Y68823*
X154421Y68495*
Y67402*
X156091Y68933D02*
Y67183D01*
X156012Y66855*
X155932Y66745*
X155773Y66636*
X155535*
X155375Y66745*
X156091Y68605D02*
X155932Y68823D01*
X155773Y68933*
X155535*
X155375Y68823*
X155216Y68605*
X155137Y68277*
Y68058*
X155216Y67730*
X155375Y67511*
X155535Y67402*
X155773*
X155932Y67511*
X156091Y67730*
X158637Y69698D02*
Y67402D01*
Y69698D02*
X159353D01*
X159591Y69589*
X159671Y69480*
X159750Y69261*
Y69042*
X159671Y68823*
X159591Y68714*
X159353Y68605*
X158637D02*
X159353D01*
X159591Y68495*
X159671Y68386*
X159750Y68167*
Y67839*
X159671Y67620*
X159591Y67511*
X159353Y67402*
X158637*
X160864Y68933D02*
X160705Y68823D01*
X160546Y68605*
X160466Y68277*
Y68058*
X160546Y67730*
X160705Y67511*
X160864Y67402*
X161103*
X161262Y67511*
X161421Y67730*
X161500Y68058*
Y68277*
X161421Y68605*
X161262Y68823*
X161103Y68933*
X160864*
X163171D02*
Y67402D01*
Y68605D02*
X163012Y68823D01*
X162853Y68933*
X162614*
X162455Y68823*
X162296Y68605*
X162216Y68277*
Y68058*
X162296Y67730*
X162455Y67511*
X162614Y67402*
X162853*
X163012Y67511*
X163171Y67730*
X163887Y68933D02*
Y67402D01*
Y68277D02*
X163966Y68605D01*
X164125Y68823*
X164285Y68933*
X164523*
X166194Y69698D02*
Y67402D01*
Y68605D02*
X166035Y68823D01*
X165875Y68933*
X165637*
X165478Y68823*
X165319Y68605*
X165239Y68277*
Y68058*
X165319Y67730*
X165478Y67511*
X165637Y67402*
X165875*
X166035Y67511*
X166194Y67730*
X145512Y65919D02*
Y63622D01*
Y65919D02*
X146228D01*
X146466Y65810*
X146546Y65700*
X146625Y65481*
Y65263*
X146546Y65044*
X146466Y64935*
X146228Y64825*
X145512*
X146069D02*
X146625Y63622D01*
X147341Y64497D02*
X148296D01*
Y64716*
X148216Y64935*
X148137Y65044*
X147978Y65153*
X147739*
X147580Y65044*
X147421Y64825*
X147341Y64497*
Y64278*
X147421Y63950*
X147580Y63731*
X147739Y63622*
X147978*
X148137Y63731*
X148296Y63950*
X149012Y65153D02*
X149489Y63622D01*
X149966Y65153D02*
X149489Y63622D01*
X150682Y65919D02*
X150762Y65810D01*
X150841Y65919*
X150762Y66028*
X150682Y65919*
X150762Y65153D02*
Y63622D01*
X152432Y64825D02*
X152353Y65044D01*
X152114Y65153*
X151875*
X151637Y65044*
X151557Y64825*
X151637Y64606*
X151796Y64497*
X152194Y64388*
X152353Y64278*
X152432Y64060*
Y63950*
X152353Y63731*
X152114Y63622*
X151875*
X151637Y63731*
X151557Y63950*
X153148Y65919D02*
X153228Y65810D01*
X153307Y65919*
X153228Y66028*
X153148Y65919*
X153228Y65153D02*
Y63622D01*
X154421Y65153D02*
X154262Y65044D01*
X154103Y64825*
X154023Y64497*
Y64278*
X154103Y63950*
X154262Y63731*
X154421Y63622*
X154660*
X154819Y63731*
X154978Y63950*
X155057Y64278*
Y64497*
X154978Y64825*
X154819Y65044*
X154660Y65153*
X154421*
X155773D02*
Y63622D01*
Y64716D02*
X156012Y65044D01*
X156171Y65153*
X156410*
X156569Y65044*
X156648Y64716*
Y63622*
X159194Y65481D02*
X159353Y65591D01*
X159591Y65919*
Y63622*
X160387Y63841D02*
X160307Y63731D01*
X160387Y63622*
X160466Y63731*
X160387Y63841*
X161660Y65919D02*
X161421Y65810D01*
X161262Y65481*
X161182Y64935*
Y64606*
X161262Y64060*
X161421Y63731*
X161660Y63622*
X161819*
X162057Y63731*
X162216Y64060*
X162296Y64606*
Y64935*
X162216Y65481*
X162057Y65810*
X161819Y65919*
X161660*
X146705Y14978D02*
X146625Y15197D01*
X146466Y15416*
X146307Y15525*
X145989*
X145830Y15416*
X145671Y15197*
X145591Y14978*
X145512Y14650*
Y14103*
X145591Y13775*
X145671Y13556*
X145830Y13338*
X145989Y13228*
X146307*
X146466Y13338*
X146625Y13556*
X146705Y13775*
X147819Y14760D02*
X147660Y14650D01*
X147500Y14431*
X147421Y14103*
Y13885*
X147500Y13556*
X147660Y13338*
X147819Y13228*
X148057*
X148216Y13338*
X148375Y13556*
X148455Y13885*
Y14103*
X148375Y14431*
X148216Y14650*
X148057Y14760*
X147819*
X149171D02*
Y13228D01*
Y14103D02*
X149250Y14431D01*
X149410Y14650*
X149569Y14760*
X149807*
X150523D02*
X150841Y13228D01*
X151160Y14760D02*
X150841Y13228D01*
X151160Y14760D02*
X151478Y13228D01*
X151796Y14760D02*
X151478Y13228D01*
X152512Y15525D02*
X152591Y15416D01*
X152671Y15525*
X152591Y15635*
X152512Y15525*
X152591Y14760D02*
Y13228D01*
X153387Y14760D02*
Y13228D01*
Y14322D02*
X153625Y14650D01*
X153785Y14760*
X154023*
X154182Y14650*
X154262Y14322*
Y13228*
X156807Y15525D02*
Y13228D01*
Y15525D02*
X157523D01*
X157762Y15416*
X157841Y15306*
X157921Y15088*
Y14760*
X157841Y14541*
X157762Y14431*
X157523Y14322*
X156807*
X158637Y14103D02*
X159591D01*
Y14322*
X159512Y14541*
X159432Y14650*
X159273Y14760*
X159035*
X158875Y14650*
X158716Y14431*
X158637Y14103*
Y13885*
X158716Y13556*
X158875Y13338*
X159035Y13228*
X159273*
X159432Y13338*
X159591Y13556*
X160307Y14760D02*
Y13228D01*
Y14103D02*
X160387Y14431D01*
X160546Y14650*
X160705Y14760*
X160944*
X161660D02*
Y13228D01*
Y14103D02*
X161739Y14431D01*
X161898Y14650*
X162057Y14760*
X162296*
X163012Y14103D02*
X163966D01*
Y14322*
X163887Y14541*
X163807Y14650*
X163648Y14760*
X163410*
X163250Y14650*
X163091Y14431*
X163012Y14103*
Y13885*
X163091Y13556*
X163250Y13338*
X163410Y13228*
X163648*
X163807Y13338*
X163966Y13556*
X164682Y14760D02*
Y13228D01*
Y14322D02*
X164921Y14650D01*
X165080Y14760*
X165319*
X165478Y14650*
X165557Y14322*
Y13228*
X146307Y11746D02*
X145512Y10214D01*
X146705*
X146307Y11746D02*
Y9449D01*
X148853Y12183D02*
X147421Y8683D01*
X150682Y11746D02*
X149887Y9449D01*
X149569Y11746D02*
X150682D01*
X152830Y12183D02*
X151398Y8683D01*
X153625Y11199D02*
Y11308D01*
X153705Y11527*
X153785Y11636*
X153944Y11746*
X154262*
X154421Y11636*
X154500Y11527*
X154580Y11308*
Y11089*
X154500Y10871*
X154341Y10543*
X153546Y9449*
X154660*
X155853Y11746D02*
X155614Y11636D01*
X155455Y11308*
X155375Y10761*
Y10433*
X155455Y9886*
X155614Y9558*
X155853Y9449*
X156012*
X156250Y9558*
X156410Y9886*
X156489Y10433*
Y10761*
X156410Y11308*
X156250Y11636*
X156012Y11746*
X155853*
X157205Y11308D02*
X157364Y11418D01*
X157603Y11746*
Y9449*
X159114Y11746D02*
X158319Y10214D01*
X159512*
X159114Y11746D02*
Y9449D01*
X0Y0D02*
M02*
